ply
format ascii 1.0
comment Created by Blender 2.79 (sub 0) - www.blender.org, source file: ''
element vertex 30
property float x
property float y
property float z
property float nx
property float ny
property float nz
property uchar red
property uchar green
property uchar blue
element face 12
property list uchar uint vertex_indices
end_header
0.000000 -2.000000 0.000000 -0.000000 0.000000 -1.000000 47 18 255
2.000000 -0.000000 0.000000 -0.000000 0.000000 -1.000000 47 18 255
2.000000 -2.000000 0.000000 -0.000000 0.000000 -1.000000 47 18 255
2.000000 -0.000000 2.000000 0.000000 -0.000000 1.000000 9 0 250
-0.000001 -1.999999 2.000000 0.000000 -0.000000 1.000000 5 0 254
2.000000 -2.000000 2.000000 0.000000 -0.000000 1.000000 4 0 255
2.000000 -2.000000 2.000000 -0.000000 -1.000000 -0.000000 255 246 0
0.000000 -2.000000 0.000000 -0.000000 -1.000000 -0.000000 255 246 0
2.000000 -2.000000 0.000000 -0.000000 -1.000000 -0.000000 255 247 0
-0.000001 -1.999999 2.000000 -1.000000 0.000000 -0.000000 5 1 255
0.000000 0.000000 0.000000 -1.000000 0.000000 -0.000000 4 0 255
0.000000 -2.000000 0.000000 -1.000000 0.000000 -0.000000 4 0 255
0.000000 0.000000 0.000000 0.000000 1.000000 -0.000000 255 0 240
2.000000 -0.000000 2.000000 0.000000 1.000000 -0.000000 255 0 240
2.000000 -0.000000 0.000000 0.000000 1.000000 -0.000000 255 0 240
2.000000 -2.000000 0.000000 1.000000 -0.000000 0.000000 0 253 7
2.000000 -0.000000 2.000000 1.000000 -0.000000 0.000000 0 255 5
2.000000 -2.000000 2.000000 1.000000 -0.000000 0.000000 0 255 5
2.000000 -0.000000 2.000000 -0.000000 0.000000 1.000000 255 0 0
0.000000 0.000000 2.000000 -0.000000 0.000000 1.000000 255 0 0
-0.000001 -1.999999 2.000000 -0.000000 0.000000 1.000000 254 1 24
2.000000 -2.000000 2.000000 -0.000001 -1.000000 0.000000 255 246 0
-0.000001 -1.999999 2.000000 -0.000001 -1.000000 0.000000 255 246 0
0.000000 -2.000000 0.000000 -0.000001 -1.000000 0.000000 255 246 0
2.000000 -0.000000 0.000000 1.000000 -0.000000 0.000000 0 255 5
0.000000 0.000000 0.000000 -0.000000 0.000000 -1.000000 60 33 255
-0.000001 -1.999999 2.000000 -1.000000 0.000000 0.000000 255 244 249
0.000000 0.000000 2.000000 -1.000000 0.000000 0.000000 251 240 249
0.000000 0.000000 0.000000 -1.000000 0.000000 0.000000 255 244 249
0.000000 0.000000 2.000000 0.000000 1.000000 -0.000000 255 0 240
3 0 1 2
3 3 4 5
3 6 7 8
3 9 10 11
3 12 13 14
3 15 16 17
3 18 19 20
3 21 22 23
3 15 24 16
3 0 25 1
3 26 27 28
3 12 29 13
