ply
format ascii 1.0
comment Created by Blender 2.79 (sub 0) - www.blender.org, source file: ''
element vertex 246
property float x
property float y
property float z
property float nx
property float ny
property float nz
property uchar red
property uchar green
property uchar blue
element face 82
property list uchar uint vertex_indices
end_header
0.025555 0.190934 1.050224 0.041629 0.545771 0.836900 171 7 0
-0.244074 0.170116 1.077212 0.041629 0.545771 0.836900 171 7 1
-0.065632 -0.089716 1.237781 0.041629 0.545771 0.836900 171 7 0
0.286190 -0.234390 1.125437 0.387925 0.255747 0.885499 171 7 0
0.231456 0.015608 1.077212 0.387925 0.255747 0.885499 171 7 0
-0.065632 -0.089716 1.237781 0.387925 0.255747 0.885499 170 7 0
0.231456 0.015608 1.077212 0.287115 0.466009 0.836899 171 7 0
0.025555 0.190934 1.050224 0.287115 0.466009 0.836899 171 7 0
-0.065632 -0.089716 1.237781 0.287115 0.466009 0.836899 171 7 0
-0.065632 -0.089716 1.237781 -0.163517 0.434919 0.885499 170 7 0
-0.244074 0.170116 1.077212 -0.163517 0.434919 0.885499 169 8 2
-0.435299 0.000033 1.125438 -0.163517 0.434919 0.885499 171 7 0
-0.435299 0.000033 1.125438 -0.290774 0.000000 0.956792 171 7 0
-0.435299 -0.468814 1.125438 -0.290774 0.000000 0.956792 170 8 1
-0.065632 -0.089716 1.237781 -0.290774 0.000000 0.956792 170 8 2
-0.435299 0.000033 1.125438 -0.425172 0.000000 0.905113 171 7 0
-0.537963 -0.234390 1.077212 -0.425172 0.000000 0.905113 171 7 0
-0.435299 -0.468814 1.125438 -0.425172 0.000000 0.905113 170 8 1
-0.435299 -0.468814 1.125438 -0.071157 -0.218994 0.973128 170 8 1
0.010604 -0.613699 1.125438 -0.071157 -0.218994 0.973128 160 3 4
-0.065632 -0.089716 1.237781 -0.071157 -0.218994 0.973128 161 17 17
-0.435299 -0.468814 1.125438 -0.131386 -0.404356 0.905115 170 7 0
-0.244074 -0.638896 1.077212 -0.131386 -0.404356 0.905115 171 7 0
0.010604 -0.613699 1.125438 -0.131386 -0.404356 0.905115 162 3 4
0.010604 -0.613699 1.125438 0.235241 -0.170912 0.956792 170 7 1
0.286190 -0.234390 1.125437 0.235241 -0.170912 0.956792 171 7 0
-0.065632 -0.089716 1.237781 0.235241 -0.170912 0.956792 167 11 8
0.010604 -0.613699 1.125438 0.343966 -0.249906 0.905116 159 3 5
0.231456 -0.484389 1.077212 0.343966 -0.249906 0.905116 158 3 5
0.286190 -0.234390 1.125437 0.343966 -0.249906 0.905116 166 5 2
0.233815 0.413778 0.948036 0.131965 0.410563 0.902233 79 78 79
0.508085 0.521964 0.858690 0.131965 0.410563 0.902233 79 78 79
-0.136615 0.729256 0.858658 0.131965 0.410563 0.902233 79 78 79
0.508085 0.521964 0.858690 0.414476 0.213898 0.884566 79 78 79
0.586945 -0.000457 0.948066 0.414476 0.213898 0.884566 79 78 79
0.856011 -0.149622 0.858061 0.414476 0.213898 0.884566 79 78 79
0.520637 -0.630695 0.948349 0.427077 -0.129786 0.894852 79 78 79
0.637450 -0.860268 0.859302 0.427077 -0.129786 0.894852 82 81 82
0.856011 -0.149622 0.858061 0.427077 -0.129786 0.894852 79 78 79
0.637450 -0.860268 0.859302 0.192043 -0.404724 0.894046 82 81 82
0.030213 -0.952555 0.947961 0.192043 -0.404724 0.894046 88 88 88
-0.112639 -1.217484 0.858716 0.192043 -0.404724 0.894046 86 86 86
-0.478532 -0.874845 0.948087 -0.245336 -0.481459 0.841432 80 79 80
-0.917214 -0.807475 0.858729 -0.245336 -0.481459 0.841432 86 85 86
-0.112639 -1.217484 0.858716 -0.245336 -0.481459 0.841432 86 86 86
-0.869036 -0.285393 0.948799 -0.509953 -0.100331 0.854331 79 78 79
-1.062447 -0.069907 0.858658 -0.509953 -0.100331 0.854331 79 78 79
-0.917214 -0.807475 0.858729 -0.509953 -0.100331 0.854331 86 85 86
-0.869036 -0.285393 0.948799 -0.275556 0.149875 0.949529 79 78 79
-0.751776 0.501130 0.858682 -0.275556 0.149875 0.949529 79 78 79
-1.062447 -0.069907 0.858658 -0.275556 0.149875 0.949529 79 78 79
-0.449221 0.444911 0.948799 -0.172324 0.464776 0.868498 79 78 79
-0.136615 0.729256 0.858658 -0.172324 0.464776 0.868498 79 78 79
-0.751776 0.501130 0.858682 -0.172324 0.464776 0.868498 79 78 79
-1.062447 -0.069907 0.858658 -0.295388 -0.058257 -0.953599 255 255 255
-0.807445 -0.217102 0.788661 -0.295388 -0.058257 -0.953599 255 255 255
-0.917214 -0.807475 0.858729 -0.295388 -0.058257 -0.953599 255 255 255
0.095906 0.453090 0.788300 0.000818 -0.000036 -1.000000 0 197 255
0.522675 0.047478 0.788664 0.000818 -0.000036 -1.000000 0 197 255
0.026744 -0.935117 0.788294 0.000818 -0.000036 -1.000000 0 197 255
0.508085 0.521964 0.858690 0.105509 0.328000 -0.938767 255 255 255
0.095906 0.453090 0.788300 0.105509 0.328000 -0.938767 255 255 255
-0.136615 0.729256 0.858658 0.105509 0.328000 -0.938767 255 255 255
0.856011 -0.149622 0.858061 0.210725 0.012222 -0.977469 79 78 79
0.551742 -0.486610 0.788253 0.210725 0.012222 -0.977469 79 78 79
0.522675 0.047478 0.788664 0.210725 0.012222 -0.977469 79 78 79
0.637450 -0.860268 0.859302 0.132887 -0.155640 -0.978835 255 255 255
0.026744 -0.935117 0.788294 0.132887 -0.155640 -0.978835 102 103 102
0.551742 -0.486610 0.788253 0.132887 -0.155640 -0.978835 101 102 101
-0.136615 0.729256 0.858658 -0.091789 0.247413 -0.964553 255 255 255
-0.599907 0.282898 0.788253 -0.091789 0.247413 -0.964553 79 78 79
-0.751776 0.501130 0.858682 -0.091789 0.247413 -0.964553 255 255 255
-0.751776 0.501130 0.858682 -0.249519 0.135791 -0.958802 255 255 255
-0.599907 0.282898 0.788253 -0.249519 0.135791 -0.958802 255 255 255
-1.062447 -0.069907 0.858658 -0.249519 0.135791 -0.958802 255 255 255
0.508085 0.521964 0.858690 0.142253 0.148796 -0.978583 255 255 255
0.522675 0.047478 0.788664 0.142253 0.148796 -0.978583 255 255 255
0.095906 0.453090 0.788300 0.142253 0.148796 -0.978583 255 255 255
-0.917214 -0.807475 0.858729 -0.146443 -0.287339 -0.946568 255 255 255
-0.630143 -0.721861 0.788328 -0.146443 -0.287339 -0.946568 255 255 255
-0.112639 -1.217484 0.858716 -0.146443 -0.287339 -0.946568 255 255 255
-0.565946 -0.392303 0.947355 -0.828411 -0.260822 0.495689 171 7 0
-0.435299 -0.468814 1.125438 -0.828411 -0.260822 0.495689 171 7 0
-0.537963 -0.234390 1.077212 -0.828411 -0.260822 0.495689 171 7 0
-0.102520 0.245504 0.947416 -0.302046 0.929738 0.210607 171 7 0
-0.402904 0.147932 0.947355 -0.302046 0.929738 0.210607 171 7 0
-0.244074 0.170116 1.077212 -0.302046 0.929738 0.210607 171 7 0
-0.402904 -0.616712 0.947355 -0.302046 -0.929738 0.210607 171 7 0
-0.102520 -0.714284 0.947416 -0.302046 -0.929738 0.210607 171 7 0
-0.244074 -0.638896 1.077212 -0.302046 -0.929738 0.210607 171 7 0
-0.402904 0.147932 0.947355 -0.765726 0.556330 0.322740 171 7 0
-0.565946 -0.076478 0.947355 -0.765726 0.556330 0.322740 170 8 1
-0.435299 0.000033 1.125438 -0.765726 0.556330 0.322740 171 7 0
-0.402904 0.147932 0.947355 -0.504054 0.707263 0.495691 171 7 0
-0.435299 0.000033 1.125438 -0.504054 0.707263 0.495691 171 7 0
-0.244074 0.170116 1.077212 -0.504054 0.707263 0.495691 171 7 0
-0.565946 -0.076478 0.947355 -0.977560 0.000000 0.210658 171 7 0
-0.565946 -0.392303 0.947355 -0.977560 0.000000 0.210658 171 7 0
-0.537963 -0.234390 1.077212 -0.977560 0.000000 0.210658 171 7 0
0.161274 0.159812 0.947355 0.528456 0.695542 0.486780 171 7 0
0.025555 0.190934 1.050224 0.528456 0.695542 0.486780 171 7 0
0.231456 0.015608 1.077212 0.528456 0.695542 0.486780 171 7 0
0.346914 -0.373080 0.947355 0.946487 0.000000 0.322743 171 7 0
0.346914 -0.095701 0.947355 0.946487 0.000000 0.322743 171 7 1
0.286190 -0.234390 1.125437 0.946487 0.000000 0.322743 169 7 1
-0.102520 -0.714284 0.947416 0.292487 -0.900159 0.322745 171 7 0
0.161274 -0.628592 0.947355 0.292487 -0.900159 0.322745 169 8 2
0.010604 -0.613699 1.125438 0.292487 -0.900159 0.322745 171 7 0
0.346914 -0.373080 0.947355 0.823506 -0.275916 0.495689 171 7 0
0.286190 -0.234390 1.125437 0.823506 -0.275916 0.495689 170 7 0
0.231456 -0.484389 1.077212 0.823506 -0.275916 0.495689 171 7 0
0.161274 -0.628592 0.947355 0.790865 -0.574594 0.210652 171 7 0
0.346914 -0.373080 0.947355 0.790865 -0.574594 0.210652 171 7 0
0.231456 -0.484389 1.077212 0.790865 -0.574594 0.210652 171 7 0
-0.565946 -0.392303 0.947355 -0.765726 -0.556330 0.322740 171 7 0
-0.402904 -0.616712 0.947355 -0.765726 -0.556330 0.322740 171 7 0
-0.435299 -0.468814 1.125438 -0.765726 -0.556330 0.322740 171 7 0
0.161274 0.159812 0.947355 0.306780 0.944306 0.119051 171 7 0
-0.102520 0.245504 0.947416 0.306780 0.944306 0.119051 171 7 0
0.025555 0.190934 1.050224 0.306780 0.944306 0.119051 171 7 0
0.346914 -0.095701 0.947355 0.790865 0.574594 0.210652 171 7 0
0.161274 0.159812 0.947355 0.790865 0.574594 0.210652 171 7 0
0.231456 0.015608 1.077212 0.790865 0.574594 0.210652 171 7 0
0.030213 -0.952555 0.947961 -0.000432 0.002047 0.999998 80 79 80
0.161274 -0.628592 0.947355 -0.000432 0.002047 0.999998 79 78 79
-0.102520 -0.714284 0.947416 -0.000432 0.002047 0.999998 79 78 79
-0.102520 -0.714284 0.947416 -0.007951 -0.868437 0.495736 171 7 0
0.010604 -0.613699 1.125438 -0.007951 -0.868437 0.495736 171 7 0
-0.244074 -0.638896 1.077212 -0.007951 -0.868437 0.495736 170 6 1
-0.449221 0.444911 0.948799 0.014195 0.287948 0.957541 79 78 79
0.233815 0.413778 0.948036 0.014195 0.287948 0.957541 79 78 79
-0.136615 0.729256 0.858658 0.014195 0.287948 0.957541 79 78 79
0.508085 0.521964 0.858690 0.232141 0.197966 0.952323 79 78 79
0.233815 0.413778 0.948036 0.232141 0.197966 0.952323 79 78 79
0.586945 -0.000457 0.948066 0.232141 0.197966 0.952323 79 78 79
0.856011 -0.149622 0.858061 0.301433 -0.031287 0.952974 79 78 79
0.586945 -0.000457 0.948066 0.301433 -0.031287 0.952974 79 78 79
0.520637 -0.630695 0.948349 0.301433 -0.031287 0.952974 79 78 79
0.637450 -0.860268 0.859302 0.179688 -0.274930 0.944524 82 81 82
0.520637 -0.630695 0.948349 0.179688 -0.274930 0.944524 79 78 79
0.030213 -0.952555 0.947961 0.179688 -0.274930 0.944524 88 88 88
0.030213 -0.952555 0.947961 -0.045126 -0.296976 0.953818 80 79 80
-0.478532 -0.874845 0.948087 -0.045126 -0.296976 0.953818 80 79 80
-0.112639 -1.217484 0.858716 -0.045126 -0.296976 0.953818 86 86 86
-0.478532 -0.874845 0.948087 -0.218965 -0.146227 0.964713 80 79 80
-0.869036 -0.285393 0.948799 -0.218965 -0.146227 0.964713 79 78 79
-0.917214 -0.807475 0.858729 -0.218965 -0.146227 0.964713 86 85 86
-0.869036 -0.285393 0.948799 -0.257011 0.147743 0.955048 79 78 79
-0.449221 0.444911 0.948799 -0.257011 0.147743 0.955048 79 78 79
-0.751776 0.501130 0.858682 -0.257011 0.147743 0.955048 79 78 79
0.233815 0.413778 0.948036 0.000870 -0.005423 0.999985 79 78 79
-0.449221 0.444911 0.948799 0.000870 -0.005423 0.999985 79 78 79
-0.102520 0.245504 0.947416 0.000870 -0.005423 0.999985 79 78 79
-0.449221 0.444911 0.948799 0.007894 -0.004538 0.999959 79 78 79
-0.869036 -0.285393 0.948799 0.007894 -0.004538 0.999959 79 78 79
-0.565946 -0.076478 0.947355 0.007894 -0.004538 0.999959 79 78 79
-0.869036 -0.285393 0.948799 0.004766 0.000000 0.999989 79 78 79
-0.565946 -0.392303 0.947355 0.004766 0.000000 0.999989 79 78 79
-0.565946 -0.076478 0.947355 0.004766 0.000000 0.999989 79 78 79
-0.449221 0.444911 0.948799 0.005512 -0.004005 0.999977 79 78 79
-0.565946 -0.076478 0.947355 0.005512 -0.004005 0.999977 79 78 79
-0.402904 0.147932 0.947355 0.005512 -0.004005 0.999977 79 78 79
-0.102520 0.245504 0.947416 0.001309 -0.004660 0.999988 79 78 79
-0.449221 0.444911 0.948799 0.001309 -0.004660 0.999988 79 78 79
-0.402904 0.147932 0.947355 0.001309 -0.004660 0.999988 79 78 79
0.586945 -0.000457 0.948066 -0.002421 -0.001992 0.999995 79 78 79
0.233815 0.413778 0.948036 -0.002421 -0.001992 0.999995 79 78 79
0.161274 0.159812 0.947355 -0.002421 -0.001992 0.999995 79 78 79
0.161274 0.159812 0.947355 -0.002300 -0.001671 0.999996 79 78 79
0.346914 -0.095701 0.947355 -0.002300 -0.001671 0.999996 79 78 79
0.586945 -0.000457 0.948066 -0.002300 -0.001671 0.999996 79 78 79
0.233815 0.413778 0.948036 -0.000584 -0.002516 0.999997 79 78 79
-0.102520 0.245504 0.947416 -0.000584 -0.002516 0.999997 79 78 79
0.161274 0.159812 0.947355 -0.000584 -0.002516 0.999997 79 78 79
0.522675 0.047478 0.788664 -0.000704 0.000732 -0.999999 0 197 255
0.551742 -0.486610 0.788253 -0.000704 0.000732 -0.999999 0 197 255
0.026744 -0.935117 0.788294 -0.000704 0.000732 -0.999999 0 197 255
0.026744 -0.935117 0.788294 -0.000050 0.000007 -1.000000 0 197 255
-0.630143 -0.721861 0.788328 -0.000050 0.000007 -1.000000 0 197 255
0.095906 0.453090 0.788300 -0.000050 0.000007 -1.000000 0 197 255
-0.630143 -0.721861 0.788328 -0.000704 0.000412 -1.000000 0 197 255
-0.807445 -0.217102 0.788661 -0.000704 0.000412 -1.000000 0 197 255
0.095906 0.453090 0.788300 -0.000704 0.000412 -1.000000 0 197 255
-0.807445 -0.217102 0.788661 0.000298 -0.000940 -1.000000 0 197 255
-0.599907 0.282898 0.788253 0.000298 -0.000940 -1.000000 0 197 255
0.095906 0.453090 0.788300 0.000298 -0.000940 -1.000000 0 197 255
-1.062447 -0.069907 0.858658 -0.215703 0.088740 -0.972418 255 255 255
-0.599907 0.282898 0.788253 -0.215703 0.088740 -0.972418 255 255 255
-0.807445 -0.217102 0.788661 -0.215703 0.088740 -0.972418 255 255 255
-0.136615 0.729256 0.858658 -0.050437 0.206479 -0.977150 255 255 255
0.095906 0.453090 0.788300 -0.050437 0.206479 -0.977150 108 107 108
-0.599907 0.282898 0.788253 -0.050437 0.206479 -0.977150 79 78 79
-0.112639 -1.217484 0.858716 -0.068111 -0.209644 -0.975403 255 255 255
-0.630143 -0.721861 0.788328 -0.068111 -0.209644 -0.975403 255 255 255
0.026744 -0.935117 0.788294 -0.068111 -0.209644 -0.975403 255 255 255
0.637450 -0.860268 0.859302 0.146961 -0.307049 -0.940279 255 255 255
-0.112639 -1.217484 0.858716 0.146961 -0.307049 -0.940279 255 255 255
0.026744 -0.935117 0.788294 0.146961 -0.307049 -0.940279 255 255 255
-0.917214 -0.807475 0.858729 -0.216260 -0.075322 -0.973426 255 255 255
-0.807445 -0.217102 0.788661 -0.216260 -0.075322 -0.973426 255 255 255
-0.630143 -0.721861 0.788328 -0.216260 -0.075322 -0.973426 255 255 255
0.856011 -0.149622 0.858061 0.329335 -0.102927 -0.938587 255 255 255
0.637450 -0.860268 0.859302 0.329335 -0.102927 -0.938587 255 255 255
0.551742 -0.486610 0.788253 0.329335 -0.102927 -0.938587 255 255 255
0.508085 0.521964 0.858690 0.284964 0.148517 -0.946962 255 255 255
0.856011 -0.149622 0.858061 0.284964 0.148517 -0.946962 255 255 255
0.522675 0.047478 0.788664 0.284964 0.148517 -0.946962 255 255 255
0.346914 -0.095701 0.947355 0.823506 0.275916 0.495689 171 7 0
0.231456 0.015608 1.077212 0.823506 0.275916 0.495689 171 7 0
0.286190 -0.234390 1.125437 0.823506 0.275916 0.495689 169 6 1
-0.402904 -0.616712 0.947355 -0.504054 -0.707263 0.495691 171 7 0
-0.244074 -0.638896 1.077212 -0.504054 -0.707263 0.495691 171 7 0
-0.435299 -0.468814 1.125438 -0.504054 -0.707263 0.495691 171 7 0
0.161274 -0.628592 0.947355 0.516888 -0.697937 0.495692 171 7 0
0.231456 -0.484389 1.077212 0.516888 -0.697937 0.495692 169 6 1
0.010604 -0.613699 1.125438 0.516888 -0.697937 0.495692 171 7 0
0.586945 -0.000457 0.948066 -0.002963 0.000000 0.999996 79 78 79
0.346914 -0.095701 0.947355 -0.002963 0.000000 0.999996 79 78 79
0.346914 -0.373080 0.947355 -0.002963 0.000000 0.999996 79 78 79
0.520637 -0.630695 0.948349 -0.004374 0.000909 0.999990 79 78 79
0.586945 -0.000457 0.948066 -0.004374 0.000909 0.999990 79 78 79
0.346914 -0.373080 0.947355 -0.004374 0.000909 0.999990 79 78 79
0.161274 -0.628592 0.947355 -0.002754 0.002001 0.999994 79 78 79
0.520637 -0.630695 0.948349 -0.002754 0.002001 0.999994 79 78 79
0.346914 -0.373080 0.947355 -0.002754 0.002001 0.999994 79 78 79
0.030213 -0.952555 0.947961 -0.002748 0.002984 0.999992 80 79 80
0.520637 -0.630695 0.948349 -0.002748 0.002984 0.999992 79 78 79
0.161274 -0.628592 0.947355 -0.002748 0.002984 0.999992 79 78 79
-0.478532 -0.874845 0.948087 0.000653 0.002651 0.999996 80 79 80
0.030213 -0.952555 0.947961 0.000653 0.002651 0.999996 79 78 79
-0.102520 -0.714284 0.947416 0.000653 0.002651 0.999996 79 78 79
-0.869036 -0.285393 0.948799 0.004235 0.001598 0.999990 79 78 79
-0.478532 -0.874845 0.948087 0.004235 0.001598 0.999990 79 78 79
-0.402904 -0.616712 0.947355 0.004235 0.001598 0.999990 79 78 79
-0.565946 -0.392303 0.947355 0.006409 0.004656 0.999969 79 78 79
-0.869036 -0.285393 0.948799 0.006409 0.004656 0.999969 79 78 79
-0.402904 -0.616712 0.947355 0.006409 0.004656 0.999969 79 78 79
-0.102520 -0.714284 0.947416 0.000655 0.002647 0.999996 79 78 79
-0.402904 -0.616712 0.947355 0.000655 0.002647 0.999996 79 78 79
-0.478532 -0.874845 0.948087 0.000655 0.002647 0.999996 80 79 80
-0.565946 -0.076478 0.947355 -0.828411 0.260822 0.495689 171 7 0
-0.537963 -0.234390 1.077212 -0.828411 0.260822 0.495689 171 7 0
-0.435299 0.000033 1.125438 -0.828411 0.260822 0.495689 171 7 0
-0.102520 0.245504 0.947416 -0.018700 0.873294 0.486834 171 7 0
-0.244074 0.170116 1.077212 -0.018700 0.873294 0.486834 170 8 1
0.025555 0.190934 1.050224 -0.018700 0.873294 0.486834 171 7 0
3 0 1 2
3 3 4 5
3 6 7 8
3 9 10 11
3 12 13 14
3 15 16 17
3 18 19 20
3 21 22 23
3 24 25 26
3 27 28 29
3 30 31 32
3 33 34 35
3 36 37 38
3 39 40 41
3 42 43 44
3 45 46 47
3 48 49 50
3 51 52 53
3 54 55 56
3 57 58 59
3 60 61 62
3 63 64 65
3 66 67 68
3 69 70 71
3 72 73 74
3 75 76 77
3 78 79 80
3 81 82 83
3 84 85 86
3 87 88 89
3 90 91 92
3 93 94 95
3 96 97 98
3 99 100 101
3 102 103 104
3 105 106 107
3 108 109 110
3 111 112 113
3 114 115 116
3 117 118 119
3 120 121 122
3 123 124 125
3 126 127 128
3 129 130 131
3 132 133 134
3 135 136 137
3 138 139 140
3 141 142 143
3 144 145 146
3 147 148 149
3 150 151 152
3 153 154 155
3 156 157 158
3 159 160 161
3 162 163 164
3 165 166 167
3 168 169 170
3 171 172 173
3 174 175 176
3 177 178 179
3 180 181 182
3 183 184 185
3 186 187 188
3 189 190 191
3 192 193 194
3 195 196 197
3 198 199 200
3 201 202 203
3 204 205 206
3 207 208 209
3 210 211 212
3 213 214 215
3 216 217 218
3 219 220 221
3 222 223 224
3 225 226 227
3 228 229 230
3 231 232 233
3 234 235 236
3 237 238 239
3 240 241 242
3 243 244 245
