ply
format ascii 1.0
comment Created by Blender 2.79 (sub 0) - www.blender.org, source file: 'flower1.blend'
element vertex 600
property float x
property float y
property float z
property float nx
property float ny
property float nz
property uchar red
property uchar green
property uchar blue
element face 208
property list uchar uint vertex_indices
end_header
-0.017867 -0.002175 0.723594 -0.030070 -0.197353 -0.979871 206 227 210
-0.022359 0.023132 0.718635 -0.030070 -0.197353 -0.979871 206 227 210
0.005903 0.022788 0.717837 -0.030070 -0.197353 -0.979871 206 227 210
0.055731 -0.004312 0.757104 0.700224 -0.268032 -0.661698 206 227 210
0.030955 0.013689 0.723594 0.700224 -0.268032 -0.661698 206 227 210
0.066283 0.039356 0.750582 0.700224 -0.268032 -0.661698 206 227 210
-0.017867 0.080886 0.723594 -0.273928 0.199019 -0.940933 206 227 210
-0.008081 0.039994 0.712096 -0.273928 0.199019 -0.940933 206 227 210
-0.048041 0.039356 0.723594 -0.273928 0.199019 -0.940933 206 227 210
-0.008081 0.039994 0.712096 0.094336 0.290330 -0.952265 206 227 210
-0.017867 0.080886 0.723594 0.094336 0.290330 -0.952265 206 227 210
0.030955 0.065023 0.723594 0.094336 0.290330 -0.952265 206 227 210
0.055731 -0.004312 0.757104 0.904989 -0.268031 -0.330385 206 227 210
0.066283 0.039356 0.750582 0.904989 -0.268031 -0.330385 206 227 210
0.074623 0.013689 0.794251 0.904989 -0.268031 -0.330385 206 227 210
-0.027330 -0.031301 0.757104 0.024747 -0.943521 -0.330386 206 227 210
0.017461 -0.027842 0.750582 0.024747 -0.943521 -0.330386 206 227 210
-0.004373 -0.043706 0.794251 0.024747 -0.943521 -0.330386 206 227 210
-0.078666 0.039356 0.757104 -0.889697 -0.315095 -0.330385 206 227 210
-0.061535 -0.002175 0.750582 -0.889697 -0.315095 -0.330385 206 227 210
-0.083370 0.013689 0.794251 -0.889697 -0.315095 -0.330385 206 227 210
-0.027330 0.110012 0.757104 -0.574602 0.748784 -0.330388 206 227 210
-0.061535 0.080886 0.750582 -0.574602 0.748784 -0.330388 206 227 210
-0.053196 0.106554 0.794251 -0.574602 0.748784 -0.330388 206 227 210
0.055731 0.083023 0.757104 0.534576 0.777864 -0.330387 206 227 210
0.017461 0.106554 0.750582 0.534576 0.777864 -0.330387 206 227 210
0.044449 0.106554 0.794251 0.534576 0.777864 -0.330387 206 227 210
0.055731 -0.004312 0.757104 0.802609 -0.583126 -0.125627 206 227 210
0.074623 0.013689 0.794251 0.802609 -0.583126 -0.125627 206 227 210
0.044449 -0.027843 0.794251 0.802609 -0.583126 -0.125627 206 227 210
-0.027330 -0.031301 0.757104 -0.306569 -0.943522 -0.125629 206 227 210
-0.004373 -0.043706 0.794251 -0.306569 -0.943522 -0.125629 206 227 210
-0.053196 -0.027843 0.794251 -0.306569 -0.943522 -0.125629 206 227 210
-0.078666 0.039356 0.757104 -0.992077 -0.000000 -0.125628 206 227 210
-0.083370 0.013689 0.794251 -0.992077 -0.000000 -0.125628 206 227 210
-0.083370 0.065023 0.794251 -0.992077 -0.000000 -0.125628 206 227 210
-0.027330 0.110012 0.757104 -0.306569 0.943522 -0.125629 206 227 210
-0.053196 0.106554 0.794251 -0.306569 0.943522 -0.125629 206 227 210
-0.004373 0.122418 0.794251 -0.306569 0.943522 -0.125629 206 227 210
0.055731 0.083023 0.757104 0.802609 0.583126 -0.125627 206 227 210
0.044449 0.106554 0.794251 0.802609 0.583126 -0.125627 206 227 210
0.074623 0.065023 0.794251 0.802609 0.583126 -0.125627 206 227 210
0.018584 -0.031301 0.831398 0.408946 -0.628425 0.661699 206 227 210
0.052789 -0.002175 0.837919 0.408946 -0.628425 0.661699 206 227 210
0.009121 -0.002175 0.864908 0.408946 -0.628425 0.661699 206 227 210
-0.064477 -0.004312 0.831398 -0.471299 -0.583122 0.661699 206 227 210
-0.026207 -0.027842 0.837920 -0.471299 -0.583122 0.661699 206 227 210
-0.039701 0.013689 0.864908 -0.471299 -0.583122 0.661699 206 227 210
-0.064477 0.083023 0.831398 -0.700224 0.268032 0.661699 206 227 210
-0.075029 0.039356 0.837919 -0.700224 0.268032 0.661699 206 227 210
-0.039701 0.065023 0.864908 -0.700224 0.268032 0.661699 206 227 210
0.018584 0.110012 0.831398 0.038530 0.748779 0.661700 206 227 210
-0.026207 0.106554 0.837920 0.038530 0.748779 0.661700 206 227 210
0.009121 0.080886 0.864908 0.038530 0.748779 0.661700 206 227 210
0.069919 0.039356 0.831397 0.724043 0.194735 0.661695 206 227 210
0.052789 0.080886 0.837919 0.724043 0.194735 0.661695 206 227 210
0.039295 0.039356 0.864908 0.724043 0.194735 0.661695 206 227 210
0.039295 0.039356 0.864908 0.268035 0.194738 0.943522 206 227 210
0.009121 0.080886 0.864908 0.268035 0.194738 0.943522 206 227 210
-0.004373 0.039356 0.877313 0.268035 0.194738 0.943522 206 227 210
0.039295 0.039356 0.864908 0.491118 0.356821 0.794658 206 227 210
0.052789 0.080886 0.837919 0.491118 0.356821 0.794658 206 227 210
0.009121 0.080886 0.864908 0.491118 0.356821 0.794658 206 227 210
0.052789 0.080886 0.837919 0.408946 0.628425 0.661699 206 227 210
0.018584 0.110012 0.831398 0.408946 0.628425 0.661699 206 227 210
0.009121 0.080886 0.864908 0.408946 0.628425 0.661699 206 227 210
0.009121 0.080886 0.864908 -0.102381 0.315091 0.943523 206 227 210
-0.039701 0.065023 0.864908 -0.102381 0.315091 0.943523 206 227 210
-0.004373 0.039356 0.877313 -0.102381 0.315091 0.943523 206 227 210
0.009121 0.080886 0.864908 -0.187594 0.577345 0.794658 206 227 210
-0.026207 0.106554 0.837920 -0.187594 0.577345 0.794658 206 227 210
-0.039701 0.065023 0.864908 -0.187594 0.577345 0.794658 206 227 210
-0.026207 0.106554 0.837920 -0.471299 0.583122 0.661699 206 227 210
-0.064477 0.083023 0.831398 -0.471299 0.583122 0.661699 206 227 210
-0.039701 0.065023 0.864908 -0.471299 0.583122 0.661699 206 227 210
-0.039701 0.065023 0.864908 -0.331306 0.000000 0.943523 206 227 210
-0.039701 0.013689 0.864908 -0.331306 0.000000 0.943523 206 227 210
-0.004373 0.039356 0.877313 -0.331306 0.000000 0.943523 206 227 210
-0.039701 0.065023 0.864908 -0.607060 0.000000 0.794656 206 227 210
-0.075029 0.039356 0.837919 -0.607060 0.000000 0.794656 206 227 210
-0.039701 0.013689 0.864908 -0.607060 0.000000 0.794656 206 227 210
-0.075029 0.039356 0.837919 -0.700224 -0.268032 0.661699 206 227 210
-0.064477 -0.004312 0.831398 -0.700224 -0.268032 0.661699 206 227 210
-0.039701 0.013689 0.864908 -0.700224 -0.268032 0.661699 206 227 210
-0.039701 0.013689 0.864908 -0.102381 -0.315091 0.943523 206 227 210
0.009121 -0.002175 0.864908 -0.102381 -0.315091 0.943523 206 227 210
-0.004373 0.039356 0.877313 -0.102381 -0.315091 0.943523 206 227 210
-0.039701 0.013689 0.864908 -0.187594 -0.577345 0.794658 206 227 210
-0.026207 -0.027842 0.837920 -0.187594 -0.577345 0.794658 206 227 210
0.009121 -0.002175 0.864908 -0.187594 -0.577345 0.794658 206 227 210
-0.026207 -0.027842 0.837920 0.038530 -0.748778 0.661700 206 227 210
0.018584 -0.031301 0.831398 0.038530 -0.748778 0.661700 206 227 210
0.009121 -0.002175 0.864908 0.038530 -0.748778 0.661700 206 227 210
0.009121 -0.002175 0.864908 0.268035 -0.194738 0.943522 206 227 210
0.039295 0.039356 0.864908 0.268035 -0.194738 0.943522 206 227 210
-0.004373 0.039356 0.877313 0.268035 -0.194738 0.943522 206 227 210
0.009121 -0.002175 0.864908 0.491118 -0.356821 0.794658 206 227 210
0.052789 -0.002175 0.837919 0.491118 -0.356821 0.794658 206 227 210
0.039295 0.039356 0.864908 0.491118 -0.356821 0.794658 206 227 210
0.052789 -0.002175 0.837919 0.724043 -0.194735 0.661695 206 227 210
0.069919 0.039356 0.831397 0.724043 -0.194735 0.661695 206 227 210
0.039295 0.039356 0.864908 0.724043 -0.194735 0.661695 206 227 210
0.074623 0.065023 0.794251 0.889698 0.315094 0.330385 206 227 210
0.052789 0.080886 0.837919 0.889698 0.315094 0.330385 206 227 210
0.069919 0.039356 0.831397 0.889698 0.315094 0.330385 206 227 210
0.074623 0.065023 0.794251 0.794656 0.577348 0.187595 206 227 210
0.044449 0.106554 0.794251 0.794656 0.577348 0.187595 206 227 210
0.052789 0.080886 0.837919 0.794656 0.577348 0.187595 206 227 210
0.044449 0.106554 0.794251 0.574602 0.748784 0.330387 206 227 210
0.018584 0.110012 0.831398 0.574602 0.748784 0.330387 206 227 210
0.052789 0.080886 0.837919 0.574602 0.748784 0.330387 206 227 210
-0.004373 0.122418 0.794251 -0.024747 0.943521 0.330386 206 227 210
-0.026207 0.106554 0.837920 -0.024747 0.943521 0.330386 206 227 210
0.018584 0.110012 0.831398 -0.024747 0.943521 0.330386 206 227 210
-0.004373 0.122418 0.794251 -0.303531 0.934171 0.187598 206 227 210
-0.053196 0.106554 0.794251 -0.303531 0.934171 0.187598 206 227 210
-0.026207 0.106554 0.837920 -0.303531 0.934171 0.187598 206 227 210
-0.053196 0.106554 0.794251 -0.534576 0.777865 0.330387 206 227 210
-0.064477 0.083023 0.831398 -0.534576 0.777865 0.330387 206 227 210
-0.026207 0.106554 0.837920 -0.534576 0.777865 0.330387 206 227 210
-0.083370 0.065023 0.794251 -0.904989 0.268031 0.330384 206 227 210
-0.075029 0.039356 0.837919 -0.904989 0.268031 0.330384 206 227 210
-0.064477 0.083023 0.831398 -0.904989 0.268031 0.330384 206 227 210
-0.083370 0.065023 0.794251 -0.982246 0.000000 0.187599 206 227 210
-0.083370 0.013689 0.794251 -0.982246 0.000000 0.187599 206 227 210
-0.075029 0.039356 0.837919 -0.982246 0.000000 0.187599 206 227 210
-0.083370 0.013689 0.794251 -0.904989 -0.268031 0.330384 206 227 210
-0.064477 -0.004312 0.831398 -0.904989 -0.268031 0.330384 206 227 210
-0.075029 0.039356 0.837919 -0.904989 -0.268031 0.330384 206 227 210
-0.053196 -0.027843 0.794251 -0.534576 -0.777865 0.330386 206 227 210
-0.026207 -0.027842 0.837920 -0.534576 -0.777865 0.330386 206 227 210
-0.064477 -0.004312 0.831398 -0.534576 -0.777865 0.330386 206 227 210
-0.053196 -0.027843 0.794251 -0.303531 -0.934171 0.187597 206 227 210
-0.004373 -0.043706 0.794251 -0.303531 -0.934171 0.187597 206 227 210
-0.026207 -0.027842 0.837920 -0.303531 -0.934171 0.187597 206 227 210
-0.004373 -0.043706 0.794251 -0.024747 -0.943521 0.330386 206 227 210
0.018584 -0.031301 0.831398 -0.024747 -0.943521 0.330386 206 227 210
-0.026207 -0.027842 0.837920 -0.024747 -0.943521 0.330386 206 227 210
0.044449 -0.027843 0.794251 0.574602 -0.748784 0.330387 206 227 210
0.052789 -0.002175 0.837919 0.574602 -0.748784 0.330387 206 227 210
0.018584 -0.031301 0.831398 0.574602 -0.748784 0.330387 206 227 210
0.044449 -0.027843 0.794251 0.794656 -0.577348 0.187595 206 227 210
0.074623 0.013689 0.794251 0.794656 -0.577348 0.187595 206 227 210
0.052789 -0.002175 0.837919 0.794656 -0.577348 0.187595 206 227 210
0.074623 0.013689 0.794251 0.889697 -0.315094 0.330384 206 227 210
0.069919 0.039356 0.831397 0.889697 -0.315094 0.330384 206 227 210
0.052789 -0.002175 0.837919 0.889697 -0.315094 0.330384 206 227 210
0.044449 0.106554 0.794251 0.306569 0.943522 0.125629 206 227 210
-0.004373 0.122418 0.794251 0.306569 0.943522 0.125629 206 227 210
0.018584 0.110012 0.831398 0.306569 0.943522 0.125629 206 227 210
0.044449 0.106554 0.794251 0.303531 0.934171 -0.187598 206 227 210
0.017461 0.106554 0.750582 0.303531 0.934171 -0.187598 206 227 210
-0.004373 0.122418 0.794251 0.303531 0.934171 -0.187598 206 227 210
0.017461 0.106554 0.750582 0.024747 0.943521 -0.330386 206 227 210
-0.027330 0.110012 0.757104 0.024747 0.943521 -0.330386 206 227 210
-0.004373 0.122418 0.794251 0.024747 0.943521 -0.330386 206 227 210
-0.053196 0.106554 0.794251 -0.802609 0.583126 0.125627 206 227 210
-0.083370 0.065023 0.794251 -0.802609 0.583126 0.125627 206 227 210
-0.064477 0.083023 0.831398 -0.802609 0.583126 0.125627 206 227 210
-0.053196 0.106554 0.794251 -0.794656 0.577348 -0.187595 206 227 210
-0.061535 0.080886 0.750582 -0.794656 0.577348 -0.187595 206 227 210
-0.083370 0.065023 0.794251 -0.794656 0.577348 -0.187595 206 227 210
-0.061535 0.080886 0.750582 -0.889697 0.315095 -0.330385 206 227 210
-0.078666 0.039356 0.757104 -0.889697 0.315095 -0.330385 206 227 210
-0.083370 0.065023 0.794251 -0.889697 0.315095 -0.330385 206 227 210
-0.083370 0.013689 0.794251 -0.802609 -0.583126 0.125627 206 227 210
-0.053196 -0.027843 0.794251 -0.802609 -0.583126 0.125627 206 227 210
-0.064477 -0.004312 0.831398 -0.802609 -0.583126 0.125627 206 227 210
-0.083370 0.013689 0.794251 -0.794656 -0.577348 -0.187595 206 227 210
-0.061535 -0.002175 0.750582 -0.794656 -0.577348 -0.187595 206 227 210
-0.053196 -0.027843 0.794251 -0.794656 -0.577348 -0.187595 206 227 210
-0.061535 -0.002175 0.750582 -0.574602 -0.748784 -0.330388 206 227 210
-0.027330 -0.031301 0.757104 -0.574602 -0.748784 -0.330388 206 227 210
-0.053196 -0.027843 0.794251 -0.574602 -0.748784 -0.330388 206 227 210
-0.004373 -0.043706 0.794251 0.306569 -0.943522 0.125628 206 227 210
0.044449 -0.027843 0.794251 0.306569 -0.943522 0.125628 206 227 210
0.018584 -0.031301 0.831398 0.306569 -0.943522 0.125628 206 227 210
-0.004373 -0.043706 0.794251 0.303531 -0.934171 -0.187597 206 227 210
0.017461 -0.027842 0.750582 0.303531 -0.934171 -0.187597 206 227 210
0.044449 -0.027843 0.794251 0.303531 -0.934171 -0.187597 206 227 210
0.017461 -0.027842 0.750582 0.534576 -0.777864 -0.330387 206 227 210
0.055731 -0.004312 0.757104 0.534576 -0.777864 -0.330387 206 227 210
0.044449 -0.027843 0.794251 0.534576 -0.777864 -0.330387 206 227 210
0.074623 0.013689 0.794251 0.992077 0.000000 0.125628 206 227 210
0.074623 0.065023 0.794251 0.992077 0.000000 0.125628 206 227 210
0.069919 0.039356 0.831397 0.992077 0.000000 0.125628 206 227 210
0.074623 0.013689 0.794251 0.982246 0.000000 -0.187599 206 227 210
0.066283 0.039356 0.750582 0.982246 0.000000 -0.187599 206 227 210
0.074623 0.065023 0.794251 0.982246 0.000000 -0.187599 206 227 210
0.066283 0.039356 0.750582 0.904989 0.268031 -0.330385 206 227 210
0.055731 0.083023 0.757104 0.904989 0.268031 -0.330385 206 227 210
0.074623 0.065023 0.794251 0.904989 0.268031 -0.330385 206 227 210
0.030955 0.065023 0.723594 0.471300 0.583122 -0.661698 206 227 210
0.017461 0.106554 0.750582 0.471300 0.583122 -0.661698 206 227 210
0.055731 0.083023 0.757104 0.471300 0.583122 -0.661698 206 227 210
0.030955 0.065023 0.723594 0.187594 0.577345 -0.794658 206 227 210
-0.017867 0.080886 0.723594 0.187594 0.577345 -0.794658 206 227 210
0.017461 0.106554 0.750582 0.187594 0.577345 -0.794658 206 227 210
-0.017867 0.080886 0.723594 -0.038530 0.748779 -0.661699 206 227 210
-0.027330 0.110012 0.757104 -0.038530 0.748779 -0.661699 206 227 210
0.017461 0.106554 0.750582 -0.038530 0.748779 -0.661699 206 227 210
-0.017867 0.080886 0.723594 -0.408946 0.628425 -0.661699 206 227 210
-0.061535 0.080886 0.750582 -0.408946 0.628425 -0.661699 206 227 210
-0.027330 0.110012 0.757104 -0.408946 0.628425 -0.661699 206 227 210
-0.017867 0.080886 0.723594 -0.491119 0.356821 -0.794658 206 227 210
-0.048041 0.039356 0.723594 -0.491119 0.356821 -0.794658 206 227 210
-0.061535 0.080886 0.750582 -0.491119 0.356821 -0.794658 206 227 210
-0.048041 0.039356 0.723594 -0.724042 0.194736 -0.661696 206 227 210
-0.078666 0.039356 0.757104 -0.724042 0.194736 -0.661696 206 227 210
-0.061535 0.080886 0.750582 -0.724042 0.194736 -0.661696 206 227 210
-0.048041 0.039356 0.723594 -0.724042 -0.194736 -0.661696 206 227 210
-0.061535 -0.002175 0.750582 -0.724042 -0.194736 -0.661696 206 227 210
-0.078666 0.039356 0.757104 -0.724042 -0.194736 -0.661696 206 227 210
-0.048041 0.039356 0.723594 -0.491119 -0.356821 -0.794658 206 227 210
-0.017867 -0.002175 0.723594 -0.491119 -0.356821 -0.794658 206 227 210
-0.061535 -0.002175 0.750582 -0.491119 -0.356821 -0.794658 206 227 210
-0.017867 -0.002175 0.723594 -0.408946 -0.628425 -0.661699 206 227 210
-0.027330 -0.031301 0.757104 -0.408946 -0.628425 -0.661699 206 227 210
-0.061535 -0.002175 0.750582 -0.408946 -0.628425 -0.661699 206 227 210
0.066283 0.039356 0.750582 0.700225 0.268032 -0.661698 206 227 210
0.030955 0.065023 0.723594 0.700225 0.268032 -0.661698 206 227 210
0.055731 0.083023 0.757104 0.700225 0.268032 -0.661698 206 227 210
0.066283 0.039356 0.750582 0.607061 0.000000 -0.794655 206 227 210
0.030955 0.013689 0.723594 0.607061 0.000000 -0.794655 206 227 210
0.030955 0.065023 0.723594 0.607061 0.000000 -0.794655 206 227 210
0.030955 0.013689 0.723594 0.282547 0.000000 -0.959254 206 227 210
-0.008081 0.039994 0.712096 0.282547 0.000000 -0.959254 206 227 210
0.030955 0.065023 0.723594 0.282547 0.000000 -0.959254 206 227 210
-0.017867 -0.002175 0.723594 -0.038530 -0.748779 -0.661699 206 227 210
0.017461 -0.027842 0.750582 -0.038530 -0.748779 -0.661699 206 227 210
-0.027330 -0.031301 0.757104 -0.038530 -0.748779 -0.661699 206 227 210
-0.017867 -0.002175 0.723594 0.187594 -0.577345 -0.794658 206 227 210
0.030955 0.013689 0.723594 0.187594 -0.577345 -0.794658 206 227 210
0.017461 -0.027842 0.750582 0.187594 -0.577345 -0.794658 206 227 210
0.030955 0.013689 0.723594 0.471300 -0.583122 -0.661698 206 227 210
0.055731 -0.004312 0.757104 0.471300 -0.583122 -0.661698 206 227 210
0.017461 -0.027842 0.750582 0.471300 -0.583122 -0.661698 206 227 210
-0.057063 0.018541 0.000000 -0.000000 0.000000 -1.000000 0 207 22
0.000000 0.060000 0.000000 -0.000000 0.000000 -1.000000 0 207 22
0.057063 0.018541 0.000000 -0.000000 0.000000 -1.000000 0 207 22
0.057063 0.018541 0.052197 0.573013 0.788684 -0.222786 0 207 22
0.039726 0.066539 0.177521 0.573013 0.788684 -0.222786 0 207 22
0.068546 0.045600 0.177521 0.573013 0.788684 -0.222786 0 207 22
0.000000 0.060000 0.052197 0.587785 0.809017 0.000000 0 207 22
0.057063 0.018541 0.000000 0.587785 0.809017 0.000000 0 207 22
0.000000 0.060000 0.000000 0.587785 0.809017 0.000000 0 207 22
0.035267 -0.048541 0.000000 0.000000 0.000000 -1.000000 0 207 22
0.035267 -0.048541 0.052197 0.944102 -0.306758 -0.120710 0 207 22
0.088063 -0.002073 0.347042 0.944102 -0.306758 -0.120710 0 207 22
0.070956 -0.054723 0.347042 0.944102 -0.306758 -0.120710 0 207 22
0.057063 0.018541 0.052197 0.951056 -0.309017 0.000000 0 207 22
0.035267 -0.048541 0.000000 0.951056 -0.309017 0.000000 0 207 22
0.057063 0.018541 0.000000 0.951056 -0.309017 0.000000 0 207 22
-0.035267 -0.048541 0.000000 0.000000 0.000000 -1.000000 0 207 22
0.031802 -0.049941 0.108770 -0.000000 -0.981576 0.191074 0 207 22
-0.024273 -0.026017 0.231675 -0.000000 -0.981576 0.191074 0 207 22
-0.031802 -0.049941 0.108770 -0.000000 -0.981576 0.191074 0 207 22
0.035267 -0.048541 0.052197 -0.000000 -1.000000 0.000000 0 207 22
-0.035267 -0.048541 0.000000 -0.000000 -1.000000 0.000000 0 207 22
0.035267 -0.048541 0.000000 -0.000000 -1.000000 0.000000 0 207 22
-0.057063 0.018541 0.052197 -0.889005 -0.412741 -0.198281 0 207 22
-0.061812 -0.038661 0.192558 -0.889005 -0.412741 -0.198281 0 207 22
-0.078321 -0.003101 0.192558 -0.889005 -0.412741 -0.198281 0 207 22
-0.035267 -0.048541 0.052197 -0.951057 -0.309017 0.000000 0 207 22
-0.057063 0.018541 0.000000 -0.951057 -0.309017 0.000000 0 207 22
-0.035267 -0.048541 0.000000 -0.951057 -0.309017 0.000000 0 207 22
-0.057063 0.018541 0.052197 -0.569007 0.783171 -0.250748 0 207 22
-0.026683 0.075374 0.160763 -0.569007 0.783171 -0.250748 0 207 22
0.000000 0.060000 0.052197 -0.569007 0.783171 -0.250748 0 207 22
-0.057063 0.018541 0.052197 -0.587785 0.809017 0.000000 0 207 22
0.000000 0.060000 0.000000 -0.587785 0.809017 0.000000 0 207 22
-0.057063 0.018541 0.000000 -0.587785 0.809017 0.000000 0 207 22
0.068546 0.045600 0.177521 0.593204 0.731361 -0.336482 0 207 22
0.092515 0.108275 0.356005 0.593204 0.731361 -0.336482 0 207 22
0.111679 0.092731 0.356005 0.593204 0.731361 -0.336482 0 207 22
0.000000 0.060000 0.052197 -0.953082 -0.008940 0.302579 0 207 22
0.000097 0.000270 0.050738 -0.953082 -0.008940 0.302579 0 207 22
0.039726 0.066539 0.177521 -0.953082 -0.008940 0.302579 0 207 22
-0.069089 0.044564 0.160763 -0.539861 0.743055 -0.395500 0 207 22
-0.073386 0.111909 0.293155 -0.539861 0.743055 -0.395500 0 207 22
-0.026683 0.075374 0.160763 -0.539861 0.743055 -0.395500 0 207 22
-0.057063 0.018541 0.052197 -0.303376 -0.933696 0.190197 0 207 22
-0.026683 0.030785 0.160763 -0.303376 -0.933696 0.190197 0 207 22
-0.069089 0.044564 0.160763 -0.303376 -0.933696 0.190197 0 207 22
0.000000 0.060000 0.052197 0.971355 -0.004225 0.237595 0 207 22
-0.026683 0.030785 0.160763 0.971355 -0.004225 0.237595 0 207 22
0.000097 0.000270 0.050738 0.971355 -0.004225 0.237595 0 207 22
-0.061812 -0.038661 0.192558 -0.881631 -0.409317 -0.234919 0 207 22
-0.109481 -0.057438 0.404174 -0.881631 -0.409317 -0.234919 0 207 22
-0.078321 -0.003101 0.192558 -0.881631 -0.409317 -0.234919 0 207 22
-0.057063 0.018541 0.052197 0.302497 0.929500 0.211010 0 207 22
-0.037116 -0.019815 0.192558 0.302497 0.929500 0.211010 0 207 22
0.000097 0.000270 0.050738 0.302497 0.929500 0.211010 0 207 22
-0.035267 -0.048541 0.052197 0.598006 -0.783632 0.168253 0 207 22
-0.037116 -0.019815 0.192558 0.598006 -0.783632 0.168253 0 207 22
-0.061812 -0.038661 0.192558 0.598006 -0.783632 0.168253 0 207 22
0.025023 -0.027482 0.234229 -0.030448 -0.999433 0.014349 0 207 22
-0.020397 -0.024238 0.363768 -0.030448 -0.999433 0.014349 0 207 22
-0.024273 -0.026017 0.231675 -0.030448 -0.999433 0.014349 0 207 22
-0.000000 -0.006170 0.108770 -0.738878 0.672807 -0.037281 0 207 22
-0.024273 -0.026017 0.231675 -0.738878 0.672807 -0.037281 0 207 22
0.001038 0.005187 0.293163 -0.738878 0.672807 -0.037281 0 207 22
-0.000000 -0.006170 0.108770 0.807491 0.586676 -0.061399 0 207 22
0.025023 -0.027482 0.234229 0.807491 0.586676 -0.061399 0 207 22
0.031802 -0.049941 0.108770 0.807491 0.586676 -0.061399 0 207 22
0.070956 -0.054723 0.347042 0.909032 -0.335607 -0.247041 0 207 22
0.139391 -0.038333 0.576592 0.909032 -0.335607 -0.247041 0 207 22
0.130250 -0.063092 0.576592 0.909032 -0.335607 -0.247041 0 207 22
0.035267 -0.048541 0.052197 -0.809091 -0.580180 0.093611 0 207 22
0.046494 -0.016625 0.347042 -0.809091 -0.580180 0.093611 0 207 22
0.000097 0.000270 0.050738 -0.809091 -0.580180 0.093611 0 207 22
0.057063 0.018541 0.052197 -0.328742 0.939087 0.100220 0 207 22
0.046494 -0.016625 0.347042 -0.328742 0.939087 0.100220 0 207 22
0.088063 -0.002073 0.347042 -0.328742 0.939087 0.100220 0 207 22
-0.073386 0.111909 0.293155 -0.483556 0.665558 -0.568512 0 207 22
-0.098177 0.093897 0.293155 -0.483556 0.665558 -0.568512 0 207 22
-0.134817 0.162904 0.405106 -0.483556 0.665558 -0.568512 0 207 22
-0.069089 0.044564 0.160763 -0.297066 -0.914274 0.275418 0 207 22
-0.073386 0.085842 0.293155 -0.297066 -0.914274 0.275418 0 207 22
-0.098177 0.093897 0.293155 -0.297066 -0.914274 0.275418 0 207 22
-0.026683 0.075374 0.160763 0.943041 0.000000 0.332675 0 207 22
-0.073386 0.085842 0.293155 0.943041 0.000000 0.332675 0 207 22
-0.026683 0.030785 0.160763 0.943041 0.000000 0.332675 0 207 22
0.139391 -0.038333 0.576592 -0.123537 0.752158 0.647299 0 207 22
0.175736 -0.047093 0.593707 -0.123537 0.752158 0.647299 0 207 22
0.169664 -0.042738 0.587488 -0.123537 0.752158 0.647299 0 207 22
-0.098177 0.093897 0.293155 -0.278031 -0.855691 0.436454 0 207 22
-0.073386 0.085842 0.293155 -0.278031 -0.855691 0.436454 0 207 22
-0.134817 0.162904 0.405106 -0.278031 -0.855691 0.436454 0 207 22
-0.073386 0.085842 0.293155 0.876686 0.000000 0.481063 0 207 22
-0.073386 0.111909 0.293155 0.876686 0.000000 0.481063 0 207 22
-0.134817 0.162904 0.405106 0.876686 0.000000 0.481063 0 207 22
0.070956 -0.054723 0.347042 -0.826170 -0.530482 0.189819 0 207 22
0.118677 -0.046109 0.578814 -0.826170 -0.530482 0.189819 0 207 22
0.046494 -0.016625 0.347042 -0.826170 -0.530482 0.189819 0 207 22
0.088063 -0.002073 0.347042 -0.322469 0.921225 0.217621 0 207 22
0.118677 -0.046109 0.578814 -0.322469 0.921225 0.217621 0 207 22
0.139391 -0.038333 0.576592 -0.322469 0.921225 0.217621 0 207 22
0.130250 -0.063092 0.576592 -0.246442 -0.288964 0.925076 0 207 22
0.175736 -0.047093 0.593707 -0.246442 -0.288964 0.925076 0 207 22
0.118677 -0.046109 0.578814 -0.246442 -0.288964 0.925076 0 207 22
0.130250 -0.063092 0.576592 0.301738 -0.075514 -0.950396 0 207 22
0.169664 -0.042738 0.587488 0.301738 -0.075514 -0.950396 0 207 22
0.174679 -0.058786 0.590355 0.301738 -0.075514 -0.950396 0 207 22
0.175736 -0.047093 0.593707 0.852474 -0.186576 0.488341 0 207 22
0.199986 -0.052947 0.549138 0.852474 -0.186576 0.488341 0 207 22
0.202015 -0.044750 0.548728 0.852474 -0.186576 0.488341 0 207 22
0.169664 -0.042738 0.587488 -0.779976 -0.337867 -0.526767 0 207 22
0.199986 -0.052947 0.549138 -0.779976 -0.337867 -0.526767 0 207 22
0.174679 -0.058786 0.590355 -0.779976 -0.337867 -0.526767 0 207 22
-0.100579 -0.084836 0.404174 -0.867568 -0.281890 -0.409711 0 207 22
-0.177000 -0.112779 0.585222 -0.867568 -0.281890 -0.409711 0 207 22
-0.109481 -0.057438 0.404174 -0.867568 -0.281890 -0.409711 0 207 22
-0.078321 -0.003101 0.192558 0.361480 0.891170 0.274132 0 207 22
-0.086175 -0.065010 0.404174 0.361480 0.891170 0.274132 0 207 22
-0.037116 -0.019815 0.192558 0.361480 0.891170 0.274132 0 207 22
-0.061812 -0.038661 0.192558 0.808856 -0.587668 0.019950 0 207 22
-0.086175 -0.065010 0.404174 0.808856 -0.587668 0.019950 0 207 22
-0.100579 -0.084836 0.404174 0.808856 -0.587668 0.019950 0 207 22
-0.109481 -0.057438 0.404174 0.289303 0.890384 0.351455 0 207 22
-0.164566 -0.107144 0.575444 0.289303 0.890384 0.351455 0 207 22
-0.086175 -0.065010 0.404174 0.289303 0.890384 0.351455 0 207 22
-0.100579 -0.084836 0.404174 0.444222 -0.894551 0.049443 0 207 22
-0.164566 -0.107144 0.575444 0.444222 -0.894551 0.049443 0 207 22
-0.177000 -0.112779 0.585222 0.444222 -0.894551 0.049443 0 207 22
0.035267 -0.048541 0.052197 0.807360 0.586581 0.063975 0 207 22
-0.000000 -0.006170 0.108770 0.807360 0.586581 0.063975 0 207 22
0.031802 -0.049941 0.108770 0.807360 0.586581 0.063975 0 207 22
-0.035267 -0.048541 0.052197 -0.807243 0.586765 0.063765 0 207 22
-0.000000 -0.006170 0.108770 -0.807243 0.586765 0.063765 0 207 22
0.000097 0.000270 0.050738 -0.807243 0.586765 0.063765 0 207 22
0.035267 -0.048541 0.052197 -0.000000 -0.879763 -0.475413 0 207 22
-0.021668 -0.078728 0.108057 -0.000000 -0.879763 -0.475413 0 207 22
-0.035267 -0.048541 0.052197 -0.000000 -0.879763 -0.475413 0 207 22
-0.031802 -0.049941 0.108770 -0.941720 -0.332742 0.049449 0 207 22
-0.035267 -0.048541 0.052197 -0.941720 -0.332742 0.049449 0 207 22
-0.021668 -0.078728 0.108057 -0.941720 -0.332742 0.049449 0 207 22
0.021668 -0.078728 0.108057 0.998448 -0.001379 0.055675 0 207 22
0.012044 -0.131096 0.279353 0.998448 -0.001379 0.055675 0 207 22
0.012044 -0.141998 0.279083 0.998448 -0.001379 0.055675 0 207 22
0.035267 -0.048541 0.052197 0.941720 -0.332742 0.049449 0 207 22
0.031802 -0.049941 0.108770 0.941720 -0.332742 0.049449 0 207 22
0.021668 -0.078728 0.108057 0.941720 -0.332742 0.049449 0 207 22
0.021668 -0.078728 0.108057 -0.000000 -0.939967 -0.341266 0 207 22
-0.009361 -0.157972 0.326324 -0.000000 -0.939967 -0.341266 0 207 22
-0.021668 -0.078728 0.108057 -0.000000 -0.939967 -0.341266 0 207 22
-0.031802 -0.049941 0.108770 0.000000 0.903015 0.429610 0 207 22
0.012044 -0.131096 0.279353 0.000000 0.903015 0.429610 0 207 22
0.031802 -0.049941 0.108770 0.000000 0.903015 0.429610 0 207 22
-0.021668 -0.078728 0.108057 -0.941676 -0.329852 -0.066659 0 207 22
-0.009361 -0.157972 0.326324 -0.941676 -0.329852 -0.066659 0 207 22
-0.031802 -0.049941 0.108770 -0.941676 -0.329852 -0.066659 0 207 22
0.012044 -0.141998 0.279083 0.951665 -0.289804 -0.101719 0 207 22
0.007570 -0.209033 0.428217 0.951665 -0.289804 -0.101719 0 207 22
0.001756 -0.248645 0.486678 0.951665 -0.289804 -0.101719 0 207 22
-0.009361 -0.157972 0.326324 -0.100839 0.882655 0.459078 0 207 22
0.007570 -0.209033 0.428217 -0.100839 0.882655 0.459078 0 207 22
0.012044 -0.131096 0.279353 -0.100839 0.882655 0.459078 0 207 22
0.012044 -0.141998 0.279083 -0.356654 -0.824016 -0.440222 0 207 22
-0.006486 -0.223025 0.445763 -0.356654 -0.824016 -0.440222 0 207 22
-0.009361 -0.157972 0.326324 -0.356654 -0.824016 -0.440222 0 207 22
0.068546 0.045600 0.177521 0.349072 -0.926170 0.142681 0 207 22
0.092515 0.082130 0.356005 0.349072 -0.926170 0.142681 0 207 22
0.000097 0.000270 0.050738 0.349072 -0.926170 0.142681 0 207 22
0.007570 -0.209033 0.428217 -0.141139 0.826035 0.545661 0 207 22
-0.006486 -0.223025 0.445763 -0.141139 0.826035 0.545661 0 207 22
0.001756 -0.248645 0.486678 -0.141139 0.826035 0.545661 0 207 22
0.092515 0.108275 0.356005 -0.862495 0.411028 0.295226 0 207 22
0.156277 0.175568 0.448595 -0.862495 0.411028 0.295226 0 207 22
0.171469 0.198784 0.460658 -0.862495 0.411028 0.295226 0 207 22
0.039726 0.066539 0.177521 -0.958937 0.000000 0.283618 0 207 22
0.092515 0.082130 0.356005 -0.958937 0.000000 0.283618 0 207 22
0.092515 0.108275 0.356005 -0.958937 0.000000 0.283618 0 207 22
0.111679 0.092731 0.356005 0.424170 -0.766817 0.481738 0 207 22
0.156277 0.175568 0.448595 0.424170 -0.766817 0.481738 0 207 22
0.092515 0.082130 0.356005 0.424170 -0.766817 0.481738 0 207 22
0.001038 0.005187 0.293163 0.812316 0.583172 0.007334 0 207 22
0.007270 -0.007245 0.591469 0.812316 0.583172 0.007334 0 207 22
0.025023 -0.027482 0.234229 0.812316 0.583172 0.007334 0 207 22
-0.010079 0.016633 0.591469 0.802169 0.582810 -0.129834 0 207 22
0.005903 0.022788 0.717837 0.802169 0.582810 -0.129834 0 207 22
0.007270 -0.007245 0.591469 0.802169 0.582810 -0.129834 0 207 22
0.001038 0.005187 0.293163 -0.807896 0.586971 -0.052630 0 207 22
-0.027427 -0.007245 0.591469 -0.807896 0.586971 -0.052630 0 207 22
-0.010079 0.016633 0.591469 -0.807896 0.586971 -0.052630 0 207 22
-0.020397 -0.024238 0.363768 0.000000 -0.997227 0.074424 0 207 22
0.007270 -0.007245 0.591469 0.000000 -0.997227 0.074424 0 207 22
-0.027427 -0.007245 0.591469 0.000000 -0.997227 0.074424 0 207 22
-0.008081 0.039994 0.712096 -0.778833 0.618072 -0.106798 0 207 22
-0.010079 0.016633 0.591469 -0.778833 0.618072 -0.106798 0 207 22
-0.022359 0.023132 0.718635 -0.778833 0.618072 -0.106798 0 207 22
0.007270 -0.007245 0.591469 -0.005312 -0.972901 0.231162 0 207 22
0.005903 0.022788 0.717837 -0.005312 -0.972901 0.231162 0 207 22
-0.022359 0.023132 0.718635 -0.005312 -0.972901 0.231162 0 207 22
-0.022359 0.023132 0.718635 -0.326557 -0.237256 -0.914915 206 227 210
-0.017867 -0.002175 0.723594 -0.326557 -0.237256 -0.914915 206 227 210
-0.048041 0.039356 0.723594 -0.326557 -0.237256 -0.914915 206 227 210
0.005903 0.022788 0.717837 0.149175 -0.201751 -0.968010 206 227 210
-0.008081 0.039994 0.712096 0.149175 -0.201751 -0.968010 206 227 210
0.030955 0.013689 0.723594 0.149175 -0.201751 -0.968010 206 227 210
0.030955 0.013689 0.723594 0.102381 -0.315092 -0.943523 206 227 210
-0.017867 -0.002175 0.723594 0.102381 -0.315092 -0.943523 206 227 210
0.005903 0.022788 0.717837 0.102381 -0.315092 -0.943523 206 227 210
0.000000 0.060000 0.052197 0.573013 0.788684 -0.222786 0 207 22
0.057063 0.018541 0.052197 0.587785 0.809017 -0.000000 0 207 22
0.035267 -0.048541 0.052197 0.944102 -0.306757 -0.120710 0 207 22
0.057063 0.018541 0.052197 0.944102 -0.306757 -0.120710 0 207 22
0.088063 -0.002073 0.347042 0.944102 -0.306757 -0.120710 0 207 22
0.035267 -0.048541 0.052197 0.951056 -0.309017 0.000000 0 207 22
0.031802 -0.049941 0.108770 -0.038264 -0.983987 0.174086 0 207 22
0.025023 -0.027482 0.234229 -0.038264 -0.983987 0.174086 0 207 22
-0.024273 -0.026017 0.231675 -0.038264 -0.983987 0.174086 0 207 22
-0.035267 -0.048541 0.052197 -0.000000 -1.000000 0.000000 0 207 22
-0.057063 0.018541 0.052197 -0.939387 -0.305225 -0.156169 0 207 22
-0.035267 -0.048541 0.052197 -0.939387 -0.305225 -0.156169 0 207 22
-0.061812 -0.038661 0.192558 -0.939387 -0.305225 -0.156169 0 207 22
-0.057063 0.018541 0.052197 -0.951057 -0.309017 -0.000000 0 207 22
-0.069089 0.044564 0.160763 -0.569007 0.783171 -0.250748 0 207 22
0.000000 0.060000 0.052197 -0.587785 0.809017 0.000000 0 207 22
0.068546 0.045600 0.177521 0.552505 0.760458 -0.341235 0 207 22
0.039726 0.066539 0.177521 0.552505 0.760458 -0.341235 0 207 22
0.092515 0.108275 0.356005 0.552505 0.760458 -0.341235 0 207 22
0.057063 0.018541 0.052197 0.296591 -0.938739 0.175509 0 207 22
0.068546 0.045600 0.177521 0.296591 -0.938739 0.175509 0 207 22
0.000097 0.000270 0.050738 0.296591 -0.938739 0.175509 0 207 22
-0.098177 0.093897 0.293155 -0.539861 0.743055 -0.395500 0 207 22
-0.057063 0.018541 0.052197 -0.294673 -0.936898 0.188122 0 207 22
0.000097 0.000270 0.050738 -0.294673 -0.936898 0.188122 0 207 22
-0.026683 0.030785 0.160763 -0.294673 -0.936898 0.188122 0 207 22
0.000000 0.060000 0.052197 0.971101 -0.000000 0.238669 0 207 22
-0.026683 0.075374 0.160763 0.971101 -0.000000 0.238669 0 207 22
-0.026683 0.030785 0.160763 0.971101 -0.000000 0.238669 0 207 22
-0.061812 -0.038661 0.192558 -0.924446 -0.300371 -0.234897 0 207 22
-0.100579 -0.084836 0.404174 -0.924446 -0.300371 -0.234897 0 207 22
-0.109481 -0.057438 0.404174 -0.924446 -0.300371 -0.234897 0 207 22
-0.057063 0.018541 0.052197 0.368593 0.908707 0.195935 0 207 22
-0.078321 -0.003101 0.192558 0.368593 0.908707 0.195935 0 207 22
-0.037116 -0.019815 0.192558 0.368593 0.908707 0.195935 0 207 22
-0.035267 -0.048541 0.052197 0.804846 -0.579261 0.129151 0 207 22
0.000097 0.000270 0.050738 0.804846 -0.579261 0.129151 0 207 22
-0.037116 -0.019815 0.192558 0.804846 -0.579261 0.129151 0 207 22
-0.000000 -0.006170 0.108770 -0.807320 0.586553 -0.064726 0 207 22
-0.031802 -0.049941 0.108770 -0.807320 0.586553 -0.064726 0 207 22
-0.024273 -0.026017 0.231675 -0.807320 0.586553 -0.064726 0 207 22
-0.000000 -0.006170 0.108770 0.765950 0.641405 -0.043817 0 207 22
0.001038 0.005187 0.293163 0.765950 0.641405 -0.043817 0 207 22
0.025023 -0.027482 0.234229 0.765950 0.641405 -0.043817 0 207 22
0.070956 -0.054723 0.347042 0.920124 -0.298967 -0.252964 0 207 22
0.088063 -0.002073 0.347042 0.920124 -0.298967 -0.252964 0 207 22
0.139391 -0.038333 0.576592 0.920124 -0.298967 -0.252964 0 207 22
0.035267 -0.048541 0.052197 -0.838042 -0.538105 0.090158 0 207 22
0.070956 -0.054723 0.347042 -0.838042 -0.538105 0.090158 0 207 22
0.046494 -0.016625 0.347042 -0.838042 -0.538105 0.090158 0 207 22
0.057063 0.018541 0.052197 -0.306186 0.946501 0.101913 0 207 22
0.000097 0.000270 0.050738 -0.306186 0.946501 0.101913 0 207 22
0.046494 -0.016625 0.347042 -0.306186 0.946501 0.101913 0 207 22
-0.026683 0.030785 0.160763 -0.297066 -0.914274 0.275418 0 207 22
-0.026683 0.075374 0.160763 0.943042 -0.000000 0.332675 0 207 22
-0.073386 0.111909 0.293155 0.943042 -0.000000 0.332675 0 207 22
-0.073386 0.085842 0.293155 0.943042 -0.000000 0.332675 0 207 22
0.139391 -0.038333 0.576592 -0.175793 0.673479 0.717999 0 207 22
0.118677 -0.046109 0.578814 -0.175793 0.673479 0.717999 0 207 22
0.175736 -0.047093 0.593707 -0.175793 0.673479 0.717999 0 207 22
0.070956 -0.054723 0.347042 -0.800464 -0.569795 0.185987 0 207 22
0.130250 -0.063092 0.576592 -0.800464 -0.569795 0.185987 0 207 22
0.118677 -0.046109 0.578814 -0.800464 -0.569795 0.185987 0 207 22
0.088063 -0.002073 0.347042 -0.322487 0.921218 0.217622 0 207 22
0.046494 -0.016625 0.347042 -0.322487 0.921218 0.217622 0 207 22
0.118677 -0.046109 0.578814 -0.322487 0.921218 0.217622 0 207 22
0.169664 -0.042738 0.587488 0.370083 0.891099 0.262641 0 207 22
0.175736 -0.047093 0.593707 0.370083 0.891099 0.262641 0 207 22
0.202015 -0.044750 0.548728 0.370083 0.891099 0.262641 0 207 22
0.130250 -0.063092 0.576592 -0.265406 -0.243422 0.932902 0 207 22
0.174679 -0.058786 0.590355 -0.265406 -0.243422 0.932902 0 207 22
0.175736 -0.047093 0.593707 -0.265406 -0.243422 0.932902 0 207 22
0.130250 -0.063092 0.576592 0.320965 -0.118498 -0.939649 0 207 22
0.139391 -0.038333 0.576592 0.320965 -0.118498 -0.939649 0 207 22
0.169664 -0.042738 0.587488 0.320965 -0.118498 -0.939649 0 207 22
0.175736 -0.047093 0.593707 0.845364 -0.216409 0.488391 0 207 22
0.174679 -0.058786 0.590355 0.845364 -0.216409 0.488391 0 207 22
0.199986 -0.052947 0.549138 0.845364 -0.216409 0.488391 0 207 22
0.169664 -0.042738 0.587488 -0.754493 0.154847 -0.637780 0 207 22
0.202015 -0.044750 0.548728 -0.754493 0.154847 -0.637780 0 207 22
0.199986 -0.052947 0.549138 -0.754493 0.154847 -0.637780 0 207 22
-0.078321 -0.003101 0.192558 0.296812 0.913494 0.278264 0 207 22
-0.109481 -0.057438 0.404174 0.296812 0.913494 0.278264 0 207 22
-0.086175 -0.065010 0.404174 0.296812 0.913494 0.278264 0 207 22
-0.061812 -0.038661 0.192558 0.606397 -0.794628 -0.029128 0 207 22
-0.037116 -0.019815 0.192558 0.606397 -0.794628 -0.029128 0 207 22
-0.086175 -0.065010 0.404174 0.606397 -0.794628 -0.029128 0 207 22
-0.109481 -0.057438 0.404174 -0.283459 0.941539 0.182089 0 207 22
-0.177000 -0.112779 0.585222 -0.283459 0.941539 0.182089 0 207 22
-0.164566 -0.107144 0.575444 -0.283459 0.941539 0.182089 0 207 22
-0.100579 -0.084836 0.404174 0.789169 -0.573365 0.220150 0 207 22
-0.086175 -0.065010 0.404174 0.789169 -0.573365 0.220150 0 207 22
-0.164566 -0.107144 0.575444 0.789169 -0.573365 0.220150 0 207 22
0.035267 -0.048541 0.052197 0.808607 0.584610 0.066229 0 207 22
0.000097 0.000270 0.050738 0.808607 0.584610 0.066229 0 207 22
-0.000000 -0.006170 0.108770 0.808607 0.584610 0.066229 0 207 22
-0.035267 -0.048541 0.052197 -0.807360 0.586581 0.063975 0 207 22
-0.031802 -0.049941 0.108770 -0.807360 0.586581 0.063975 0 207 22
-0.000000 -0.006170 0.108770 -0.807360 0.586581 0.063975 0 207 22
0.021668 -0.078728 0.108057 -0.000000 -0.879763 -0.475413 0 207 22
0.021668 -0.078728 0.108057 0.942538 -0.330615 -0.048121 0 207 22
0.031802 -0.049941 0.108770 0.942538 -0.330615 -0.048121 0 207 22
0.012044 -0.131096 0.279353 0.942538 -0.330615 -0.048121 0 207 22
0.021668 -0.078728 0.108057 -0.074876 -0.933866 -0.349696 0 207 22
0.012044 -0.141998 0.279083 -0.074876 -0.933866 -0.349696 0 207 22
-0.009361 -0.157972 0.326324 -0.074876 -0.933866 -0.349696 0 207 22
-0.031802 -0.049941 0.108770 -0.119625 0.884251 0.451431 0 207 22
-0.009361 -0.157972 0.326324 -0.119625 0.884251 0.451431 0 207 22
0.012044 -0.131096 0.279353 -0.119625 0.884251 0.451431 0 207 22
0.012044 -0.141998 0.279083 0.999560 -0.000734 0.029653 0 207 22
0.012044 -0.131096 0.279353 0.999560 -0.000734 0.029653 0 207 22
0.007570 -0.209033 0.428217 0.999560 -0.000734 0.029653 0 207 22
-0.009361 -0.157972 0.326324 -0.259047 0.845579 0.466787 0 207 22
-0.006486 -0.223025 0.445763 -0.259047 0.845579 0.466787 0 207 22
0.007570 -0.209033 0.428217 -0.259047 0.845579 0.466787 0 207 22
0.012044 -0.141998 0.279083 -0.367245 -0.819815 -0.439357 0 207 22
0.001756 -0.248645 0.486678 -0.367245 -0.819815 -0.439357 0 207 22
-0.006486 -0.223025 0.445763 -0.367245 -0.819815 -0.439357 0 207 22
0.068546 0.045600 0.177521 0.480919 -0.869406 0.113358 0 207 22
0.111679 0.092731 0.356005 0.480919 -0.869406 0.113358 0 207 22
0.092515 0.082130 0.356005 0.480919 -0.869406 0.113358 0 207 22
0.092515 0.108275 0.356005 -0.823601 0.000000 0.567170 0 207 22
0.092515 0.082130 0.356005 -0.823601 0.000000 0.567170 0 207 22
0.156277 0.175568 0.448595 -0.823601 0.000000 0.567170 0 207 22
0.039726 0.066539 0.177521 -0.959155 0.037031 0.280448 0 207 22
0.000097 0.000270 0.050738 -0.959155 0.037031 0.280448 0 207 22
0.092515 0.082130 0.356005 -0.959155 0.037031 0.280448 0 207 22
0.111679 0.092731 0.356005 0.788607 -0.595562 0.152985 0 207 22
0.171469 0.198784 0.460658 0.788607 -0.595562 0.152985 0 207 22
0.156277 0.175568 0.448595 0.788607 -0.595562 0.152985 0 207 22
0.111679 0.092731 0.356005 0.413979 0.510394 -0.753737 0 207 22
0.092515 0.108275 0.356005 0.413979 0.510394 -0.753737 0 207 22
0.171469 0.198784 0.460658 0.413979 0.510394 -0.753737 0 207 22
0.001038 0.005187 0.293163 0.808994 0.587768 0.007595 0 207 22
-0.010079 0.016633 0.591469 0.808994 0.587768 0.007595 0 207 22
0.007270 -0.007245 0.591469 0.808994 0.587768 0.007595 0 207 22
0.001038 0.005187 0.293163 -0.790764 0.611939 0.014967 0 207 22
-0.024273 -0.026017 0.231675 -0.790764 0.611939 0.014967 0 207 22
-0.020397 -0.024238 0.363768 -0.790764 0.611939 0.014967 0 207 22
-0.010079 0.016633 0.591469 0.790168 0.599136 -0.129111 0 207 22
-0.008081 0.039994 0.712096 0.790168 0.599136 -0.129111 0 207 22
0.005903 0.022788 0.717837 0.790168 0.599136 -0.129111 0 207 22
0.001038 0.005187 0.293163 -0.872631 0.484288 -0.063086 0 207 22
-0.020397 -0.024238 0.363768 -0.872631 0.484288 -0.063086 0 207 22
-0.027427 -0.007245 0.591469 -0.872631 0.484288 -0.063086 0 207 22
-0.020397 -0.024238 0.363768 0.104265 -0.992652 0.061414 0 207 22
0.025023 -0.027482 0.234229 0.104265 -0.992652 0.061414 0 207 22
0.007270 -0.007245 0.591469 0.104265 -0.992652 0.061414 0 207 22
-0.010079 0.016633 0.591469 -0.804325 0.584377 -0.107538 0 207 22
-0.027427 -0.007245 0.591469 -0.804325 0.584377 -0.107538 0 207 22
-0.022359 0.023132 0.718635 -0.804325 0.584377 -0.107538 0 207 22
-0.027427 -0.007245 0.591469 0.000000 -0.972636 0.232336 0 207 22
0.007270 -0.007245 0.591469 0.000000 -0.972636 0.232336 0 207 22
-0.022359 0.023132 0.718635 0.000000 -0.972636 0.232336 0 207 22
-0.048041 0.039356 0.723594 -0.271785 -0.139145 -0.952246 206 227 210
-0.008081 0.039994 0.712096 -0.271785 -0.139145 -0.952246 206 227 210
-0.022359 0.023132 0.718635 -0.271785 -0.139145 -0.952246 206 227 210
3 0 1 2
3 3 4 5
3 6 7 8
3 9 10 11
3 12 13 14
3 15 16 17
3 18 19 20
3 21 22 23
3 24 25 26
3 27 28 29
3 30 31 32
3 33 34 35
3 36 37 38
3 39 40 41
3 42 43 44
3 45 46 47
3 48 49 50
3 51 52 53
3 54 55 56
3 57 58 59
3 60 61 62
3 63 64 65
3 66 67 68
3 69 70 71
3 72 73 74
3 75 76 77
3 78 79 80
3 81 82 83
3 84 85 86
3 87 88 89
3 90 91 92
3 93 94 95
3 96 97 98
3 99 100 101
3 102 103 104
3 105 106 107
3 108 109 110
3 111 112 113
3 114 115 116
3 117 118 119
3 120 121 122
3 123 124 125
3 126 127 128
3 129 130 131
3 132 133 134
3 135 136 137
3 138 139 140
3 141 142 143
3 144 145 146
3 147 148 149
3 150 151 152
3 153 154 155
3 156 157 158
3 159 160 161
3 162 163 164
3 165 166 167
3 168 169 170
3 171 172 173
3 174 175 176
3 177 178 179
3 180 181 182
3 183 184 185
3 186 187 188
3 189 190 191
3 192 193 194
3 195 196 197
3 198 199 200
3 201 202 203
3 204 205 206
3 207 208 209
3 210 211 212
3 213 214 215
3 216 217 218
3 219 220 221
3 222 223 224
3 225 226 227
3 228 229 230
3 231 232 233
3 234 235 236
3 237 238 239
3 240 241 242
3 243 244 245
3 237 239 246
3 247 248 249
3 250 251 252
3 237 246 253
3 254 255 256
3 257 258 259
3 260 261 262
3 263 264 265
3 266 267 268
3 269 270 271
3 272 273 274
3 275 276 277
3 278 279 280
3 281 282 283
3 284 285 286
3 287 288 289
3 290 291 292
3 293 294 295
3 296 297 298
3 299 300 301
3 302 303 304
3 305 306 307
3 308 309 310
3 311 312 313
3 314 315 316
3 317 318 319
3 320 321 322
3 323 324 325
3 326 327 328
3 329 330 331
3 332 333 334
3 335 336 337
3 338 339 340
3 341 342 343
3 344 345 346
3 347 348 349
3 350 351 352
3 353 354 355
3 356 357 358
3 359 360 361
3 362 363 364
3 365 366 367
3 368 369 370
3 371 372 373
3 374 375 376
3 377 378 379
3 380 381 382
3 383 384 385
3 386 387 388
3 389 390 391
3 392 393 394
3 395 396 397
3 398 399 400
3 401 402 403
3 404 405 406
3 407 408 409
3 410 411 412
3 413 414 415
3 416 417 418
3 419 420 421
3 422 423 424
3 425 426 427
3 428 429 430
3 431 432 433
3 434 435 436
3 437 438 439
3 440 441 442
3 240 443 241
3 243 444 244
3 445 446 447
3 250 448 251
3 449 450 451
3 257 452 258
3 453 454 455
3 263 456 264
3 266 457 267
3 269 458 270
3 459 460 461
3 462 463 464
3 278 465 279
3 466 467 468
3 469 470 471
3 472 473 474
3 475 476 477
3 478 479 480
3 481 482 483
3 484 485 486
3 487 488 489
3 490 491 492
3 493 494 495
3 317 496 318
3 497 498 499
3 500 501 502
3 503 504 505
3 506 507 508
3 509 510 511
3 512 513 514
3 515 516 517
3 518 519 520
3 521 522 523
3 524 525 526
3 527 528 529
3 530 531 532
3 533 534 535
3 536 537 538
3 539 540 541
3 371 542 372
3 543 544 545
3 546 547 548
3 549 550 551
3 552 553 554
3 555 556 557
3 558 559 560
3 561 562 563
3 564 565 566
3 567 568 569
3 570 571 572
3 573 574 575
3 576 577 578
3 579 580 581
3 582 583 584
3 585 586 587
3 588 589 590
3 591 592 593
3 594 595 596
3 597 598 599
