ply
format ascii 1.0
comment Created by Blender 2.79 (sub 0) - www.blender.org, source file: 'stones.blend'
element vertex 378
property float x
property float y
property float z
property float nx
property float ny
property float nz
property uchar red
property uchar green
property uchar blue
element face 126
property list uchar uint vertex_indices
end_header
-0.145451 -0.343792 -0.030686 -0.035167 -0.068950 -0.997000 112 112 112
-0.228492 -0.608619 -0.009443 -0.035167 -0.068950 -0.997000 112 112 112
-0.326574 -0.484695 -0.014553 -0.035167 -0.068950 -0.997000 112 112 112
-0.145451 -0.343792 -0.030686 -0.084332 -0.005685 -0.996422 112 112 112
-0.326574 -0.484695 -0.014553 -0.084332 -0.005685 -0.996422 112 112 112
-0.296823 -0.294324 -0.018157 -0.084332 -0.005685 -0.996422 112 112 112
-0.228492 -0.608619 -0.009443 0.079447 -0.867338 -0.491339 112 112 112
-0.030999 -0.611901 0.028285 0.079447 -0.867338 -0.491339 112 112 112
-0.119927 -0.676918 0.128677 0.079447 -0.867338 -0.491339 112 112 112
-0.326574 -0.484695 -0.014553 -0.728966 -0.591186 -0.345118 112 112 112
-0.228492 -0.608619 -0.009443 -0.728966 -0.591186 -0.345118 112 112 112
-0.342025 -0.558570 0.144632 -0.728966 -0.591186 -0.345118 112 112 112
-0.325135 -0.200328 0.081618 -0.804228 0.438444 -0.401228 112 112 112
-0.419384 -0.383182 0.070717 -0.804228 0.438444 -0.401228 112 112 112
-0.403693 -0.299575 0.130627 -0.804228 0.438444 -0.401228 112 112 112
0.321035 -0.044490 0.139362 -0.512866 0.827601 -0.228133 140 140 140
0.262301 -0.126312 -0.025425 -0.512866 0.827601 -0.228133 140 140 140
0.172255 -0.172316 0.010118 -0.512866 0.827601 -0.228133 140 140 140
-0.326574 -0.484695 -0.014553 -0.816571 -0.489263 -0.306321 112 112 112
-0.342025 -0.558570 0.144632 -0.816571 -0.489263 -0.306321 112 112 112
-0.419384 -0.383182 0.070717 -0.816571 -0.489263 -0.306321 112 112 112
-0.342025 -0.558570 0.144632 -0.203460 -0.495659 0.844349 112 112 112
-0.119927 -0.676918 0.128677 -0.203460 -0.495659 0.844349 112 112 112
-0.259997 -0.464156 0.219822 -0.203460 -0.495659 0.844349 112 112 112
-0.403693 -0.299575 0.130627 -0.606102 -0.101655 0.788865 112 112 112
-0.342025 -0.558570 0.144632 -0.606102 -0.101655 0.788865 112 112 112
-0.259997 -0.464156 0.219822 -0.606102 -0.101655 0.788865 112 112 112
-0.032677 -0.583428 0.177364 0.196934 0.036805 0.979726 112 112 112
0.025624 -0.440295 0.160268 0.196934 0.036805 0.979726 112 112 112
-0.197908 -0.280994 0.199216 0.196934 0.036805 0.979726 112 112 112
-0.348446 -0.262464 0.156303 -0.247325 0.190717 0.949978 112 112 112
-0.259997 -0.464156 0.219822 -0.247325 0.190717 0.949978 112 112 112
-0.197908 -0.280994 0.199216 -0.247325 0.190717 0.949978 112 112 112
-0.259997 -0.464156 0.219822 0.204119 0.040848 0.978094 112 112 112
-0.032677 -0.583428 0.177364 0.204119 0.040848 0.978094 112 112 112
-0.197908 -0.280994 0.199216 0.204119 0.040848 0.978094 112 112 112
-0.259997 -0.464156 0.219822 -0.052527 -0.422256 0.904953 112 112 112
-0.119927 -0.676918 0.128677 -0.052527 -0.422256 0.904953 112 112 112
-0.032677 -0.583428 0.177364 -0.052527 -0.422256 0.904953 112 112 112
0.028739 -0.577505 0.104843 0.970945 -0.070349 0.228728 112 112 112
0.041618 -0.452973 0.088471 0.970945 -0.070349 0.228728 112 112 112
0.025624 -0.440295 0.160268 0.970945 -0.070349 0.228728 112 112 112
-0.069484 -0.239349 0.088212 0.606585 0.533192 0.589713 112 112 112
-0.115725 -0.263650 0.157748 0.606585 0.533192 0.589713 112 112 112
-0.006182 -0.393232 0.162233 0.606585 0.533192 0.589713 112 112 112
-0.419384 -0.383182 0.070717 -0.861103 -0.179302 0.475765 112 112 112
-0.342025 -0.558570 0.144632 -0.861103 -0.179302 0.475765 112 112 112
-0.403693 -0.299575 0.130627 -0.861103 -0.179302 0.475765 112 112 112
-0.342025 -0.558570 0.144632 -0.472850 -0.878893 -0.062936 112 112 112
-0.228492 -0.608619 -0.009443 -0.472850 -0.878893 -0.062936 112 112 112
-0.119927 -0.676918 0.128677 -0.472850 -0.878893 -0.062936 112 112 112
-0.119927 -0.676918 0.128677 0.551812 -0.727409 0.407896 112 112 112
0.028739 -0.577505 0.104843 0.551812 -0.727409 0.407896 112 112 112
-0.032677 -0.583428 0.177364 0.551812 -0.727409 0.407896 112 112 112
-0.119927 -0.676918 0.128677 0.549099 -0.834028 -0.053741 112 112 112
-0.030999 -0.611901 0.028285 0.549099 -0.834028 -0.053741 112 112 112
0.028739 -0.577505 0.104843 0.549099 -0.834028 -0.053741 112 112 112
-0.030999 -0.611901 0.028285 0.802487 -0.391468 -0.450298 112 112 112
0.016036 -0.496761 0.012009 0.802487 -0.391468 -0.450298 112 112 112
0.028739 -0.577505 0.104843 0.802487 -0.391468 -0.450298 112 112 112
0.016036 -0.496761 0.012009 0.569927 0.401570 -0.716885 112 112 112
-0.145451 -0.343792 -0.030686 0.569927 0.401570 -0.716885 112 112 112
-0.069484 -0.239349 0.088212 0.569927 0.401570 -0.716885 112 112 112
-0.296823 -0.294324 -0.018157 -0.017772 0.725234 -0.688273 112 112 112
-0.325135 -0.200328 0.081618 -0.017772 0.725234 -0.688273 112 112 112
-0.209123 -0.228074 0.049386 -0.017772 0.725234 -0.688273 112 112 112
-0.296823 -0.294324 -0.018157 -0.710212 0.400578 -0.578909 112 112 112
-0.419384 -0.383182 0.070717 -0.710212 0.400578 -0.578909 112 112 112
-0.325135 -0.200328 0.081618 -0.710212 0.400578 -0.578909 112 112 112
-0.296823 -0.294324 -0.018157 -0.623650 0.082746 -0.777312 112 112 112
-0.326574 -0.484695 -0.014553 -0.623650 0.082746 -0.777312 112 112 112
-0.419384 -0.383182 0.070717 -0.623650 0.082746 -0.777312 112 112 112
-0.030999 -0.611901 0.028285 0.180119 -0.209434 -0.961090 112 112 112
-0.228492 -0.608619 -0.009443 0.180119 -0.209434 -0.961090 112 112 112
0.016036 -0.496761 0.012009 0.180119 -0.209434 -0.961090 112 112 112
-0.228492 -0.608619 -0.009443 0.142650 -0.123507 -0.982037 112 112 112
-0.145451 -0.343792 -0.030686 0.142650 -0.123507 -0.982037 112 112 112
0.016036 -0.496761 0.012009 0.142650 -0.123507 -0.982037 112 112 112
0.438061 -0.376096 -0.046898 -0.067184 0.038433 -0.997000 140 140 140
0.091293 -0.248796 -0.018623 -0.067184 0.038433 -0.997000 140 140 140
0.262301 -0.126312 -0.025425 -0.067184 0.038433 -0.997000 140 140 140
0.438061 -0.376096 -0.046898 -0.001635 0.084508 -0.996422 140 140 140
0.262301 -0.126312 -0.025425 -0.001635 0.084508 -0.996422 140 140 140
0.513487 -0.178014 -0.030222 -0.001635 0.084508 -0.996422 140 140 140
0.091293 -0.248796 -0.018623 -0.858634 -0.058226 -0.509272 140 140 140
0.041618 -0.452973 0.088471 -0.858634 -0.058226 -0.509272 140 140 140
-0.006182 -0.393232 0.162233 -0.858634 -0.058226 -0.509272 140 140 140
0.637835 -0.139215 0.098374 0.478306 0.845900 -0.235958 255 255 255
0.403179 -0.009406 0.088066 0.478306 0.845900 -0.235958 255 255 255
0.547292 -0.062251 0.190747 0.478306 0.845900 -0.235958 255 255 255
0.224393 -0.581017 0.009929 0.265515 -0.898568 -0.349397 140 140 140
0.520801 -0.528561 0.100272 0.265515 -0.898568 -0.349397 140 140 140
0.307495 -0.622697 0.180270 0.265515 -0.898568 -0.349397 140 140 140
0.224393 -0.581017 0.009929 -0.107249 -0.976560 -0.186623 140 140 140
0.307495 -0.622697 0.180270 -0.107249 -0.976560 -0.186623 140 140 140
0.116239 -0.592752 0.133486 -0.107249 -0.976560 -0.186623 140 140 140
0.601441 -0.358450 0.216615 0.349201 0.144692 0.925809 140 140 140
0.547292 -0.062251 0.190747 0.349201 0.144692 0.925809 140 140 140
0.331970 -0.241759 0.300018 0.349201 0.144692 0.925809 140 140 140
0.112284 -0.510726 0.230009 0.068284 -0.303172 0.950486 140 140 140
0.307495 -0.622697 0.180270 0.068284 -0.303172 0.950486 140 140 140
0.331970 -0.241759 0.300018 0.068284 -0.303172 0.950486 140 140 140
0.307495 -0.622697 0.180270 0.158395 -0.305344 0.938976 140 140 140
0.601441 -0.358450 0.216615 0.158395 -0.305344 0.938976 140 140 140
0.331970 -0.241759 0.300018 0.158395 -0.305344 0.938976 140 140 140
0.331970 -0.241759 0.300018 -0.414689 0.103392 0.904070 140 140 140
-0.006182 -0.393232 0.162233 -0.414689 0.103392 0.904070 140 140 140
0.112284 -0.510726 0.230009 -0.414689 0.103392 0.904070 140 140 140
0.116239 -0.592752 0.133486 -0.266918 -0.739735 0.617694 140 140 140
0.307495 -0.622697 0.180270 -0.266918 -0.739735 0.617694 140 140 140
0.112284 -0.510726 0.230009 -0.266918 -0.739735 0.617694 140 140 140
0.520801 -0.528561 0.100272 0.500896 -0.637680 0.585207 140 140 140
0.601441 -0.358450 0.216615 0.500896 -0.637680 0.585207 140 140 140
0.307495 -0.622697 0.180270 0.500896 -0.637680 0.585207 140 140 140
0.520801 -0.528561 0.100272 0.770964 -0.565641 0.292686 102 102 102
0.639210 -0.361116 0.111973 0.770964 -0.565641 0.292686 102 102 102
0.601441 -0.358450 0.216615 0.770964 -0.565641 0.292686 102 102 102
0.637835 -0.139215 0.098374 0.776580 0.194308 0.599306 140 140 140
0.547292 -0.062251 0.190747 0.776580 0.194308 0.599306 140 140 140
0.601441 -0.358450 0.216615 0.776580 0.194308 0.599306 140 140 140
0.639210 -0.361116 0.111973 0.940489 0.026589 0.338782 140 140 140
0.637835 -0.139215 0.098374 0.940489 0.026589 0.338782 140 140 140
0.601441 -0.358450 0.216615 0.940489 0.026589 0.338782 140 140 140
0.074324 -0.511139 0.031591 -0.429500 -0.782791 -0.450298 140 140 140
0.224393 -0.581017 0.009929 -0.429500 -0.782791 -0.450298 140 140 140
0.116239 -0.592752 0.133486 -0.429500 -0.782791 -0.450298 140 140 140
0.224393 -0.581017 0.009929 0.330793 -0.556305 -0.762300 140 140 140
0.438061 -0.376096 -0.046898 0.330793 -0.556305 -0.762300 140 140 140
0.520801 -0.528561 0.100272 0.330793 -0.556305 -0.762300 140 140 140
0.438061 -0.376096 -0.046898 0.592801 -0.369182 -0.715746 140 140 140
0.639210 -0.361116 0.111973 0.592801 -0.369182 -0.715746 140 140 140
0.520801 -0.528561 0.100272 0.592801 -0.369182 -0.715746 140 140 140
0.438061 -0.376096 -0.046898 0.618495 -0.170943 -0.766969 140 140 140
0.513487 -0.178014 -0.030222 0.618495 -0.170943 -0.766969 140 140 140
0.639210 -0.361116 0.111973 0.618495 -0.170943 -0.766969 140 140 140
0.513487 -0.178014 -0.030222 0.724032 -0.037722 -0.688734 140 140 140
0.637835 -0.139215 0.098374 0.724032 -0.037722 -0.688734 140 140 140
0.639210 -0.361116 0.111973 0.724032 -0.037722 -0.688734 140 140 140
0.513487 -0.178014 -0.030222 0.406928 0.687877 -0.601028 255 255 255
0.403179 -0.009406 0.088066 0.406928 0.687877 -0.601028 255 255 255
0.637835 -0.139215 0.098374 0.406928 0.687877 -0.601028 255 255 255
0.513487 -0.178014 -0.030222 0.112558 0.618965 -0.777312 140 140 140
0.262301 -0.126312 -0.025425 0.112558 0.618965 -0.777312 140 140 140
0.403179 -0.009406 0.088066 0.112558 0.618965 -0.777312 140 140 140
0.074324 -0.511139 0.031591 -0.217831 -0.169869 -0.961090 140 140 140
0.091293 -0.248796 -0.018623 -0.217831 -0.169869 -0.961090 140 140 140
0.224393 -0.581017 0.009929 -0.217831 -0.169869 -0.961090 140 140 140
0.091293 -0.248796 -0.018623 -0.130206 -0.136563 -0.982037 140 140 140
0.438061 -0.376096 -0.046898 -0.130206 -0.136563 -0.982037 140 140 140
0.224393 -0.581017 0.009929 -0.130206 -0.136563 -0.982037 140 140 140
-0.202574 0.259820 -0.032165 0.035967 -0.066370 -0.997147 87 87 87
0.172255 -0.172316 0.010118 0.035967 -0.066370 -0.997147 87 87 87
-0.147330 -0.211749 0.001215 0.035967 -0.066370 -0.997147 87 87 87
-0.202574 0.259820 -0.032165 -0.038822 -0.075080 -0.996421 87 87 87
-0.147330 -0.211749 0.001215 -0.038822 -0.075080 -0.996421 87 87 87
-0.452362 0.044941 -0.006242 -0.038822 -0.075080 -0.996421 87 87 87
0.394594 0.175021 0.089850 0.770224 -0.374541 -0.516212 87 87 87
0.321035 -0.044490 0.139362 0.770224 -0.374541 -0.516212 87 87 87
0.172255 -0.172316 0.010118 0.770224 -0.374541 -0.516212 87 87 87
-0.651056 0.084000 0.193667 -0.789225 -0.487677 -0.373223 87 87 87
-0.426461 -0.267205 0.177642 -0.789225 -0.487677 -0.373223 87 87 87
-0.557611 -0.149824 0.301598 -0.789225 -0.487677 -0.373223 87 87 87
0.241230 0.381669 0.056175 0.132898 0.862723 -0.487900 87 87 87
-0.202750 0.529487 0.196617 0.132898 0.862723 -0.487900 87 87 87
0.167660 0.501627 0.248250 0.132898 0.862723 -0.487900 87 87 87
0.241230 0.381669 0.056175 0.606153 0.757903 -0.241166 87 87 87
0.167660 0.501627 0.248250 0.606153 0.757903 -0.241166 87 87 87
0.397745 0.317611 0.248250 0.606153 0.757903 -0.241166 87 87 87
-0.033146 -0.318274 0.330576 0.249160 -0.458572 0.853013 71 71 71
0.310579 -0.150203 0.320530 0.249160 -0.458572 0.853013 71 71 71
-0.112325 -0.071909 0.486148 0.249160 -0.458572 0.853013 71 71 71
-0.557611 -0.149824 0.301598 -0.227016 -0.571101 0.788865 87 87 87
-0.033146 -0.318274 0.330576 -0.227016 -0.571101 0.788865 87 87 87
-0.112325 -0.071909 0.486148 -0.227016 -0.571101 0.788865 87 87 87
-0.438950 0.356698 0.377477 -0.388685 0.122802 0.913151 87 87 87
-0.555563 0.032138 0.371488 -0.388685 0.122802 0.913151 87 87 87
-0.278966 0.167195 0.471060 -0.388685 0.122802 0.913151 87 87 87
0.342404 0.202569 0.398300 0.101531 0.214602 0.971410 87 87 87
0.147974 0.466519 0.360310 0.101531 0.214602 0.971410 87 87 87
-0.278966 0.167195 0.471060 0.101531 0.214602 0.971410 87 87 87
0.147974 0.466519 0.360310 -0.049713 0.408180 0.911547 87 87 87
-0.438950 0.356698 0.377477 -0.049713 0.408180 0.911547 87 87 87
-0.278966 0.167195 0.471060 -0.049713 0.408180 0.911547 87 87 87
-0.278966 0.167195 0.471060 -0.277422 -0.133306 0.951455 87 87 87
-0.555563 0.032138 0.371488 -0.277422 -0.133306 0.951455 87 87 87
-0.112325 -0.071909 0.486148 -0.277422 -0.133306 0.951455 87 87 87
-0.555563 0.032138 0.371488 -0.309276 -0.337936 0.888902 87 87 87
-0.557611 -0.149824 0.301598 -0.309276 -0.337936 0.888902 87 87 87
-0.112325 -0.071909 0.486148 -0.309276 -0.337936 0.888902 87 87 87
-0.112325 -0.071909 0.486148 0.107503 0.137062 0.984712 87 87 87
0.342404 0.202569 0.398300 0.107503 0.137062 0.984712 87 87 87
-0.278966 0.167195 0.471060 0.107503 0.137062 0.984712 87 87 87
-0.112325 -0.071909 0.486148 0.317324 -0.231369 0.919660 87 87 87
0.310579 -0.150203 0.320530 0.317324 -0.231369 0.919660 87 87 87
0.342404 0.202569 0.398300 0.317324 -0.231369 0.919660 87 87 87
0.397745 0.317611 0.248250 0.588327 0.522226 0.617374 87 87 87
0.147974 0.466519 0.360310 0.588327 0.522226 0.617374 87 87 87
0.342404 0.202569 0.398300 0.588327 0.522226 0.617374 87 87 87
0.397745 0.317611 0.248250 0.588712 0.736096 0.334037 71 71 71
0.167660 0.501627 0.248250 0.588712 0.736096 0.334037 71 71 71
0.147974 0.466519 0.360310 0.588712 0.736096 0.334037 71 71 71
-0.202750 0.529487 0.196617 -0.131913 0.797105 0.589255 87 87 87
-0.438950 0.356698 0.377477 -0.131913 0.797105 0.589255 87 87 87
0.147974 0.466519 0.360310 -0.131913 0.797105 0.589255 87 87 87
-0.202750 0.529487 0.196617 -0.408385 0.864614 0.292686 87 87 87
-0.488599 0.388314 0.214807 -0.408385 0.864614 0.292686 87 87 87
-0.438950 0.356698 0.377477 -0.408385 0.864614 0.292686 87 87 87
-0.651056 0.084000 0.193667 -0.808906 0.281107 0.516381 87 87 87
-0.555563 0.032138 0.371488 -0.808906 0.281107 0.516381 87 87 87
-0.438950 0.356698 0.377477 -0.808906 0.281107 0.516381 87 87 87
-0.651056 0.084000 0.193667 -0.888469 -0.155802 0.431682 87 87 87
-0.557611 -0.149824 0.301598 -0.888469 -0.155802 0.431682 87 87 87
-0.555563 0.032138 0.371488 -0.888469 -0.155802 0.431682 87 87 87
-0.426461 -0.267205 0.177642 -0.292692 -0.829445 0.475764 87 87 87
-0.033146 -0.318274 0.330576 -0.292692 -0.829445 0.475764 87 87 87
-0.557611 -0.149824 0.301598 -0.292692 -0.829445 0.475764 87 87 87
0.439370 0.052099 0.248250 0.710001 -0.212086 0.671504 87 87 87
0.342404 0.202569 0.398300 0.710001 -0.212086 0.671504 87 87 87
0.310579 -0.150203 0.320530 0.710001 -0.212086 0.671504 87 87 87
0.167660 0.501627 0.248250 0.029320 0.952371 0.303528 87 87 87
-0.202750 0.529487 0.196617 0.029320 0.952371 0.303528 87 87 87
0.147974 0.466519 0.360310 0.029320 0.952371 0.303528 87 87 87
-0.488599 0.388314 0.214807 -0.839573 0.424669 0.338783 87 87 87
-0.651056 0.084000 0.193667 -0.839573 0.424669 0.338783 87 87 87
-0.438950 0.356698 0.377477 -0.839573 0.424669 0.338783 87 87 87
0.439370 0.052099 0.248250 0.889560 0.139460 0.435011 87 87 87
0.397745 0.317611 0.248250 0.889560 0.139460 0.435011 87 87 87
0.342404 0.202569 0.398300 0.889560 0.139460 0.435011 87 87 87
0.439370 0.052099 0.248250 0.975665 0.152959 -0.157102 87 87 87
0.394594 0.175021 0.089850 0.975665 0.152959 -0.157102 87 87 87
0.397745 0.317611 0.248250 0.975665 0.152959 -0.157102 87 87 87
0.394594 0.175021 0.089850 0.750549 0.483640 -0.450298 71 71 71
0.241230 0.381669 0.056175 0.750549 0.483640 -0.450298 71 71 71
0.397745 0.317611 0.248250 0.750549 0.483640 -0.450298 71 71 71
0.241230 0.381669 0.056175 -0.025821 0.646709 -0.762300 87 87 87
-0.202574 0.259820 -0.032165 -0.025821 0.646709 -0.762300 87 87 87
-0.202750 0.529487 0.196617 -0.025821 0.646709 -0.762300 87 87 87
-0.202574 0.259820 -0.032165 -0.345331 0.607005 -0.715746 87 87 87
-0.488599 0.388314 0.214807 -0.345331 0.607005 -0.715746 87 87 87
-0.202750 0.529487 0.196617 -0.345331 0.607005 -0.715746 87 87 87
-0.202574 0.259820 -0.032165 -0.462363 0.444948 -0.766969 87 87 87
-0.452362 0.044941 -0.006242 -0.462363 0.444948 -0.766969 87 87 87
-0.488599 0.388314 0.214807 -0.462363 0.444948 -0.766969 87 87 87
-0.452362 0.044941 -0.006242 -0.618620 0.378093 -0.688734 87 87 87
-0.651056 0.084000 0.193667 -0.618620 0.378093 -0.688734 87 87 87
-0.488599 0.388314 0.214807 -0.618620 0.378093 -0.688734 87 87 87
-0.452362 0.044941 -0.006242 -0.685487 -0.410943 -0.601028 87 87 87
-0.426461 -0.267205 0.177642 -0.685487 -0.410943 -0.601028 87 87 87
-0.651056 0.084000 0.193667 -0.685487 -0.410943 -0.601028 87 87 87
0.394594 0.175021 0.089850 0.272872 0.045916 -0.960954 87 87 87
0.172255 -0.172316 0.010118 0.272872 0.045916 -0.960954 87 87 87
0.241230 0.381669 0.056175 0.272872 0.045916 -0.960954 87 87 87
0.172255 -0.172316 0.010118 0.179182 0.059333 -0.982025 87 87 87
-0.202574 0.259820 -0.032165 0.179182 0.059333 -0.982025 87 87 87
0.241230 0.381669 0.056175 0.179182 0.059333 -0.982025 87 87 87
-0.348446 -0.262464 0.156303 -0.461708 0.075856 0.883782 112 112 112
-0.403693 -0.299575 0.130627 -0.461708 0.075856 0.883782 112 112 112
-0.259997 -0.464156 0.219822 -0.461708 0.075856 0.883782 112 112 112
-0.006182 -0.393232 0.162233 0.869690 0.452553 0.197066 112 112 112
0.041618 -0.452973 0.088471 0.869690 0.452553 0.197066 112 112 112
-0.069484 -0.239349 0.088212 0.869690 0.452553 0.197066 112 112 112
0.016036 -0.496761 0.012009 0.774034 0.401970 -0.489175 112 112 112
-0.069484 -0.239349 0.088212 0.774034 0.401970 -0.489175 112 112 112
0.041618 -0.452973 0.088471 0.774034 0.401970 -0.489175 112 112 112
0.028739 -0.577505 0.104843 0.960311 -0.131645 -0.245909 112 112 112
0.016036 -0.496761 0.012009 0.960311 -0.131645 -0.245909 112 112 112
0.041618 -0.452973 0.088471 0.960311 -0.131645 -0.245909 112 112 112
-0.032677 -0.583428 0.177364 0.751511 -0.232355 0.617448 112 112 112
0.028739 -0.577505 0.104843 0.751511 -0.232355 0.617448 112 112 112
0.025624 -0.440295 0.160268 0.751511 -0.232355 0.617448 112 112 112
-0.115725 -0.263650 0.157748 -0.391612 -0.300957 0.869520 112 112 112
0.025624 -0.440295 0.160268 -0.391612 -0.300957 0.869520 112 112 112
-0.006182 -0.393232 0.162233 -0.391612 -0.300957 0.869520 112 112 112
-0.325135 -0.200328 0.081618 -0.630421 0.682036 0.370670 255 255 255
-0.403693 -0.299575 0.130627 -0.630421 0.682036 0.370670 255 255 255
-0.348446 -0.262464 0.156303 -0.630421 0.682036 0.370670 255 255 255
-0.145451 -0.343792 -0.030686 0.253248 0.640821 -0.724716 112 112 112
-0.209123 -0.228074 0.049386 0.253248 0.640821 -0.724716 112 112 112
-0.069484 -0.239349 0.088212 0.253248 0.640821 -0.724716 112 112 112
-0.145451 -0.343792 -0.030686 0.136004 0.613246 -0.778096 112 112 112
-0.296823 -0.294324 -0.018157 0.136004 0.613246 -0.778096 112 112 112
-0.209123 -0.228074 0.049386 0.136004 0.613246 -0.778096 112 112 112
0.091293 -0.248796 -0.018623 -0.880817 -0.033424 -0.472276 140 140 140
0.074324 -0.511139 0.031591 -0.880817 -0.033424 -0.472276 140 140 140
0.041618 -0.452973 0.088471 -0.880817 -0.033424 -0.472276 140 140 140
0.262301 -0.126312 -0.025425 -0.538985 0.729093 -0.421803 140 140 140
0.091293 -0.248796 -0.018623 -0.538985 0.729093 -0.421803 140 140 140
0.172255 -0.172316 0.010118 -0.538985 0.729093 -0.421803 140 140 140
0.321035 -0.044490 0.139362 -0.126618 0.622166 0.772579 140 140 140
0.331970 -0.241759 0.300018 -0.126618 0.622166 0.772579 140 140 140
0.547292 -0.062251 0.190747 -0.126618 0.622166 0.772579 140 140 140
0.547292 -0.062251 0.190747 -0.048387 0.858858 0.509923 140 140 140
0.403179 -0.009406 0.088066 -0.048387 0.858858 0.509923 140 140 140
0.321035 -0.044490 0.139362 -0.048387 0.858858 0.509923 140 140 140
0.112284 -0.510726 0.230009 -0.750290 -0.523889 0.403244 140 140 140
-0.006182 -0.393232 0.162233 -0.750290 -0.523889 0.403244 140 140 140
0.025624 -0.440295 0.160268 -0.750290 -0.523889 0.403244 140 140 140
0.025624 -0.440295 0.160268 -0.750790 -0.518202 0.409610 140 140 140
0.116239 -0.592752 0.133486 -0.750790 -0.518202 0.409610 140 140 140
0.112284 -0.510726 0.230009 -0.750790 -0.518202 0.409610 140 140 140
0.394594 0.175021 0.089850 0.774618 -0.374524 -0.509607 87 87 87
0.439370 0.052099 0.248250 0.774618 -0.374524 -0.509607 87 87 87
0.321035 -0.044490 0.139362 0.774618 -0.374524 -0.509607 87 87 87
0.261093 -0.164633 0.241472 0.432031 -0.894421 -0.115584 87 87 87
-0.033146 -0.318274 0.330576 0.432031 -0.894421 -0.115584 87 87 87
0.079163 -0.243942 0.175159 0.432031 -0.894421 -0.115584 87 87 87
0.079163 -0.243942 0.175159 0.119849 -0.959334 -0.255566 87 87 87
-0.115725 -0.263650 0.157748 0.119849 -0.959334 -0.255566 87 87 87
-0.069484 -0.239349 0.088212 0.119849 -0.959334 -0.255566 87 87 87
-0.147330 -0.211749 0.001215 0.009453 -0.950669 -0.310064 87 87 87
-0.069484 -0.239349 0.088212 0.009453 -0.950669 -0.310064 87 87 87
-0.209123 -0.228074 0.049386 0.009453 -0.950669 -0.310064 87 87 87
0.321035 -0.044490 0.139362 0.705187 -0.629354 -0.326535 87 87 87
0.310579 -0.150203 0.320530 0.705187 -0.629354 -0.326535 87 87 87
0.261093 -0.164633 0.241472 0.705187 -0.629354 -0.326535 87 87 87
-0.147330 -0.211749 0.001215 -0.343392 -0.663009 -0.665208 87 87 87
-0.209123 -0.228074 0.049386 -0.343392 -0.663009 -0.665208 87 87 87
-0.325135 -0.200328 0.081618 -0.343392 -0.663009 -0.665208 87 87 87
0.091293 -0.248796 -0.018623 -0.673973 0.736264 -0.060630 140 140 140
0.079163 -0.243942 0.175159 -0.673973 0.736264 -0.060630 140 140 140
0.172255 -0.172316 0.010118 -0.673973 0.736264 -0.060630 140 140 140
0.331970 -0.241759 0.300018 -0.437305 0.173591 0.882401 140 140 140
0.079163 -0.243942 0.175159 -0.437305 0.173591 0.882401 140 140 140
-0.006182 -0.393232 0.162233 -0.437305 0.173591 0.882401 140 140 140
-0.197908 -0.280994 0.199216 -0.037005 -0.972580 -0.229607 87 87 87
-0.033146 -0.318274 0.330576 -0.037005 -0.972580 -0.229607 87 87 87
-0.426461 -0.267205 0.177642 -0.037005 -0.972580 -0.229607 87 87 87
0.041618 -0.452973 0.088471 -0.862863 -0.494426 -0.104926 140 140 140
0.116239 -0.592752 0.133486 -0.862863 -0.494426 -0.104926 140 140 140
0.025624 -0.440295 0.160268 -0.862863 -0.494426 -0.104926 140 140 140
0.025624 -0.440295 0.160268 0.374621 0.312221 0.873028 112 112 112
-0.115725 -0.263650 0.157748 0.374621 0.312221 0.873028 112 112 112
-0.197908 -0.280994 0.199216 0.374621 0.312221 0.873028 112 112 112
0.321035 -0.044490 0.139362 -0.501970 0.832502 -0.234449 140 140 140
0.403179 -0.009406 0.088066 -0.501970 0.832502 -0.234449 140 140 140
0.262301 -0.126312 -0.025425 -0.501970 0.832502 -0.234449 140 140 140
0.321035 -0.044490 0.139362 0.049514 0.632352 0.773097 140 140 140
0.261093 -0.164633 0.241472 0.049514 0.632352 0.773097 140 140 140
0.331970 -0.241759 0.300018 0.049514 0.632352 0.773097 140 140 140
0.261093 -0.164633 0.241472 0.434115 -0.894300 -0.108495 87 87 87
0.310579 -0.150203 0.320530 0.434115 -0.894300 -0.108495 87 87 87
-0.033146 -0.318274 0.330576 0.434115 -0.894300 -0.108495 87 87 87
-0.147330 -0.211749 0.001215 0.123240 -0.908807 -0.398601 87 87 87
0.172255 -0.172316 0.010118 0.123240 -0.908807 -0.398601 87 87 87
-0.069484 -0.239349 0.088212 0.123240 -0.908807 -0.398601 87 87 87
0.172255 -0.172316 0.010118 0.156785 -0.935227 -0.317440 87 87 87
0.079163 -0.243942 0.175159 0.156785 -0.935227 -0.317440 87 87 87
-0.069484 -0.239349 0.088212 0.156785 -0.935227 -0.317440 87 87 87
0.079163 -0.243942 0.175159 0.125300 -0.927223 -0.352926 87 87 87
-0.033146 -0.318274 0.330576 0.125300 -0.927223 -0.352926 87 87 87
-0.115725 -0.263650 0.157748 0.125300 -0.927223 -0.352926 87 87 87
0.321035 -0.044490 0.139362 0.753173 -0.586165 -0.298565 87 87 87
0.439370 0.052099 0.248250 0.753173 -0.586165 -0.298565 87 87 87
0.310579 -0.150203 0.320530 0.753173 -0.586165 -0.298565 87 87 87
-0.348446 -0.262464 0.156303 -0.135047 -0.740563 -0.658277 87 87 87
-0.426461 -0.267205 0.177642 -0.135047 -0.740563 -0.658277 87 87 87
-0.325135 -0.200328 0.081618 -0.135047 -0.740563 -0.658277 87 87 87
-0.426461 -0.267205 0.177642 -0.408601 -0.488199 -0.771172 87 87 87
-0.452362 0.044941 -0.006242 -0.408601 -0.488199 -0.771172 87 87 87
-0.325135 -0.200328 0.081618 -0.408601 -0.488199 -0.771172 87 87 87
-0.452362 0.044941 -0.006242 -0.386501 -0.482131 -0.786236 87 87 87
-0.147330 -0.211749 0.001215 -0.386501 -0.482131 -0.786236 87 87 87
-0.325135 -0.200328 0.081618 -0.386501 -0.482131 -0.786236 87 87 87
0.091293 -0.248796 -0.018623 -0.863733 0.499533 -0.066578 140 140 140
-0.006182 -0.393232 0.162233 -0.863733 0.499533 -0.066578 140 140 140
0.079163 -0.243942 0.175159 -0.863733 0.499533 -0.066578 140 140 140
0.331970 -0.241759 0.300018 -0.429198 0.261766 0.864446 140 140 140
0.261093 -0.164633 0.241472 -0.429198 0.261766 0.864446 140 140 140
0.079163 -0.243942 0.175159 -0.429198 0.261766 0.864446 140 140 140
-0.426461 -0.267205 0.177642 -0.027784 -0.949498 -0.312540 87 87 87
-0.348446 -0.262464 0.156303 -0.027784 -0.949498 -0.312540 87 87 87
-0.197908 -0.280994 0.199216 -0.027784 -0.949498 -0.312540 87 87 87
-0.197908 -0.280994 0.199216 0.039349 -0.947214 -0.318176 87 87 87
-0.115725 -0.263650 0.157748 0.039349 -0.947214 -0.318176 87 87 87
-0.033146 -0.318274 0.330576 0.039349 -0.947214 -0.318176 87 87 87
0.041618 -0.452973 0.088471 -0.879416 -0.475666 -0.019231 140 140 140
0.074324 -0.511139 0.031591 -0.879416 -0.475666 -0.019231 140 140 140
0.116239 -0.592752 0.133486 -0.879416 -0.475666 -0.019231 140 140 140
3 0 1 2
3 3 4 5
3 6 7 8
3 9 10 11
3 12 13 14
3 15 16 17
3 18 19 20
3 21 22 23
3 24 25 26
3 27 28 29
3 30 31 32
3 33 34 35
3 36 37 38
3 39 40 41
3 42 43 44
3 45 46 47
3 48 49 50
3 51 52 53
3 54 55 56
3 57 58 59
3 60 61 62
3 63 64 65
3 66 67 68
3 69 70 71
3 72 73 74
3 75 76 77
3 78 79 80
3 81 82 83
3 84 85 86
3 87 88 89
3 90 91 92
3 93 94 95
3 96 97 98
3 99 100 101
3 102 103 104
3 105 106 107
3 108 109 110
3 111 112 113
3 114 115 116
3 117 118 119
3 120 121 122
3 123 124 125
3 126 127 128
3 129 130 131
3 132 133 134
3 135 136 137
3 138 139 140
3 141 142 143
3 144 145 146
3 147 148 149
3 150 151 152
3 153 154 155
3 156 157 158
3 159 160 161
3 162 163 164
3 165 166 167
3 168 169 170
3 171 172 173
3 174 175 176
3 177 178 179
3 180 181 182
3 183 184 185
3 186 187 188
3 189 190 191
3 192 193 194
3 195 196 197
3 198 199 200
3 201 202 203
3 204 205 206
3 207 208 209
3 210 211 212
3 213 214 215
3 216 217 218
3 219 220 221
3 222 223 224
3 225 226 227
3 228 229 230
3 231 232 233
3 234 235 236
3 237 238 239
3 240 241 242
3 243 244 245
3 246 247 248
3 249 250 251
3 252 253 254
3 255 256 257
3 258 259 260
3 261 262 263
3 264 265 266
3 267 268 269
3 270 271 272
3 273 274 275
3 276 277 278
3 279 280 281
3 282 283 284
3 285 286 287
3 288 289 290
3 291 292 293
3 294 295 296
3 297 298 299
3 300 301 302
3 303 304 305
3 306 307 308
3 309 310 311
3 312 313 314
3 315 316 317
3 318 319 320
3 321 322 323
3 324 325 326
3 327 328 329
3 330 331 332
3 333 334 335
3 336 337 338
3 339 340 341
3 342 343 344
3 345 346 347
3 348 349 350
3 351 352 353
3 354 355 356
3 357 358 359
3 360 361 362
3 363 364 365
3 366 367 368
3 369 370 371
3 372 373 374
3 375 376 377
