ply
format ascii 1.0
comment Created by Blender 2.79 (sub 0) - www.blender.org, source file: 'tower1.blend'
element vertex 374
property float x
property float y
property float z
property float nx
property float ny
property float nz
property uchar red
property uchar green
property uchar blue
element face 128
property list uchar uint vertex_indices
end_header
-0.171864 0.529240 2.743164 -0.691305 -0.025846 0.722101 143 0 8
-0.390936 -0.529240 2.495549 -0.691305 -0.025846 0.722101 143 0 8
-0.092157 -0.529240 2.781586 -0.691305 -0.025846 0.722101 143 0 8
0.404025 -0.529240 2.360957 0.997903 -0.001419 0.064710 143 0 8
0.403113 0.110414 2.389052 0.997903 -0.001419 0.064710 143 0 8
0.402154 -0.120986 2.398762 0.997903 -0.001419 0.064710 143 0 8
0.356340 -0.210930 2.556065 0.751405 0.077657 0.655256 143 0 8
0.216545 -0.149998 2.709152 0.751405 0.077657 0.655256 143 0 8
0.325429 -0.529240 2.629235 0.751405 0.077657 0.655256 143 0 8
-0.171864 0.529240 2.743164 -0.000000 1.000000 -0.000000 26 0 1
0.404025 0.529240 2.360957 -0.000000 1.000000 -0.000000 26 0 1
-0.389596 0.529240 2.491582 -0.000000 1.000000 -0.000000 26 0 1
0.325429 -0.529240 2.629235 0.000000 -1.000000 0.000000 26 0 1
-0.092157 -0.529240 2.781586 0.000000 -1.000000 0.000000 26 0 1
0.404025 -0.529240 2.360957 0.000000 -1.000000 0.000000 26 0 1
0.404025 -0.529240 2.360957 1.000000 0.000000 0.000001 143 0 8
0.404026 -0.529240 2.162167 1.000000 0.000000 0.000001 143 0 8
0.404026 0.529240 2.162167 1.000000 0.000000 0.000001 143 0 8
1.140816 0.022182 2.439784 0.993031 -0.000082 0.117850 20 20 20
1.124323 0.202738 2.578881 0.993031 -0.000082 0.117850 20 20 20
1.093272 0.153324 2.840488 0.993031 -0.000082 0.117850 20 20 20
0.356340 -0.210930 2.556065 0.018134 -0.994306 0.105007 163 163 163
1.126665 -0.196560 2.559106 0.018134 -0.994306 0.105007 163 163 163
1.096235 -0.170027 2.815605 0.018134 -0.994306 0.105007 163 163 163
0.216545 -0.149998 2.709152 -0.121605 -0.280497 0.952121 163 163 163
1.096235 -0.170027 2.815605 -0.121605 -0.280497 0.952121 163 163 163
0.105473 0.043980 2.752112 -0.121605 -0.280497 0.952121 163 163 163
0.124581 0.529240 2.747133 0.524561 -0.011921 0.851289 143 0 8
0.105473 0.043980 2.752112 0.524561 -0.011921 0.851289 143 0 8
0.322912 0.216233 2.620538 0.524561 -0.011921 0.851289 143 0 8
0.356340 -0.210930 2.556065 -0.060370 -0.945134 0.321056 163 163 163
1.096235 -0.170027 2.815605 -0.060370 -0.945134 0.321056 163 163 163
0.216545 -0.149998 2.709152 -0.060370 -0.945134 0.321056 163 163 163
0.402154 -0.120986 2.398762 0.141297 -0.481100 -0.865204 163 163 163
1.140816 0.022182 2.439784 0.141297 -0.481100 -0.865204 163 163 163
1.126665 -0.196560 2.559106 0.141297 -0.481100 -0.865204 163 163 163
0.322912 0.216233 2.620538 0.939220 -0.035228 0.341505 143 0 8
0.403113 0.110414 2.389052 0.939220 -0.035228 0.341505 143 0 8
0.345576 0.529240 2.590497 0.939220 -0.035228 0.341505 143 0 8
0.402154 -0.120986 2.398762 0.018177 -0.870237 -0.492298 163 163 163
1.126665 -0.196560 2.559106 0.018177 -0.870237 -0.492298 163 163 163
0.356340 -0.210930 2.556065 0.018177 -0.870237 -0.492298 163 163 163
-0.436825 -0.630722 1.270578 -0.235816 -0.966481 -0.101517 99 0 2
-0.353172 -0.543357 0.244517 -0.235816 -0.966481 -0.101517 99 0 2
0.082494 -0.649417 0.242225 -0.235816 -0.966481 -0.101517 99 0 2
-0.436825 -0.630722 1.270578 -0.781475 -0.613074 -0.115913 99 0 2
-0.628420 -0.190629 0.234602 -0.781475 -0.613074 -0.115913 99 0 2
-0.353172 -0.543357 0.244517 -0.781475 -0.613074 -0.115913 99 0 2
-0.628420 -0.190629 0.234602 -0.986170 0.101232 -0.131229 99 0 2
-0.756147 -0.064610 1.291670 -0.986170 0.101232 -0.131229 99 0 2
-0.579576 0.299816 0.245885 -0.986170 0.101232 -0.131229 99 0 2
-0.612854 0.431926 1.280539 -0.694003 0.711032 -0.113109 99 0 2
-0.307973 0.564454 0.242991 -0.694003 0.711032 -0.113109 99 0 2
-0.579576 0.299816 0.245885 -0.694003 0.711032 -0.113109 99 0 2
-0.137106 0.754870 1.270578 -0.236027 0.961758 -0.138971 99 0 2
0.052541 0.652291 0.238585 -0.236027 0.961758 -0.138971 99 0 2
-0.307973 0.564454 0.242991 -0.236027 0.961758 -0.138971 99 0 2
0.355852 0.653973 1.284070 0.425853 0.896118 -0.124988 99 0 2
0.459389 0.459389 0.241738 0.425853 0.896118 -0.124988 99 0 2
0.052541 0.652291 0.238585 0.425853 0.896118 -0.124988 99 0 2
0.459389 0.459389 0.241738 0.909672 0.388746 -0.146195 99 0 2
0.673329 0.346164 1.271868 0.909672 0.388746 -0.146195 99 0 2
0.660635 -0.009201 0.247933 0.909672 0.388746 -0.146195 99 0 2
0.723314 -0.229673 1.291670 0.906500 -0.398783 -0.138674 99 0 2
0.465161 -0.450491 0.239146 0.906500 -0.398783 -0.138674 99 0 2
0.660635 -0.009201 0.247933 0.906500 -0.398783 -0.138674 99 0 2
0.272649 -0.718196 1.283050 0.455716 -0.878833 -0.141333 99 0 2
0.082494 -0.649417 0.242225 0.455716 -0.878833 -0.141333 99 0 2
0.465161 -0.450491 0.239146 0.455716 -0.878833 -0.141333 99 0 2
-0.316395 -0.575360 1.754013 -0.686523 -0.542455 -0.484178 143 0 3
-0.692614 -0.462790 2.161341 -0.686523 -0.542455 -0.484178 143 0 3
-0.631696 -0.172346 1.749561 -0.686523 -0.542455 -0.484178 143 0 3
-0.055566 0.824058 0.001266 -0.000041 0.000750 -1.000000 0 0 0
0.724462 0.387233 0.000906 -0.000041 0.000750 -1.000000 0 0 0
0.321848 -0.725429 0.000088 -0.000041 0.000750 -1.000000 0 0 0
0.082494 -0.649417 0.242225 0.084066 -0.923955 0.373150 0 0 0
-0.211126 -0.773834 0.000305 0.084066 -0.923955 0.373150 0 0 0
0.321848 -0.725429 0.000088 0.084066 -0.923955 0.373150 0 0 0
0.465161 -0.450491 0.239146 0.623516 -0.672171 0.399266 0 0 0
0.321848 -0.725429 0.000088 0.623516 -0.672171 0.399266 0 0 0
0.717760 -0.358028 0.000335 0.623516 -0.672171 0.399266 0 0 0
0.660635 -0.009201 0.247933 0.971538 -0.008918 0.236713 0 0 0
0.717760 -0.358028 0.000335 0.971538 -0.008918 0.236713 0 0 0
0.724462 0.387233 0.000906 0.971538 -0.008918 0.236713 0 0 0
-0.055566 0.824058 0.001266 0.471034 0.840894 0.266504 0 0 0
0.459389 0.459389 0.241738 0.471034 0.840894 0.266504 0 0 0
0.724462 0.387233 0.000906 0.471034 0.840894 0.266504 0 0 0
-0.696411 0.397861 0.000419 -0.528385 0.793899 0.300887 0 0 0
-0.307973 0.564454 0.242991 -0.528385 0.793899 0.300887 0 0 0
-0.055566 0.824058 0.001266 -0.528385 0.793899 0.300887 0 0 0
-0.754814 -0.312654 0.000833 -0.888825 0.073324 0.452343 0 0 0
-0.579576 0.299816 0.245885 -0.888825 0.073324 0.452343 0 0 0
-0.696411 0.397861 0.000419 -0.888825 0.073324 0.452343 0 0 0
-0.353172 -0.543357 0.244517 -0.611557 -0.721343 0.325058 0 0 0
-0.754814 -0.312654 0.000833 -0.611557 -0.721343 0.325058 0 0 0
-0.211126 -0.773834 0.000305 -0.611557 -0.721343 0.325058 0 0 0
-0.133766 0.634603 1.746600 -0.429069 0.836830 -0.340024 143 0 3
-0.557629 0.586087 2.162058 -0.429069 0.836830 -0.340024 143 0 3
-0.157401 0.791305 2.162080 -0.429069 0.836830 -0.340024 143 0 3
0.255080 -0.613108 1.748917 -0.062161 -0.876657 -0.477083 143 0 3
-0.057192 -0.815701 2.161877 -0.062161 -0.876657 -0.477083 143 0 3
-0.316395 -0.575360 1.754013 -0.062161 -0.876657 -0.477083 143 0 3
0.622209 -0.198961 1.745324 0.658597 -0.587902 -0.469704 143 0 3
0.622567 -0.529771 2.159881 0.658597 -0.587902 -0.469704 143 0 3
0.255080 -0.613108 1.748917 0.658597 -0.587902 -0.469704 143 0 3
0.601970 0.241343 1.746600 0.879064 0.041784 -0.474869 143 0 3
0.833471 0.082089 2.161136 0.879064 0.041784 -0.474869 143 0 3
0.622209 -0.198961 1.745324 0.879064 0.041784 -0.474869 143 0 3
-0.549269 0.367010 1.749208 -0.837854 0.475002 -0.269022 143 0 3
-0.789257 0.177509 2.162040 -0.837854 0.475002 -0.269022 143 0 3
-0.557629 0.586087 2.162058 -0.837854 0.475002 -0.269022 143 0 3
0.601970 0.241343 1.746600 0.798410 0.555413 -0.232503 143 0 3
0.387038 0.724095 2.161746 0.798410 0.555413 -0.232503 143 0 3
0.833471 0.082089 2.161136 0.798410 0.555413 -0.232503 143 0 3
-0.631696 -0.172346 1.749561 -0.959008 -0.144480 -0.243782 143 0 3
-0.692614 -0.462790 2.161341 -0.959008 -0.144480 -0.243782 143 0 3
-0.789257 0.177509 2.162040 -0.959008 -0.144480 -0.243782 143 0 3
-0.133766 0.634603 1.746600 0.127251 0.924638 -0.358960 143 0 3
0.387038 0.724095 2.161746 0.127251 0.924638 -0.358960 143 0 3
0.309081 0.578248 1.758425 0.127251 0.924638 -0.358960 143 0 3
-0.631696 -0.172346 1.749561 -0.882264 0.134536 -0.451121 143 0 3
-0.789257 0.177509 2.162040 -0.882264 0.134536 -0.451121 143 0 3
-0.549269 0.367010 1.749208 -0.882264 0.134536 -0.451121 143 0 3
-0.756147 -0.064610 1.291670 -0.945690 0.144716 0.291080 143 0 3
-0.631696 -0.172346 1.749561 -0.945690 0.144716 0.291080 143 0 3
-0.549269 0.367010 1.749208 -0.945690 0.144716 0.291080 143 0 3
0.404026 -0.529240 2.162167 0.000001 0.000000 -1.000000 255 255 255
-0.404025 0.529240 2.162167 0.000001 0.000000 -1.000000 255 255 255
0.404026 0.529240 2.162167 0.000001 0.000000 -1.000000 255 255 255
-0.612854 0.431926 1.280539 -0.549011 0.814556 0.187309 143 0 3
-0.549269 0.367010 1.749208 -0.549011 0.814556 0.187309 143 0 3
-0.137106 0.754870 1.270578 -0.549011 0.814556 0.187309 143 0 3
0.673329 0.346164 1.271868 0.735107 0.630304 0.249668 143 0 3
0.309081 0.578248 1.758425 0.735107 0.630304 0.249668 143 0 3
0.601970 0.241343 1.746600 0.735107 0.630304 0.249668 143 0 3
0.355852 0.653973 1.284070 0.688273 0.702754 0.180048 143 0 3
0.309081 0.578248 1.758425 0.688273 0.702754 0.180048 143 0 3
0.673329 0.346164 1.271868 0.688273 0.702754 0.180048 143 0 3
0.723314 -0.229673 1.291670 0.975730 0.044230 0.214464 143 0 3
0.601970 0.241343 1.746600 0.975730 0.044230 0.214464 143 0 3
0.622209 -0.198961 1.745324 0.975730 0.044230 0.214464 143 0 3
0.723314 -0.229673 1.291670 0.721693 -0.668907 0.178107 143 0 3
0.255080 -0.613108 1.748917 0.721693 -0.668907 0.178107 143 0 3
0.272649 -0.718196 1.283050 0.721693 -0.668907 0.178107 143 0 3
-0.756147 -0.064610 1.291670 -0.946340 0.276838 0.166735 143 0 3
-0.549269 0.367010 1.749208 -0.946340 0.276838 0.166735 143 0 3
-0.612854 0.431926 1.280539 -0.946340 0.276838 0.166735 143 0 3
0.272649 -0.718196 1.283050 -0.123586 -0.981942 0.143238 143 0 3
-0.316395 -0.575360 1.754013 -0.123586 -0.981942 0.143238 143 0 3
-0.436825 -0.630722 1.270578 -0.123586 -0.981942 0.143238 143 0 3
-0.436825 -0.630722 1.270578 -0.762341 -0.593575 0.257885 143 0 3
-0.316395 -0.575360 1.754013 -0.762341 -0.593575 0.257885 143 0 3
-0.631696 -0.172346 1.749561 -0.762341 -0.593575 0.257885 143 0 3
-0.404025 0.529240 2.162167 -0.000705 -0.000001 1.000000 163 163 163
-0.557629 0.586087 2.162058 -0.000705 -0.000001 1.000000 163 163 163
-0.404025 0.167353 2.162166 -0.000705 -0.000001 1.000000 163 163 163
-0.354827 0.464795 2.162167 -0.000001 -0.000001 1.000000 255 255 255
-0.404025 0.529240 2.162167 -0.000001 -0.000001 1.000000 255 255 255
-0.404025 0.167353 2.162166 -0.000001 -0.000001 1.000000 255 255 255
0.404025 0.529240 2.360957 0.968974 0.014440 0.246739 143 0 8
0.345576 0.529240 2.590497 0.968974 0.014440 0.246739 143 0 8
0.403113 0.110414 2.389052 0.968974 0.014440 0.246739 143 0 8
0.402154 -0.120986 2.398762 0.959440 -0.021631 0.281082 143 0 8
0.325429 -0.529240 2.629235 0.959440 -0.021631 0.281082 143 0 8
0.404025 -0.529240 2.360957 0.959440 -0.021631 0.281082 143 0 8
0.404025 -0.529240 2.360957 0.999473 0.000000 0.032461 143 0 8
0.404025 0.529240 2.360957 0.999473 0.000000 0.032461 143 0 8
0.403113 0.110414 2.389052 0.999473 0.000000 0.032461 143 0 8
-0.171864 0.529240 2.743164 0.000000 1.000000 0.000001 26 0 1
0.124581 0.529240 2.747133 0.000000 1.000000 0.000001 26 0 1
0.404025 0.529240 2.360957 0.000000 1.000000 0.000001 26 0 1
0.124581 0.529240 2.747133 -0.000001 1.000000 -0.000000 26 0 1
0.345576 0.529240 2.590497 -0.000001 1.000000 -0.000000 26 0 1
0.404025 0.529240 2.360957 -0.000001 1.000000 -0.000000 26 0 1
-0.092157 -0.529240 2.781586 0.341053 -0.099069 0.934809 143 0 8
0.325429 -0.529240 2.629235 0.341053 -0.099069 0.934809 143 0 8
0.216545 -0.149998 2.709152 0.341053 -0.099069 0.934809 143 0 8
-0.092157 -0.529240 2.781586 0.284778 -0.048957 0.957343 143 0 8
0.216545 -0.149998 2.709152 0.284778 -0.048957 0.957343 143 0 8
0.105473 0.043980 2.752112 0.284778 -0.048957 0.957343 143 0 8
0.124581 0.529240 2.747133 0.133562 0.004909 0.991028 143 0 8
-0.092157 -0.529240 2.781586 0.133562 0.004909 0.991028 143 0 8
0.105473 0.043980 2.752112 0.133562 0.004909 0.991028 143 0 8
0.124581 0.529240 2.747133 -0.013377 0.035266 0.999288 143 0 8
-0.171864 0.529240 2.743164 -0.013377 0.035266 0.999288 143 0 8
-0.092157 -0.529240 2.781586 -0.013377 0.035266 0.999288 143 0 8
-0.404025 0.529240 2.162167 0.000000 1.000000 0.000000 26 0 1
0.404026 0.529240 2.162167 0.000000 1.000000 0.000000 26 0 1
-0.404025 -0.529240 2.162167 -0.999230 0.000000 0.039231 143 0 8
-0.390936 -0.529240 2.495549 -0.999230 0.000000 0.039231 143 0 8
-0.404025 0.529240 2.162167 -0.999230 0.000000 0.039231 143 0 8
-0.390936 -0.529240 2.495549 -0.999041 0.001429 0.043761 143 0 8
-0.389596 0.529240 2.491582 -0.999041 0.001429 0.043761 143 0 8
-0.404025 0.529240 2.162167 -0.999041 0.001429 0.043761 143 0 8
0.404025 0.529240 2.360957 1.000000 -0.000000 0.000000 143 0 8
0.404025 -0.529240 2.360957 1.000000 -0.000000 0.000000 143 0 8
0.404026 0.529240 2.162167 1.000000 -0.000000 0.000000 143 0 8
1.096235 -0.170027 2.815605 0.993036 0.000020 0.117808 20 20 20
1.126665 -0.196560 2.559106 0.993036 0.000020 0.117808 20 20 20
1.140816 0.022182 2.439784 0.993036 0.000020 0.117808 20 20 20
1.093272 0.153324 2.840488 0.993036 0.000031 0.117814 20 20 20
1.096235 -0.170027 2.815605 0.993036 0.000031 0.117814 20 20 20
1.140816 0.022182 2.439784 0.993036 0.000031 0.117814 20 20 20
0.403113 0.110414 2.389052 -0.006405 0.908619 -0.417577 163 163 163
0.322912 0.216233 2.620538 -0.006405 0.908619 -0.417577 163 163 163
1.124323 0.202738 2.578881 -0.006405 0.908619 -0.417577 163 163 163
0.322912 0.216233 2.620538 -0.140272 0.706737 0.693431 163 163 163
0.105473 0.043980 2.752112 -0.140272 0.706737 0.693431 163 163 163
1.093272 0.153324 2.840488 -0.140272 0.706737 0.693431 163 163 163
0.105473 0.043980 2.752112 -0.080364 -0.077211 0.993771 163 163 163
1.096235 -0.170027 2.815605 -0.080364 -0.077211 0.993771 163 163 163
1.093272 0.153324 2.840488 -0.080364 -0.077211 0.993771 163 163 163
1.124323 0.202738 2.578881 0.026333 0.981709 0.188557 163 163 163
0.322912 0.216233 2.620538 0.026333 0.981709 0.188557 163 163 163
1.093272 0.153324 2.840488 0.026333 0.981709 0.188557 163 163 163
0.403113 0.110414 2.389052 0.126919 0.612598 -0.780138 163 163 163
1.124323 0.202738 2.578881 0.126919 0.612598 -0.780138 163 163 163
1.140816 0.022182 2.439784 0.126919 0.612598 -0.780138 163 163 163
0.322912 0.216233 2.620538 0.577872 0.036409 0.815315 143 0 8
0.345576 0.529240 2.590497 0.577872 0.036409 0.815315 143 0 8
0.124581 0.529240 2.747133 0.577872 0.036409 0.815315 143 0 8
-0.137106 0.754870 1.270578 0.201737 0.977594 -0.060099 99 0 2
0.355852 0.653973 1.284070 0.201737 0.977594 -0.060099 99 0 2
0.052541 0.652291 0.238585 0.201737 0.977594 -0.060099 99 0 2
0.355852 0.653973 1.284070 0.693322 0.717681 -0.065108 99 0 2
0.673329 0.346164 1.271868 0.693322 0.717681 -0.065108 99 0 2
0.459389 0.459389 0.241738 0.693322 0.717681 -0.065108 99 0 2
0.673329 0.346164 1.271868 0.995504 0.084976 -0.041833 99 0 2
0.723314 -0.229673 1.291670 0.995504 0.084976 -0.041833 99 0 2
0.660635 -0.009201 0.247933 0.995504 0.084976 -0.041833 99 0 2
0.723314 -0.229673 1.291670 0.734814 -0.677195 -0.038154 99 0 2
0.272649 -0.718196 1.283050 0.734814 -0.677195 -0.038154 99 0 2
0.465161 -0.450491 0.239146 0.734814 -0.677195 -0.038154 99 0 2
0.321848 -0.725429 0.000088 0.374819 -0.711834 0.593973 0 0 0
0.465161 -0.450491 0.239146 0.374819 -0.711834 0.593973 0 0 0
0.082494 -0.649417 0.242225 0.374819 -0.711834 0.593973 0 0 0
0.660635 -0.009201 0.247933 0.709690 -0.326793 0.624137 0 0 0
0.465161 -0.450491 0.239146 0.709690 -0.326793 0.624137 0 0 0
0.717760 -0.358028 0.000335 0.709690 -0.326793 0.624137 0 0 0
0.459389 0.459389 0.241738 0.684722 0.302833 0.662909 0 0 0
0.660635 -0.009201 0.247933 0.684722 0.302833 0.662909 0 0 0
0.724462 0.387233 0.000906 0.684722 0.302833 0.662909 0 0 0
-0.055566 0.824058 0.001266 0.386393 0.821783 0.418776 0 0 0
0.052541 0.652291 0.238585 0.386393 0.821783 0.418776 0 0 0
0.459389 0.459389 0.241738 0.386393 0.821783 0.418776 0 0 0
-0.307973 0.564454 0.242991 -0.176830 0.757300 0.628672 0 0 0
0.052541 0.652291 0.238585 -0.176830 0.757300 0.628672 0 0 0
-0.055566 0.824058 0.001266 -0.176830 0.757300 0.628672 0 0 0
-0.696411 0.397861 0.000419 -0.590782 0.612081 0.525675 0 0 0
-0.579576 0.299816 0.245885 -0.590782 0.612081 0.525675 0 0 0
-0.307973 0.564454 0.242991 -0.590782 0.612081 0.525675 0 0 0
0.622567 -0.529771 2.159881 0.004489 -0.003598 0.999984 163 163 163
0.833471 0.082089 2.161136 0.004489 -0.003598 0.999984 163 163 163
0.404026 -0.167353 2.162166 0.004489 -0.003598 0.999984 163 163 163
0.404026 -0.529240 2.162167 0.010457 0.000001 0.999945 163 163 163
0.622567 -0.529771 2.159881 0.010457 0.000001 0.999945 163 163 163
0.404026 -0.167353 2.162166 0.010457 0.000001 0.999945 163 163 163
-0.057192 -0.815701 2.161877 0.002227 0.001684 0.999996 163 163 163
0.622567 -0.529771 2.159881 0.002227 0.001684 0.999996 163 163 163
-0.404025 -0.529240 2.162167 0.002227 0.001684 0.999996 163 163 163
-0.692614 -0.462790 2.161341 -0.004289 -0.006205 0.999972 163 163 163
-0.057192 -0.815701 2.161877 -0.004289 -0.006205 0.999972 163 163 163
-0.404025 -0.529240 2.162167 -0.004289 -0.006205 0.999972 163 163 163
0.601970 0.241343 1.746600 0.698112 0.619506 -0.358960 143 0 3
0.309081 0.578248 1.758425 0.698112 0.619506 -0.358960 143 0 3
0.387038 0.724095 2.161746 0.698112 0.619506 -0.358960 143 0 3
-0.133766 0.634603 1.746600 0.114794 0.931617 -0.344837 143 0 3
-0.157401 0.791305 2.162080 0.114794 0.931617 -0.344837 143 0 3
0.387038 0.724095 2.161746 0.114794 0.931617 -0.344837 143 0 3
0.622209 -0.198961 1.745324 0.915043 -0.314894 -0.252068 143 0 3
0.833471 0.082089 2.161136 0.915043 -0.314894 -0.252068 143 0 3
0.622567 -0.529771 2.159881 0.915043 -0.314894 -0.252068 143 0 3
0.355852 0.653973 1.284070 0.192938 0.965804 0.173200 143 0 3
-0.137106 0.754870 1.270578 0.192938 0.965804 0.173200 143 0 3
0.309081 0.578248 1.758425 0.192938 0.965804 0.173200 143 0 3
-0.137106 0.754870 1.270578 0.116093 0.963172 0.242531 143 0 3
-0.133766 0.634603 1.746600 0.116093 0.963172 0.242531 143 0 3
0.309081 0.578248 1.758425 0.116093 0.963172 0.242531 143 0 3
0.723314 -0.229673 1.291670 0.981641 0.090976 0.167642 143 0 3
0.673329 0.346164 1.271868 0.981641 0.090976 0.167642 143 0 3
0.601970 0.241343 1.746600 0.981641 0.090976 0.167642 143 0 3
0.723314 -0.229673 1.291670 0.732956 -0.647947 0.207217 143 0 3
0.622209 -0.198961 1.745324 0.732956 -0.647947 0.207217 143 0 3
0.255080 -0.613108 1.748917 0.732956 -0.647947 0.207217 143 0 3
-0.137106 0.754870 1.270578 -0.528267 0.822323 0.211466 143 0 3
-0.549269 0.367010 1.749208 -0.528267 0.822323 0.211466 143 0 3
-0.133766 0.634603 1.746600 -0.528267 0.822323 0.211466 143 0 3
-0.404025 -0.529240 2.162167 -0.002860 0.000000 0.999996 163 163 163
-0.404025 0.167353 2.162166 -0.002860 0.000000 0.999996 163 163 163
-0.692614 -0.462790 2.161341 -0.002860 0.000000 0.999996 163 163 163
-0.789257 0.177509 2.162040 -0.000357 -0.001146 0.999999 163 163 163
-0.692614 -0.462790 2.161341 -0.000357 -0.001146 0.999999 163 163 163
-0.404025 0.167353 2.162166 -0.000357 -0.001146 0.999999 163 163 163
-0.557629 0.586087 2.162058 -0.000323 0.000139 1.000000 163 163 163
-0.789257 0.177509 2.162040 -0.000323 0.000139 1.000000 163 163 163
-0.404025 0.167353 2.162166 -0.000323 0.000139 1.000000 163 163 163
-0.157401 0.791305 2.162080 -0.000432 0.000736 1.000000 163 163 163
-0.557629 0.586087 2.162058 -0.000432 0.000736 1.000000 163 163 163
-0.404025 0.529240 2.162167 -0.000432 0.000736 1.000000 163 163 163
0.387038 0.724095 2.161746 0.000891 0.002241 0.999997 163 163 163
-0.157401 0.791305 2.162080 0.000891 0.002241 0.999997 163 163 163
0.404026 0.529240 2.162167 0.000891 0.002241 0.999997 163 163 163
0.833471 0.082089 2.161136 0.005118 0.002609 0.999983 163 163 163
0.387038 0.724095 2.161746 0.005118 0.002609 0.999983 163 163 163
0.404026 0.529240 2.162167 0.005118 0.002609 0.999983 163 163 163
0.404026 -0.167353 2.162166 0.002400 -0.000001 0.999997 163 163 163
0.833471 0.082089 2.161136 0.002400 -0.000001 0.999997 163 163 163
0.404026 0.529240 2.162167 0.002400 -0.000001 0.999997 163 163 163
-0.404025 0.529240 2.162167 -0.000001 0.000330 1.000000 163 163 163
0.404026 0.529240 2.162167 -0.000001 0.000330 1.000000 163 163 163
-0.157401 0.791305 2.162080 -0.000001 0.000330 1.000000 163 163 163
-0.171864 0.529240 2.743164 -0.756140 0.003410 0.654401 143 0 8
-0.389596 0.529240 2.491582 -0.756140 0.003410 0.654401 143 0 8
-0.390936 -0.529240 2.495549 -0.756140 0.003410 0.654401 143 0 8
0.325429 -0.529240 2.629235 0.964548 -0.033491 0.261774 143 0 8
0.402154 -0.120986 2.398762 0.964548 -0.033491 0.261774 143 0 8
0.356340 -0.210930 2.556065 0.964548 -0.033491 0.261774 143 0 8
-0.390936 -0.529240 2.495549 0.000000 -1.000000 -0.000000 26 0 1
0.404026 -0.529240 2.162167 -0.000000 -1.000000 -0.000000 26 0 1
-0.404025 -0.529240 2.162167 -0.000000 -1.000000 -0.000000 26 0 1
0.402154 -0.120986 2.398762 0.063535 -0.042104 -0.997091 163 163 163
0.403113 0.110414 2.389052 0.063535 -0.042104 -0.997091 163 163 163
1.140816 0.022182 2.439784 0.063535 -0.042104 -0.997091 163 163 163
0.272649 -0.718196 1.283050 -0.121503 -0.991645 -0.043332 99 0 2
-0.436825 -0.630722 1.270578 -0.121503 -0.991645 -0.043332 99 0 2
0.082494 -0.649417 0.242225 -0.121503 -0.991645 -0.043332 99 0 2
-0.436825 -0.630722 1.270578 -0.870783 -0.489429 -0.046871 99 0 2
-0.756147 -0.064610 1.291670 -0.870783 -0.489429 -0.046871 99 0 2
-0.628420 -0.190629 0.234602 -0.870783 -0.489429 -0.046871 99 0 2
-0.756147 -0.064610 1.291670 -0.959090 0.275300 -0.065999 99 0 2
-0.612854 0.431926 1.280539 -0.959090 0.275300 -0.065999 99 0 2
-0.579576 0.299816 0.245885 -0.959090 0.275300 -0.065999 99 0 2
-0.612854 0.431926 1.280539 -0.561495 0.825333 -0.059572 99 0 2
-0.137106 0.754870 1.270578 -0.561495 0.825333 -0.059572 99 0 2
-0.307973 0.564454 0.242991 -0.561495 0.825333 -0.059572 99 0 2
-0.696411 0.397861 0.000419 0.001809 -0.000732 -0.999998 0 0 0
-0.055566 0.824058 0.001266 0.001809 -0.000732 -0.999998 0 0 0
-0.754814 -0.312654 0.000833 0.001809 -0.000732 -0.999998 0 0 0
0.321848 -0.725429 0.000088 -0.000465 0.000647 -1.000000 0 0 0
-0.211126 -0.773834 0.000305 -0.000465 0.000647 -1.000000 0 0 0
-0.055566 0.824058 0.001266 -0.000465 0.000647 -1.000000 0 0 0
-0.211126 -0.773834 0.000305 -0.000427 0.000643 -1.000000 0 0 0
-0.754814 -0.312654 0.000833 -0.000427 0.000643 -1.000000 0 0 0
-0.055566 0.824058 0.001266 -0.000427 0.000643 -1.000000 0 0 0
0.724462 0.387233 0.000906 -0.000089 0.000767 -1.000000 0 0 0
0.717760 -0.358028 0.000335 -0.000089 0.000767 -1.000000 0 0 0
0.321848 -0.725429 0.000088 -0.000089 0.000767 -1.000000 0 0 0
-0.754814 -0.312654 0.000833 -0.893553 0.078821 0.441985 0 0 0
-0.628420 -0.190629 0.234602 -0.893553 0.078821 0.441985 0 0 0
-0.579576 0.299816 0.245885 -0.893553 0.078821 0.441985 0 0 0
-0.353172 -0.543357 0.244517 -0.639980 -0.482594 0.597937 0 0 0
-0.628420 -0.190629 0.234602 -0.639980 -0.482594 0.597937 0 0 0
-0.754814 -0.312654 0.000833 -0.639980 -0.482594 0.597937 0 0 0
-0.211126 -0.773834 0.000305 -0.183215 -0.765923 0.616275 0 0 0
0.082494 -0.649417 0.242225 -0.183215 -0.765923 0.616275 0 0 0
-0.353172 -0.543357 0.244517 -0.183215 -0.765923 0.616275 0 0 0
-0.133766 0.634603 1.746600 -0.494407 0.763639 -0.415231 143 0 3
-0.549269 0.367010 1.749208 -0.494407 0.763639 -0.415231 143 0 3
-0.557629 0.586087 2.162058 -0.494407 0.763639 -0.415231 143 0 3
-0.316395 -0.575360 1.754013 -0.475353 -0.856189 -0.202433 143 0 3
-0.057192 -0.815701 2.161877 -0.475353 -0.856189 -0.202433 143 0 3
-0.692614 -0.462790 2.161341 -0.475353 -0.856189 -0.202433 143 0 3
0.255080 -0.613108 1.748917 0.382504 -0.910446 -0.157413 143 0 3
0.622567 -0.529771 2.159881 0.382504 -0.910446 -0.157413 143 0 3
-0.057192 -0.815701 2.161877 0.382504 -0.910446 -0.157413 143 0 3
-0.756147 -0.064610 1.291670 -0.862905 -0.491164 0.118966 143 0 3
-0.436825 -0.630722 1.270578 -0.862905 -0.491164 0.118966 143 0 3
-0.631696 -0.172346 1.749561 -0.862905 -0.491164 0.118966 143 0 3
0.272649 -0.718196 1.283050 -0.062404 -0.974091 0.217378 143 0 3
0.255080 -0.613108 1.748917 -0.062404 -0.974091 0.217378 143 0 3
-0.316395 -0.575360 1.754013 -0.062404 -0.974091 0.217378 143 0 3
0.404026 -0.529240 2.162167 0.000000 0.000000 -1.000000 255 255 255
-0.404025 -0.529240 2.162167 0.000000 0.000000 -1.000000 255 255 255
-0.404025 0.529240 2.162167 0.000000 0.000000 -1.000000 255 255 255
3 0 1 2
3 3 4 5
3 6 7 8
3 9 10 11
3 12 13 14
3 15 16 17
3 18 19 20
3 21 22 23
3 24 25 26
3 27 28 29
3 30 31 32
3 33 34 35
3 36 37 38
3 39 40 41
3 42 43 44
3 45 46 47
3 48 49 50
3 51 52 53
3 54 55 56
3 57 58 59
3 60 61 62
3 63 64 65
3 66 67 68
3 69 70 71
3 72 73 74
3 75 76 77
3 78 79 80
3 81 82 83
3 84 85 86
3 87 88 89
3 90 91 92
3 93 94 95
3 96 97 98
3 99 100 101
3 102 103 104
3 105 106 107
3 108 109 110
3 111 112 113
3 114 115 116
3 117 118 119
3 120 121 122
3 123 124 125
3 126 127 128
3 129 130 131
3 132 133 134
3 135 136 137
3 138 139 140
3 141 142 143
3 144 145 146
3 147 148 149
3 150 151 152
3 153 154 155
3 156 157 158
3 159 160 161
3 162 163 164
3 165 166 167
3 168 169 170
3 171 172 173
3 174 175 176
3 177 178 179
3 180 181 182
3 183 184 185
3 186 11 187
3 11 10 187
3 188 189 190
3 191 192 193
3 194 195 196
3 197 198 199
3 200 201 202
3 203 204 205
3 206 207 208
3 209 210 211
3 212 213 214
3 215 216 217
3 218 219 220
3 221 222 223
3 224 225 226
3 227 228 229
3 230 231 232
3 233 234 235
3 236 237 238
3 239 240 241
3 242 243 244
3 245 246 247
3 248 249 250
3 251 252 253
3 254 255 256
3 257 258 259
3 260 261 262
3 263 264 265
3 266 267 268
3 269 270 271
3 272 273 274
3 275 276 277
3 278 279 280
3 281 282 283
3 284 285 286
3 287 288 289
3 290 291 292
3 293 294 295
3 296 297 298
3 299 300 301
3 302 303 304
3 305 306 307
3 308 309 310
3 311 312 313
3 314 315 316
3 317 14 13
3 318 14 319
3 14 317 319
3 320 321 322
3 323 324 325
3 326 327 328
3 329 330 331
3 332 333 334
3 335 336 337
3 338 339 340
3 341 342 343
3 344 345 346
3 347 348 349
3 350 351 352
3 353 354 355
3 356 357 358
3 359 360 361
3 362 363 364
3 365 366 367
3 368 369 370
3 371 372 373
