# Blender v2.79 (sub 0) OBJ File: ''
# www.blender.org
v 1.000000 -1.000000 0.000000
v -1.040498 -1.000000 -0.033135
v -1.000000 1.000000 0.000000
v 1.000000 1.000000 0.000000
v 0.500000 -0.500000 2.000000
v -0.500000 -0.500000 2.000000
v -0.500000 0.500000 2.000000
v 0.500000 0.500000 2.000000
v -0.000000 -0.500000 1.000000
v 0.500000 -0.000000 1.000000
v 0.500000 -0.500000 1.500000
v -0.500000 0.000000 1.000000
v -0.500000 -0.500000 1.500000
v 0.000000 0.500000 1.000000
v -0.500000 0.500000 1.500000
v 0.500000 0.500000 1.500000
v -0.000000 -0.500000 2.000000
v 0.500000 -0.000000 2.000000
v -0.500000 0.000000 2.000000
v 0.000000 0.500000 2.000000
v 0.500000 -0.000000 1.500000
v 0.000000 0.500000 1.500000
v -0.500000 0.000000 1.500000
v -0.000000 -0.500000 1.500000
v -0.000000 0.000000 2.250000
v 0.000000 -0.000000 1.000000
v -0.790498 -1.000000 -0.033135
v 1.000000 0.750000 0.000000
v 0.500000 -0.500000 1.750000
v -1.000000 0.750000 0.000000
v -0.500000 -0.500000 1.750000
v 0.750000 1.000000 0.000000
v -0.500000 0.500000 1.750000
v 0.500000 0.500000 1.750000
v -0.250000 -0.500000 2.000000
v 0.500000 0.250000 2.000000
v -0.500000 0.250000 2.000000
v 0.250000 0.500000 2.000000
v 0.750000 -1.000000 0.000000
v 1.000000 -0.750000 0.000000
v 0.500000 -0.500000 1.250000
v -1.040498 -0.750000 -0.033135
v -0.500000 -0.500000 1.250000
v -0.750000 1.000000 0.000000
v -0.500000 0.500000 1.250000
v 0.500000 0.500000 1.250000
v 0.250000 -0.500000 2.000000
v 0.500000 -0.250000 2.000000
v -0.500000 -0.250000 2.000000
v -0.250000 0.500000 2.000000
v 0.500000 0.250000 1.500000
v 0.500000 -0.250000 1.500000
v 0.500000 -0.000000 1.750000
v 0.500000 -0.000000 1.250000
v 0.250000 0.500000 1.500000
v -0.250000 0.500000 1.500000
v 0.000000 0.500000 1.250000
v 0.000000 0.500000 1.750000
v -0.500000 0.250000 1.500000
v -0.500000 -0.250000 1.500000
v -0.500000 0.000000 1.250000
v -0.500000 0.000000 1.750000
v -0.250000 -0.500000 1.500000
v 0.250000 -0.500000 1.500000
v -0.000000 -0.500000 1.250000
v -0.000000 -0.500000 1.750000
v -0.250000 0.000000 2.250000
v 0.250000 -0.000000 2.250000
v -0.000000 -0.250000 2.250000
v 0.000000 0.250000 2.250000
v 0.000000 0.250000 1.000000
v 0.000000 -0.250000 1.000000
v 0.250000 -0.000000 1.000000
v -0.250000 -0.000000 1.000000
v -0.790498 -0.750000 -0.033135
v 0.750000 -0.750000 0.000000
v 0.750000 0.750000 0.000000
v 0.250000 0.250000 2.250000
v 0.250000 -0.250000 2.250000
v -0.250000 -0.250000 2.250000
v 0.250000 -0.500000 1.750000
v 0.250000 -0.500000 1.250000
v -0.250000 -0.500000 1.250000
v -0.500000 -0.250000 1.750000
v -0.500000 -0.250000 1.250000
v -0.500000 0.250000 1.250000
v -0.250000 0.500000 1.750000
v -0.250000 0.500000 1.250000
v 0.250000 0.500000 1.250000
v 0.500000 -0.250000 1.250000
v 0.500000 -0.250000 1.750000
v 0.500000 0.250000 1.750000
v 0.500000 0.250000 1.250000
v 0.250000 0.500000 1.750000
v -0.500000 0.250000 1.750000
v -0.250000 -0.500000 1.750000
v -0.250000 0.250000 2.250000
v -0.750000 0.750000 0.000000
vn 0.0000 0.0000 -1.0000
vn -0.5774 0.5774 0.5774
vn -0.0000 -1.0000 0.0000
vn -1.0000 0.0000 0.0000
vn 0.0000 1.0000 -0.0000
vn 0.9285 0.0000 0.3714
vn 1.0000 -0.0000 0.0000
vn -0.7071 0.0000 0.7071
vn 0.0000 0.0000 1.0000
vn 0.0000 0.7071 0.7071
vn -0.8000 0.0000 -0.6000
vn -0.5298 0.5298 -0.6623
vn 0.0000 0.8092 -0.5875
vn 0.7942 0.0000 -0.6077
vn 0.0000 0.8000 -0.6000
vn 0.0000 -0.8000 -0.6000
vn -0.5298 -0.5298 -0.6623
vn 0.7071 -0.0000 0.7071
vn 0.5774 0.5774 0.5774
vn 0.0000 -0.7071 0.7071
vn -0.2649 -0.9272 0.2649
vn 0.0000 -0.9285 0.3714
vn 0.0000 -0.9318 0.3631
vn 0.2556 -0.9324 0.2556
vn -0.9191 0.2786 0.2786
vn -0.9216 0.0000 0.3882
vn -0.9285 0.0000 0.3714
vn -0.9272 -0.2649 0.2649
vn 0.2649 0.9272 0.2649
vn 0.0000 0.9285 0.3714
vn -0.2649 0.9272 0.2649
vn 0.8000 0.0000 -0.6000
vn 0.9272 0.2649 0.2649
vn 0.5300 0.5300 -0.6620
vn 0.5774 -0.5774 0.5774
vn -0.5774 -0.5773 0.5774
vn 0.9272 -0.2649 0.2649
vn 0.5298 -0.5298 -0.6623
s off
f 30//1 44//1 98//1
f 50//2 37//2 97//2
f 35//3 31//3 96//3
f 37//4 33//4 95//4
f 94//5 8//5 34//5
f 28//6 46//6 93//6
f 51//7 34//7 92//7
f 52//7 53//7 91//7
f 90//7 10//7 54//7
f 55//5 46//5 89//5
f 56//5 57//5 88//5
f 50//5 58//5 87//5
f 59//4 45//4 86//4
f 60//4 61//4 85//4
f 49//4 62//4 84//4
f 63//3 43//3 83//3
f 64//3 65//3 82//3
f 47//3 66//3 81//3
f 67//8 49//8 80//8
f 68//9 69//9 79//9
f 38//10 70//10 78//10
f 77//11 14//11 32//11
f 72//12 73//12 76//12
f 75//13 12//13 74//13
f 72//1 74//1 26//1
f 9//14 75//14 72//14
f 2//1 75//1 27//1
f 76//15 10//15 40//15
f 39//1 40//1 1//1
f 9//11 76//11 39//11
f 77//1 4//1 28//1
f 10//16 77//16 28//16
f 73//17 71//17 77//17
f 78//9 25//9 68//9
f 36//18 68//18 18//18
f 36//19 38//19 78//19
f 79//20 17//20 47//20
f 48//9 47//9 5//9
f 18//18 79//18 48//18
f 35//9 49//9 6//9
f 69//20 35//20 17//20
f 69//9 67//9 80//9
f 81//3 24//3 64//3
f 29//3 64//3 11//3
f 5//3 81//3 29//3
f 82//21 9//21 39//21
f 41//22 39//22 1//22
f 11//3 82//3 41//3
f 27//23 43//23 2//23
f 9//24 83//24 27//24
f 24//3 83//3 65//3
f 84//4 23//4 60//4
f 31//4 60//4 13//4
f 6//4 84//4 31//4
f 85//25 12//25 42//25
f 43//26 42//26 2//26
f 13//4 85//4 43//4
f 30//27 45//27 3//27
f 12//28 86//28 30//28
f 23//4 86//4 61//4
f 87//5 22//5 56//5
f 33//5 56//5 15//5
f 7//5 87//5 33//5
f 88//29 14//29 44//29
f 45//30 44//30 3//30
f 15//5 88//5 45//5
f 32//30 46//30 4//30
f 14//31 89//31 32//31
f 22//5 89//5 57//5
f 90//7 21//7 52//7
f 41//7 52//7 11//7
f 41//6 40//6 90//6
f 91//7 18//7 48//7
f 29//7 48//7 5//7
f 11//7 91//7 29//7
f 92//7 8//7 36//7
f 53//7 36//7 18//7
f 21//7 92//7 53//7
f 51//7 46//7 16//7
f 54//7 51//7 21//7
f 10//7 93//7 54//7
f 94//5 16//5 55//5
f 22//5 94//5 55//5
f 20//5 94//5 58//5
f 95//4 15//4 59//4
f 62//4 59//4 23//4
f 19//4 95//4 62//4
f 96//3 13//3 63//3
f 66//3 63//3 24//3
f 17//3 96//3 66//3
f 97//8 19//8 67//8
f 70//9 67//9 25//9
f 20//10 97//10 70//10
f 98//32 14//32 71//32
f 74//1 71//1 26//1
f 12//16 98//16 74//16
f 30//1 3//1 44//1
f 50//9 7//9 37//9
f 35//3 6//3 31//3
f 37//4 7//4 33//4
f 94//5 38//5 8//5
f 28//6 4//6 46//6
f 51//7 16//7 34//7
f 52//7 21//7 53//7
f 90//33 40//33 10//33
f 55//5 16//5 46//5
f 56//5 22//5 57//5
f 50//5 20//5 58//5
f 59//4 15//4 45//4
f 60//4 23//4 61//4
f 49//4 19//4 62//4
f 63//3 13//3 43//3
f 64//3 24//3 65//3
f 47//3 17//3 66//3
f 67//8 19//8 49//8
f 68//9 25//9 69//9
f 38//10 20//10 70//10
f 77//11 71//11 14//11
f 72//1 26//1 73//1
f 75//13 42//13 12//13
f 72//34 75//34 74//34
f 9//14 27//14 75//14
f 2//1 42//1 75//1
f 76//15 73//15 10//15
f 39//1 76//1 40//1
f 9//11 72//11 76//11
f 77//1 32//1 4//1
f 10//16 73//16 77//16
f 73//1 26//1 71//1
f 78//9 70//9 25//9
f 36//18 78//18 68//18
f 36//9 8//9 38//9
f 79//20 69//20 17//20
f 48//35 79//35 47//35
f 18//18 68//18 79//18
f 35//36 80//36 49//36
f 69//20 80//20 35//20
f 69//9 25//9 67//9
f 81//3 66//3 24//3
f 29//3 81//3 64//3
f 5//3 47//3 81//3
f 82//3 65//3 9//3
f 41//22 82//22 39//22
f 11//3 64//3 82//3
f 27//23 83//23 43//23
f 9//3 65//3 83//3
f 24//3 63//3 83//3
f 84//4 62//4 23//4
f 31//4 84//4 60//4
f 6//4 49//4 84//4
f 85//4 61//4 12//4
f 43//26 85//26 42//26
f 13//4 60//4 85//4
f 30//27 86//27 45//27
f 12//4 61//4 86//4
f 23//4 59//4 86//4
f 87//5 58//5 22//5
f 33//5 87//5 56//5
f 7//5 50//5 87//5
f 88//5 57//5 14//5
f 45//30 88//30 44//30
f 15//5 56//5 88//5
f 32//30 89//30 46//30
f 14//5 57//5 89//5
f 22//5 55//5 89//5
f 90//7 54//7 21//7
f 41//7 90//7 52//7
f 41//6 1//6 40//6
f 91//7 53//7 18//7
f 29//7 91//7 48//7
f 11//7 52//7 91//7
f 92//7 34//7 8//7
f 53//7 92//7 36//7
f 21//7 51//7 92//7
f 51//7 93//7 46//7
f 54//7 93//7 51//7
f 10//37 28//37 93//37
f 94//5 34//5 16//5
f 22//5 58//5 94//5
f 20//5 38//5 94//5
f 95//4 33//4 15//4
f 62//4 95//4 59//4
f 19//4 37//4 95//4
f 96//3 31//3 13//3
f 66//3 96//3 63//3
f 17//3 35//3 96//3
f 97//8 37//8 19//8
f 70//9 97//9 67//9
f 20//10 50//10 97//10
f 98//32 44//32 14//32
f 74//38 98//38 71//38
f 12//16 30//16 98//16
