ply
format ascii 1.0
comment Created by Blender 2.79 (sub 0) - www.blender.org, source file: 'tree2.blend'
element vertex 636
property float x
property float y
property float z
property float nx
property float ny
property float nz
property uchar red
property uchar green
property uchar blue
element face 212
property list uchar uint vertex_indices
end_header
-0.398275 0.602520 1.389131 0.048345 -0.117299 -0.991919 0 153 9
-0.123634 0.211239 1.448787 0.048345 -0.117299 -0.991919 0 153 9
-0.438116 0.135682 1.442394 0.048345 -0.117299 -0.991919 0 153 9
0.092313 0.114181 1.612973 0.556741 -0.144946 -0.817943 0 153 9
-0.123634 0.211239 1.448787 0.556741 -0.144946 -0.817943 0 153 9
0.186021 0.400463 1.626024 0.556741 -0.144946 -0.817943 0 153 9
-0.398275 0.602520 1.389131 -0.249542 -0.088724 -0.964291 0 153 9
-0.438116 0.135682 1.442394 -0.249542 -0.088724 -0.964291 0 153 9
-0.814880 0.422040 1.513547 -0.249542 -0.088724 -0.964291 0 153 9
-0.349663 0.958308 1.565642 -0.422766 0.725435 -0.543151 0 153 9
-0.748016 0.725140 1.564282 -0.422766 0.725435 -0.543151 0 153 9
-0.688832 0.907295 1.761503 -0.422766 0.725435 -0.543151 0 153 9
0.036798 0.705877 1.512225 0.447789 0.778583 -0.439651 0 153 9
-0.349663 0.958308 1.565642 0.447789 0.778583 -0.439651 0 153 9
-0.060320 0.949707 1.845109 0.447789 0.778583 -0.439651 0 153 9
-0.814880 0.422040 1.513547 -0.944733 -0.010332 -0.327677 0 153 9
-0.900401 0.244380 1.765714 -0.944733 -0.010332 -0.327677 0 153 9
-0.902967 0.612562 1.761503 -0.944733 -0.010332 -0.327677 0 153 9
-0.349663 0.958308 1.565642 -0.296994 0.914053 -0.276229 0 153 9
-0.688832 0.907295 1.761503 -0.296994 0.914053 -0.276229 0 153 9
-0.342354 1.019872 1.761503 -0.296994 0.914053 -0.276229 0 153 9
0.036798 0.705877 1.512225 0.715465 0.646514 -0.264820 0 153 9
-0.060320 0.949707 1.845109 0.715465 0.646514 -0.264820 0 153 9
0.219068 0.607862 1.765376 0.715465 0.646514 -0.264820 0 153 9
-0.658561 0.853190 1.957364 -0.644122 0.202490 0.737635 0 153 9
-0.814458 0.317100 1.968394 -0.644122 0.202490 0.737635 0 153 9
-0.593066 0.612561 2.080612 -0.644122 0.202490 0.737635 0 153 9
-0.060320 0.949707 1.845109 0.035102 0.657641 0.752513 0 153 9
-0.658561 0.853190 1.957364 0.035102 0.657641 0.752513 0 153 9
-0.188071 0.683533 2.083685 0.035102 0.657641 0.752513 0 153 9
-0.593066 0.612561 2.080612 -0.049666 0.241443 0.969143 0 153 9
-0.358658 0.442255 2.135053 -0.049666 0.241443 0.969143 0 153 9
-0.188071 0.683533 2.083685 -0.049666 0.241443 0.969143 0 153 9
-0.188071 0.683533 2.083685 -0.083248 0.436247 0.895968 0 153 9
-0.658561 0.853190 1.957364 -0.083248 0.436247 0.895968 0 153 9
-0.593066 0.612561 2.080612 -0.083248 0.436247 0.895968 0 153 9
-0.358658 0.442255 2.135053 -0.209472 0.024164 0.977516 0 153 9
-0.593066 0.612561 2.080612 -0.209472 0.024164 0.977516 0 153 9
-0.479083 0.294775 2.112893 -0.209472 0.024164 0.977516 0 153 9
-0.342354 1.019872 1.761503 -0.001803 0.762988 0.646410 0 153 9
-0.658561 0.853190 1.957364 -0.001803 0.762988 0.646410 0 153 9
-0.060320 0.949707 1.845109 -0.001803 0.762988 0.646410 0 153 9
-0.342354 1.019872 1.761503 -0.295120 0.908285 0.296517 0 153 9
-0.688832 0.907295 1.761503 -0.295120 0.908285 0.296517 0 153 9
-0.658561 0.853190 1.957364 -0.295120 0.908285 0.296517 0 153 9
-0.902967 0.612562 1.761503 -0.735257 0.226956 0.638662 0 153 9
-0.814458 0.317100 1.968394 -0.735257 0.226956 0.638662 0 153 9
-0.658561 0.853190 1.957364 -0.735257 0.226956 0.638662 0 153 9
-0.902967 0.612562 1.761503 -0.920399 -0.001943 0.390976 0 153 9
-0.900401 0.244380 1.765714 -0.920399 -0.001943 0.390976 0 153 9
-0.814458 0.317100 1.968394 -0.920399 -0.001943 0.390976 0 153 9
-0.060320 0.949707 1.845109 0.312213 0.902900 -0.295458 0 153 9
-0.349663 0.958308 1.565642 0.312213 0.902900 -0.295458 0 153 9
-0.342354 1.019872 1.761503 0.312213 0.902900 -0.295458 0 153 9
-0.688832 0.907295 1.761503 -0.777543 0.564915 0.276222 0 153 9
-0.902967 0.612562 1.761503 -0.777543 0.564915 0.276222 0 153 9
-0.658561 0.853190 1.957364 -0.777543 0.564915 0.276222 0 153 9
-0.688832 0.907295 1.761503 -0.774877 0.562978 -0.287439 0 153 9
-0.748016 0.725140 1.564282 -0.774877 0.562978 -0.287439 0 153 9
-0.902967 0.612562 1.761503 -0.774877 0.562978 -0.287439 0 153 9
-0.748016 0.725140 1.564282 -0.825924 0.265455 -0.497377 0 153 9
-0.814880 0.422040 1.513547 -0.825924 0.265455 -0.497377 0 153 9
-0.902967 0.612562 1.761503 -0.825924 0.265455 -0.497377 0 153 9
0.186021 0.400463 1.626024 0.830145 0.213725 -0.514957 0 153 9
0.036798 0.705877 1.512225 0.830145 0.213725 -0.514957 0 153 9
0.219068 0.607862 1.765376 0.830145 0.213725 -0.514957 0 153 9
0.036798 0.705877 1.512225 0.152434 0.422441 -0.893480 0 153 9
-0.398275 0.602520 1.389131 0.152434 0.422441 -0.893480 0 153 9
-0.349663 0.958308 1.565642 0.152434 0.422441 -0.893480 0 153 9
-0.398275 0.602520 1.389131 -0.264805 0.457354 -0.848944 0 153 9
-0.748016 0.725140 1.564282 -0.264805 0.457354 -0.848944 0 153 9
-0.349663 0.958308 1.565642 -0.264805 0.457354 -0.848944 0 153 9
-0.398275 0.602520 1.389131 -0.369285 0.232092 -0.899868 0 153 9
-0.814880 0.422040 1.513547 -0.369285 0.232092 -0.899868 0 153 9
-0.748016 0.725140 1.564282 -0.369285 0.232092 -0.899868 0 153 9
-0.814880 0.422040 1.513547 -0.372497 -0.269440 -0.888058 0 153 9
-0.438116 0.135682 1.442394 -0.372497 -0.269440 -0.888058 0 153 9
-0.757759 0.133285 1.577197 -0.372497 -0.269440 -0.888058 0 153 9
0.186021 0.400463 1.626024 0.523576 -0.060829 -0.849805 0 153 9
-0.123634 0.211239 1.448787 0.523576 -0.060829 -0.849805 0 153 9
0.036798 0.705877 1.512225 0.523576 -0.060829 -0.849805 0 153 9
-0.123634 0.211239 1.448787 0.263652 0.038103 -0.963865 0 153 9
-0.398275 0.602520 1.389131 0.263652 0.038103 -0.963865 0 153 9
0.036798 0.705877 1.512225 0.263652 0.038103 -0.963865 0 153 9
-0.438116 0.135682 1.442394 -0.098001 -0.758007 -0.644842 0 153 9
-0.100122 -0.036834 1.593819 -0.098001 -0.758007 -0.644842 0 153 9
-0.632685 0.094809 1.520010 -0.098001 -0.758007 -0.644842 0 153 9
-0.438116 0.135682 1.442394 0.120937 -0.427565 -0.895858 0 153 9
-0.123634 0.211239 1.448787 0.120937 -0.427565 -0.895858 0 153 9
-0.266581 0.123240 1.471489 0.120937 -0.427565 -0.895858 0 153 9
1.003874 -0.493955 1.865506 0.546243 -0.209091 -0.811110 0 153 9
0.736421 -0.299642 1.635299 0.546243 -0.209091 -0.811110 0 153 9
1.117783 -0.022572 1.820703 0.546243 -0.209091 -0.811110 0 153 9
1.003874 -0.493955 1.865506 0.840131 -0.248822 -0.481941 0 153 9
1.117783 -0.022572 1.820703 0.840131 -0.248822 -0.481941 0 153 9
1.207814 -0.299643 2.120697 0.840131 -0.248822 -0.481941 0 153 9
0.048674 -0.751719 1.864449 -0.035746 -0.855561 -0.516466 0 153 9
0.590759 -0.747960 1.820702 -0.035746 -0.855561 -0.516466 0 153 9
0.355062 -0.919207 2.120697 -0.035746 -0.855561 -0.516466 0 153 9
1.003874 0.448812 1.865506 0.496264 0.722117 -0.481944 0 153 9
0.590759 0.702817 1.820702 0.496264 0.722117 -0.481944 0 153 9
0.882091 0.702821 2.120697 0.496264 0.722117 -0.481944 0 153 9
1.003874 -0.493955 1.865506 0.793463 -0.576482 -0.195154 0 153 9
1.207814 -0.299643 2.120697 0.793463 -0.576482 -0.195154 0 153 9
0.882091 -0.747965 2.120697 0.793463 -0.576482 -0.195154 0 153 9
0.355062 -0.919207 2.120697 -0.311559 -0.921952 -0.230079 0 153 9
-0.093919 -0.773296 2.143999 -0.311559 -0.921952 -0.230079 0 153 9
0.048674 -0.751719 1.864449 -0.311559 -0.921952 -0.230079 0 153 9
1.003874 0.448812 1.865506 0.793463 0.576482 -0.195154 0 153 9
0.882091 0.702821 2.120697 0.793463 0.576482 -0.195154 0 153 9
1.207814 0.254500 2.120697 0.793463 0.576482 -0.195154 0 153 9
0.602881 -0.785294 2.375889 0.272857 -0.442193 0.854409 0 153 9
0.972117 -0.470886 2.420692 0.272857 -0.442193 0.854409 0 153 9
0.440123 -0.284368 2.687116 0.272857 -0.442193 0.854409 0 153 9
-0.323103 -0.485019 2.331594 -0.430155 -0.460799 0.776293 0 153 9
0.119364 -0.747960 2.420693 -0.430155 -0.460799 0.776293 0 153 9
-0.026298 -0.299642 2.606096 -0.430155 -0.460799 0.776293 0 153 9
-0.293750 0.448812 2.375889 -0.595093 0.121992 0.794344 0 153 9
-0.440639 -0.056021 2.343375 -0.595093 0.121992 0.794344 0 153 9
-0.026298 0.254499 2.606096 -0.595093 0.121992 0.794344 0 153 9
0.602881 0.740151 2.375889 0.030057 0.584121 0.811110 0 153 9
0.119364 0.702817 2.420693 0.030057 0.584121 0.811110 0 153 9
0.500725 0.425742 2.606096 0.030057 0.584121 0.811110 0 153 9
1.157036 -0.022572 2.375887 0.564825 0.151913 0.811108 0 153 9
0.972117 0.425743 2.420692 0.564825 0.151913 0.811108 0 153 9
0.826450 -0.022572 2.606094 0.564825 0.151913 0.811108 0 153 9
0.826450 -0.022572 2.606094 0.138461 0.100596 0.985246 0 153 9
0.500725 0.425742 2.606096 0.138461 0.100596 0.985246 0 153 9
0.440123 -0.284368 2.687116 0.138461 0.100596 0.985246 0 153 9
0.826450 -0.022572 2.606094 0.353725 0.256997 0.899350 0 153 9
0.972117 0.425743 2.420692 0.353725 0.256997 0.899350 0 153 9
0.500725 0.425742 2.606096 0.353725 0.256997 0.899350 0 153 9
0.972117 0.425743 2.420692 0.319018 0.490233 0.811110 0 153 9
0.602881 0.740151 2.375889 0.319018 0.490233 0.811110 0 153 9
0.500725 0.425742 2.606096 0.319018 0.490233 0.811110 0 153 9
0.500725 0.425742 2.606096 -0.037843 0.116466 0.992473 0 153 9
-0.026298 0.254499 2.606096 -0.037843 0.116466 0.992473 0 153 9
0.440123 -0.284368 2.687116 -0.037843 0.116466 0.992473 0 153 9
0.500725 0.425742 2.606096 -0.135113 0.415829 0.899350 0 153 9
0.119364 0.702817 2.420693 -0.135113 0.415829 0.899350 0 153 9
-0.026298 0.254499 2.606096 -0.135113 0.415829 0.899350 0 153 9
0.119364 0.702817 2.420693 -0.367660 0.454893 0.811110 0 153 9
-0.293750 0.448812 2.375889 -0.367660 0.454893 0.811110 0 153 9
-0.026298 0.254499 2.606096 -0.367660 0.454893 0.811110 0 153 9
-0.026298 0.254499 2.606096 -0.171144 0.000000 0.985246 0 153 9
-0.026298 -0.299642 2.606096 -0.171144 0.000000 0.985246 0 153 9
0.440123 -0.284368 2.687116 -0.171144 0.000000 0.985246 0 153 9
-0.026298 0.254499 2.606096 -0.535495 0.000000 0.844538 0 153 9
-0.440639 -0.056021 2.343375 -0.535495 0.000000 0.844538 0 153 9
-0.026298 -0.299642 2.606096 -0.535495 0.000000 0.844538 0 153 9
-0.440639 -0.056021 2.343375 -0.601890 -0.186230 0.776561 0 153 9
-0.323103 -0.485019 2.331594 -0.601890 -0.186230 0.776561 0 153 9
-0.026298 -0.299642 2.606096 -0.601890 -0.186230 0.776561 0 153 9
-0.026298 -0.299642 2.606096 -0.142238 -0.417390 0.897527 0 153 9
0.119364 -0.747960 2.420693 -0.142238 -0.417390 0.897527 0 153 9
0.440123 -0.284368 2.687116 -0.142238 -0.417390 0.897527 0 153 9
0.119364 -0.747960 2.420693 0.039165 -0.518123 0.854409 0 153 9
0.602881 -0.785294 2.375889 0.039165 -0.518123 0.854409 0 153 9
0.440123 -0.284368 2.687116 0.039165 -0.518123 0.854409 0 153 9
0.440123 -0.284368 2.687116 0.360407 -0.254072 0.897527 0 153 9
0.972117 -0.470886 2.420692 0.360407 -0.254072 0.897527 0 153 9
0.826450 -0.022572 2.606094 0.360407 -0.254072 0.897527 0 153 9
0.972117 -0.470886 2.420692 0.564825 -0.151913 0.811108 0 153 9
1.157036 -0.022572 2.375887 0.564825 -0.151913 0.811108 0 153 9
0.826450 -0.022572 2.606094 0.564825 -0.151913 0.811108 0 153 9
1.207814 0.254500 2.120697 0.825935 0.292513 0.481941 0 153 9
0.972117 0.425743 2.420692 0.825935 0.292513 0.481941 0 153 9
1.157036 -0.022572 2.375887 0.825935 0.292513 0.481941 0 153 9
1.207814 0.254500 2.120697 0.774877 0.562978 0.287439 0 153 9
0.882091 0.702821 2.120697 0.774877 0.562978 0.287439 0 153 9
0.972117 0.425743 2.420692 0.774877 0.562978 0.287439 0 153 9
0.882091 0.702821 2.120697 0.533421 0.695119 0.481945 0 153 9
0.602881 0.740151 2.375889 0.533421 0.695119 0.481945 0 153 9
0.972117 0.425743 2.420692 0.533421 0.695119 0.481945 0 153 9
0.355062 0.874064 2.120697 -0.022973 0.875901 0.481943 0 153 9
0.119364 0.702817 2.420693 -0.022973 0.875901 0.481943 0 153 9
0.602881 0.740151 2.375889 -0.022973 0.875901 0.481943 0 153 9
0.355062 0.874064 2.120697 -0.335529 0.907090 0.254181 0 153 9
-0.188071 0.683533 2.083685 -0.335529 0.907090 0.254181 0 153 9
0.119364 0.702817 2.420693 -0.335529 0.907090 0.254181 0 153 9
-0.188071 0.683533 2.083685 -0.507902 0.751916 0.420307 0 153 9
-0.293750 0.448812 2.375889 -0.507902 0.751916 0.420307 0 153 9
0.119364 0.702817 2.420693 -0.507902 0.751916 0.420307 0 153 9
0.355062 -0.919207 2.120697 -0.022973 -0.875901 0.481943 0 153 9
0.602881 -0.785294 2.375889 -0.022973 -0.875901 0.481943 0 153 9
0.119364 -0.747960 2.420693 -0.022973 -0.875901 0.481943 0 153 9
0.882091 -0.747965 2.120697 0.533421 -0.695119 0.481945 0 153 9
0.972117 -0.470886 2.420692 0.533421 -0.695119 0.481945 0 153 9
0.602881 -0.785294 2.375889 0.533421 -0.695119 0.481945 0 153 9
0.882091 -0.747965 2.120697 0.774877 -0.562978 0.287439 0 153 9
1.207814 -0.299643 2.120697 0.774877 -0.562978 0.287439 0 153 9
0.972117 -0.470886 2.420692 0.774877 -0.562978 0.287439 0 153 9
1.207814 -0.299643 2.120697 0.825935 -0.292513 0.481941 0 153 9
1.157036 -0.022572 2.375887 0.825935 -0.292513 0.481941 0 153 9
0.972117 -0.470886 2.420692 0.825935 -0.292513 0.481941 0 153 9
0.882091 0.702821 2.120697 0.303075 0.932770 0.195156 0 153 9
0.355062 0.874064 2.120697 0.303075 0.932770 0.195156 0 153 9
0.602881 0.740151 2.375889 0.303075 0.932770 0.195156 0 153 9
0.882091 0.702821 2.120697 0.295976 0.910920 -0.287442 0 153 9
0.590759 0.702817 1.820702 0.295976 0.910920 -0.287442 0 153 9
0.355062 0.874064 2.120697 0.295976 0.910920 -0.287442 0 153 9
0.590759 0.702817 1.820702 -0.008456 0.865561 -0.500733 0 153 9
0.077774 0.750014 1.910950 -0.008456 0.865561 -0.500733 0 153 9
0.355062 0.874064 2.120697 -0.008456 0.865561 -0.500733 0 153 9
0.355062 -0.919207 2.120697 0.303075 -0.932770 0.195156 0 153 9
0.882091 -0.747965 2.120697 0.303075 -0.932770 0.195156 0 153 9
0.602881 -0.785294 2.375889 0.303075 -0.932770 0.195156 0 153 9
0.355062 -0.919207 2.120697 0.295976 -0.910920 -0.287442 0 153 9
0.590759 -0.747960 1.820702 0.295976 -0.910920 -0.287442 0 153 9
0.882091 -0.747965 2.120697 0.295976 -0.910920 -0.287442 0 153 9
0.590759 -0.747960 1.820702 0.496264 -0.722117 -0.481944 0 153 9
1.003874 -0.493955 1.865506 0.496264 -0.722117 -0.481944 0 153 9
0.882091 -0.747965 2.120697 0.496264 -0.722117 -0.481944 0 153 9
1.207814 -0.299643 2.120697 0.980772 0.000000 0.195156 12 211 44
1.207814 0.254500 2.120697 0.980772 0.000000 0.195156 0 209 34
1.157036 -0.022572 2.375887 0.980772 0.000000 0.195156 0 209 34
1.207814 -0.299643 2.120697 0.957797 0.000000 -0.287444 0 153 9
1.117783 -0.022572 1.820703 0.957797 0.000000 -0.287444 0 153 9
1.207814 0.254500 2.120697 0.957797 0.000000 -0.287444 0 153 9
1.117783 -0.022572 1.820703 0.840131 0.248822 -0.481941 0 153 9
1.003874 0.448812 1.865506 0.840131 0.248822 -0.481941 0 153 9
1.207814 0.254500 2.120697 0.840131 0.248822 -0.481941 0 153 9
0.736421 0.254499 1.635299 0.367660 0.454892 -0.811110 0 153 9
0.590759 0.702817 1.820702 0.367660 0.454892 -0.811110 0 153 9
1.003874 0.448812 1.865506 0.367660 0.454892 -0.811110 0 153 9
0.736421 0.254499 1.635299 0.124868 0.413546 -0.901880 0 153 9
0.186021 0.400463 1.626024 0.124868 0.413546 -0.901880 0 153 9
0.590759 0.702817 1.820702 0.124868 0.413546 -0.901880 0 153 9
1.117783 -0.022572 1.820703 0.546243 0.209091 -0.811110 0 153 9
0.736421 0.254499 1.635299 0.546243 0.209091 -0.811110 0 153 9
1.003874 0.448812 1.865506 0.546243 0.209091 -0.811110 0 153 9
1.117783 -0.022572 1.820703 0.437231 0.000000 -0.899349 0 153 9
0.736421 -0.299642 1.635299 0.437231 0.000000 -0.899349 0 153 9
0.736421 0.254499 1.635299 0.437231 0.000000 -0.899349 0 153 9
0.099028 -0.409464 1.649740 -0.064933 -0.523426 -0.849593 0 153 9
0.590759 -0.747960 1.820702 -0.064933 -0.523426 -0.849593 0 153 9
0.048674 -0.751719 1.864449 -0.064933 -0.523426 -0.849593 0 153 9
0.099028 -0.409464 1.649740 0.047235 -0.394803 -0.917551 0 153 9
0.736421 -0.299642 1.635299 0.047235 -0.394803 -0.917551 0 153 9
0.590759 -0.747960 1.820702 0.047235 -0.394803 -0.917551 0 153 9
0.736421 -0.299642 1.635299 0.367660 -0.454892 -0.811110 0 153 9
1.003874 -0.493955 1.865506 0.367660 -0.454892 -0.811110 0 153 9
0.590759 -0.747960 1.820702 0.367660 -0.454892 -0.811110 0 153 9
-0.224699 -0.571120 1.492833 0.520649 -0.250385 -0.816230 0 153 9
0.099028 -0.409464 1.649740 0.520649 -0.250385 -0.816230 0 153 9
-0.000985 -0.733656 1.685393 0.520649 -0.250385 -0.816230 0 153 9
-0.614844 -0.558344 1.425063 -0.231605 0.133745 -0.963572 0 153 9
-1.139990 -0.339360 1.581682 -0.231605 0.133745 -0.963572 0 153 9
-0.632685 0.094809 1.520010 -0.231605 0.133745 -0.963572 0 153 9
-0.614844 -0.558344 1.425063 0.005526 0.144001 -0.989562 0 153 9
-0.632685 0.094809 1.520010 0.005526 0.144001 -0.989562 0 153 9
-0.224699 -0.107600 1.492833 0.005526 0.144001 -0.989562 0 153 9
-0.000985 -0.733656 1.685393 0.907290 -0.311022 -0.283002 0 153 9
0.099028 -0.409464 1.649740 0.907290 -0.311022 -0.283002 0 153 9
0.048674 -0.751719 1.864449 0.907290 -0.311022 -0.283002 0 153 9
-0.750986 -0.977351 1.685393 0.022973 -0.875901 -0.481943 0 153 9
-0.346541 -0.946122 1.647917 0.022973 -0.875901 -0.481943 0 153 9
-0.543693 -1.089364 1.898852 0.022973 -0.875901 -0.481943 0 153 9
-1.139990 -0.339360 1.581682 -0.825908 -0.264475 -0.497925 0 153 9
-1.059838 -0.714360 1.647917 -0.825908 -0.264475 -0.497925 0 153 9
-1.256991 -0.571121 1.898852 -0.825908 -0.264475 -0.497925 0 153 9
-0.750986 -0.977351 1.685393 -0.303076 -0.932770 -0.195156 0 153 9
-0.543693 -1.089364 1.898852 -0.303076 -0.932770 -0.195156 0 153 9
-0.984535 -0.946126 1.898852 -0.303076 -0.932770 -0.195156 0 153 9
-1.139990 -0.339360 1.581682 -0.938200 -0.000000 -0.346093 0 153 9
-1.256991 -0.571121 1.898852 -0.938200 -0.000000 -0.346093 0 153 9
-1.256991 -0.107599 1.898852 -0.938200 -0.000000 -0.346093 0 153 9
-1.086402 -0.733656 2.112311 -0.332884 -0.389963 0.858556 0 153 9
-0.740846 -0.946122 2.149788 -0.332884 -0.389963 0.858556 0 153 9
-0.706830 -0.463245 2.382303 -0.332884 -0.389963 0.858556 0 153 9
-0.116524 -0.031745 0.292044 -0.696211 -0.716931 0.036069 135 90 0
0.016748 -0.117602 1.157932 -0.696211 -0.716931 0.036069 135 90 0
-0.119062 0.015138 1.174932 -0.696211 -0.716931 0.036069 135 90 0
-1.012275 0.015272 2.226825 -0.436921 0.013337 0.899401 0 153 9
-1.181683 -0.339360 2.149787 -0.436921 0.013337 0.899401 0 153 9
-0.706830 -0.463245 2.382303 -0.436921 0.013337 0.899401 0 153 9
-1.181683 -0.339360 2.149787 -0.471982 -0.195755 0.859600 0 153 9
-1.086402 -0.733656 2.112311 -0.471982 -0.195755 0.859600 0 153 9
-0.706830 -0.463245 2.382303 -0.471982 -0.195755 0.859600 0 153 9
-0.706830 -0.463245 2.382303 -0.128871 -0.422843 0.896993 0 153 9
-0.740846 -0.946122 2.149788 -0.128871 -0.422843 0.896993 0 153 9
-0.421851 -0.714359 2.304872 -0.128871 -0.422843 0.896993 0 153 9
-0.740846 -0.946122 2.149788 0.030058 -0.584121 0.811110 0 153 9
-0.336401 -0.977351 2.112311 0.030058 -0.584121 0.811110 0 153 9
-0.421851 -0.714359 2.304872 0.030058 -0.584121 0.811110 0 153 9
-0.984535 0.267406 1.898852 -0.511044 0.701801 0.496296 0 153 9
-1.012275 0.015272 2.226825 -0.511044 0.701801 0.496296 0 153 9
-0.740846 0.267402 2.149788 -0.511044 0.701801 0.496296 0 153 9
-1.256991 -0.107599 1.898852 -0.816697 0.280596 0.504254 0 153 9
-1.181683 -0.339360 2.149787 -0.816697 0.280596 0.504254 0 153 9
-1.012275 0.015272 2.226825 -0.816697 0.280596 0.504254 0 153 9
-1.256991 -0.107599 1.898852 -0.957797 0.000000 0.287444 0 153 9
-1.256991 -0.571121 1.898852 -0.957797 0.000000 0.287444 0 153 9
-1.181683 -0.339360 2.149787 -0.957797 0.000000 0.287444 0 153 9
-1.256991 -0.571121 1.898852 -0.840131 -0.248822 0.481941 0 153 9
-1.086402 -0.733656 2.112311 -0.840131 -0.248822 0.481941 0 153 9
-1.181683 -0.339360 2.149787 -0.840131 -0.248822 0.481941 0 153 9
-0.984535 -0.946126 1.898852 -0.496264 -0.722116 0.481944 0 153 9
-0.740846 -0.946122 2.149788 -0.496264 -0.722116 0.481944 0 153 9
-1.086402 -0.733656 2.112311 -0.496264 -0.722116 0.481944 0 153 9
-0.984535 -0.946126 1.898852 -0.295976 -0.910920 0.287443 0 153 9
-0.543693 -1.089364 1.898852 -0.295976 -0.910920 0.287443 0 153 9
-0.740846 -0.946122 2.149788 -0.295976 -0.910920 0.287443 0 153 9
-0.543693 -1.089364 1.898852 -0.022973 -0.875901 0.481943 0 153 9
-0.336401 -0.977351 2.112311 -0.022973 -0.875901 0.481943 0 153 9
-0.740846 -0.946122 2.149788 -0.022973 -0.875901 0.481943 0 153 9
-0.102851 -0.946126 1.898852 0.767810 -0.536470 0.350240 0 153 9
0.048674 -0.751719 1.864449 0.767810 -0.536470 0.350240 0 153 9
-0.093919 -0.773296 2.143999 0.767810 -0.536470 0.350240 0 153 9
-0.984535 0.267406 1.898852 -0.755391 0.548820 0.358023 0 153 9
-1.256991 -0.107599 1.898852 -0.755391 0.548820 0.358023 0 153 9
-1.012275 0.015272 2.226825 -0.755391 0.548820 0.358023 0 153 9
-0.984535 0.267406 1.898852 -0.774877 0.562978 -0.287439 0 153 9
-1.059838 0.035640 1.647917 -0.774877 0.562978 -0.287439 0 153 9
-1.256991 -0.107599 1.898852 -0.774877 0.562978 -0.287439 0 153 9
-1.059838 0.035640 1.647917 -0.825908 0.264475 -0.497925 0 153 9
-1.139990 -0.339360 1.581682 -0.825908 0.264475 -0.497925 0 153 9
-1.256991 -0.107599 1.898852 -0.825908 0.264475 -0.497925 0 153 9
-1.256991 -0.571121 1.898852 -0.793463 -0.576482 0.195154 0 153 9
-0.984535 -0.946126 1.898852 -0.793463 -0.576482 0.195154 0 153 9
-1.086402 -0.733656 2.112311 -0.793463 -0.576482 0.195154 0 153 9
-1.256991 -0.571121 1.898852 -0.774877 -0.562978 -0.287439 0 153 9
-1.059838 -0.714360 1.647917 -0.774877 -0.562978 -0.287439 0 153 9
-0.984535 -0.946126 1.898852 -0.774877 -0.562978 -0.287439 0 153 9
-1.059838 -0.714360 1.647917 -0.533421 -0.695119 -0.481945 0 153 9
-0.750986 -0.977351 1.685393 -0.533421 -0.695119 -0.481945 0 153 9
-0.984535 -0.946126 1.898852 -0.533421 -0.695119 -0.481945 0 153 9
-0.543693 -1.089364 1.898852 0.303076 -0.932770 0.195156 0 153 9
-0.102851 -0.946126 1.898852 0.303076 -0.932770 0.195156 0 153 9
-0.336401 -0.977351 2.112311 0.303076 -0.932770 0.195156 0 153 9
-0.543693 -1.089364 1.898852 0.295976 -0.910920 -0.287443 0 153 9
-0.346541 -0.946122 1.647917 0.295976 -0.910920 -0.287443 0 153 9
-0.102851 -0.946126 1.898852 0.295976 -0.910920 -0.287443 0 153 9
-0.346541 -0.946122 1.647917 0.496264 -0.722117 -0.481944 0 153 9
-0.000985 -0.733656 1.685393 0.496264 -0.722117 -0.481944 0 153 9
-0.102851 -0.946126 1.898852 0.496264 -0.722117 -0.481944 0 153 9
-0.632685 0.094809 1.520010 -0.308207 0.228964 -0.923355 0 153 9
-1.139990 -0.339360 1.581682 -0.308207 0.228964 -0.923355 0 153 9
-1.059838 0.035640 1.647917 -0.308207 0.228964 -0.923355 0 153 9
-1.139990 -0.339360 1.581682 -0.367192 -0.237333 -0.899357 0 153 9
-0.614844 -0.558344 1.425063 -0.367192 -0.237333 -0.899357 0 153 9
-1.059838 -0.714360 1.647917 -0.367192 -0.237333 -0.899357 0 153 9
-0.614844 -0.558344 1.425063 -0.272858 -0.442193 -0.854409 0 153 9
-0.750986 -0.977351 1.685393 -0.272858 -0.442193 -0.854409 0 153 9
-1.059838 -0.714360 1.647917 -0.272858 -0.442193 -0.854409 0 153 9
-0.224699 -0.571120 1.492833 0.171143 0.000000 -0.985246 0 153 9
-0.614844 -0.558344 1.425063 0.171143 0.000000 -0.985246 0 153 9
-0.224699 -0.107600 1.492833 0.171143 0.000000 -0.985246 0 153 9
-0.614844 -0.558344 1.425063 -0.039165 -0.518123 -0.854409 0 153 9
-0.346541 -0.946122 1.647917 -0.039165 -0.518123 -0.854409 0 153 9
-0.750986 -0.977351 1.685393 -0.039165 -0.518123 -0.854409 0 153 9
-0.614844 -0.558344 1.425063 0.142238 -0.417389 -0.897527 0 153 9
-0.224699 -0.571120 1.492833 0.142238 -0.417389 -0.897527 0 153 9
-0.346541 -0.946122 1.647917 0.142238 -0.417389 -0.897527 0 153 9
-0.224699 -0.571120 1.492833 0.367660 -0.454892 -0.811110 0 153 9
-0.000985 -0.733656 1.685393 0.367660 -0.454892 -0.811110 0 153 9
-0.346541 -0.946122 1.647917 0.367660 -0.454892 -0.811110 0 153 9
0.094013 0.197177 0.184627 0.872783 0.483597 0.066218 135 90 0
0.116031 0.022505 1.170071 0.872783 0.483597 0.066218 135 90 0
0.204890 0.022430 -0.000581 0.872783 0.483597 0.066218 135 90 0
0.116031 0.022505 1.170071 0.995147 0.063072 0.075533 135 90 0
0.188475 -0.085659 0.305949 0.995147 0.063072 0.075533 135 90 0
0.204890 0.022430 -0.000581 0.995147 0.063072 0.075533 135 90 0
0.016748 -0.117602 1.157932 0.642760 -0.759369 0.101085 135 90 0
0.063281 -0.196783 0.267220 0.642760 -0.759369 0.101085 135 90 0
0.188475 -0.085659 0.305949 0.642760 -0.759369 0.101085 135 90 0
0.016748 -0.117602 1.157932 -0.257650 -0.963537 0.072195 135 90 0
-0.139002 -0.162679 0.000478 -0.257650 -0.963537 0.072195 135 90 0
0.063281 -0.196783 0.267220 -0.257650 -0.963537 0.072195 135 90 0
-0.119062 0.015138 1.174932 -0.995247 0.097055 -0.008015 135 90 0
-0.099716 0.142939 0.320248 -0.995247 0.097055 -0.008015 135 90 0
-0.116524 -0.031745 0.292044 -0.995247 0.097055 -0.008015 135 90 0
0.029773 0.110695 1.170460 -0.222665 0.972322 0.070788 135 90 0
0.094013 0.197177 0.184627 -0.222665 0.972322 0.070788 135 90 0
-0.099716 0.142939 0.320248 -0.222665 0.972322 0.070788 135 90 0
-0.099716 0.142939 0.320248 -0.331569 0.936155 0.116940 135 90 0
-0.080824 0.189635 -0.000004 -0.331569 0.936155 0.116940 135 90 0
-0.498117 0.041810 0.000218 -0.331569 0.936155 0.116940 135 90 0
-0.139002 -0.162679 0.000478 -0.455069 -0.798672 0.393745 135 90 0
-0.116524 -0.031745 0.292044 -0.455069 -0.798672 0.393745 135 90 0
-0.498117 0.041810 0.000218 -0.455069 -0.798672 0.393745 135 90 0
0.188292 -0.345639 -0.000801 -0.471754 -0.845655 0.249632 135 90 0
0.063281 -0.196783 0.267220 -0.471754 -0.845655 0.249632 135 90 0
-0.139002 -0.162679 0.000478 -0.471754 -0.845655 0.249632 135 90 0
0.204890 0.022430 -0.000581 0.998278 -0.045039 0.037578 135 90 0
0.188475 -0.085659 0.305949 0.998278 -0.045039 0.037578 135 90 0
0.188292 -0.345639 -0.000801 0.998278 -0.045039 0.037578 135 90 0
0.094013 0.197177 0.184627 0.743563 -0.203342 0.636998 135 90 0
0.204890 0.022430 -0.000581 0.743563 -0.203342 0.636998 135 90 0
0.297179 0.367834 0.001950 0.743563 -0.203342 0.636998 135 90 0
-0.080824 0.189635 -0.000004 -0.401593 0.848088 0.345644 135 90 0
0.094013 0.197177 0.184627 -0.401593 0.848088 0.345644 135 90 0
0.297179 0.367834 0.001950 -0.401593 0.848088 0.345644 135 90 0
0.016748 -0.117602 1.157932 -0.610086 -0.551310 -0.569080 135 90 0
-0.217740 -0.207503 1.496410 -0.610086 -0.551310 -0.569080 135 90 0
-0.119062 0.015138 1.174932 -0.610086 -0.551310 -0.569080 135 90 0
0.016748 -0.117602 1.157932 -0.361974 -0.807752 -0.465308 135 90 0
-0.124948 -0.274971 1.541345 -0.361974 -0.807752 -0.465308 135 90 0
-0.217740 -0.207503 1.496410 -0.361974 -0.807752 -0.465308 135 90 0
-0.119062 0.015138 1.174932 -0.760520 0.388802 -0.520040 135 90 0
-0.266581 0.123240 1.471489 -0.760520 0.388802 -0.520040 135 90 0
-0.169588 0.160060 1.357173 -0.760520 0.388802 -0.520040 135 90 0
-0.119062 0.015138 1.174932 -0.432199 0.643610 -0.631641 135 90 0
-0.169588 0.160060 1.357173 -0.432199 0.643610 -0.631641 135 90 0
0.029773 0.110695 1.170460 -0.432199 0.643610 -0.631641 135 90 0
-0.440639 -0.056021 2.343375 0.131496 0.008805 0.991278 0 153 9
-0.706830 -0.463245 2.382303 0.131496 0.008805 0.991278 0 153 9
-0.323103 -0.485019 2.331594 0.131496 0.008805 0.991278 0 153 9
-0.093919 -0.773296 2.143999 -0.280734 -0.911734 0.299882 0 153 9
0.355062 -0.919207 2.120697 -0.280734 -0.911734 0.299882 0 153 9
0.119364 -0.747960 2.420693 -0.280734 -0.911734 0.299882 0 153 9
-0.440639 -0.056021 2.343375 -0.171090 0.203981 0.963909 0 153 9
-1.012275 0.015272 2.226825 -0.171090 0.203981 0.963909 0 153 9
-0.706830 -0.463245 2.382303 -0.171090 0.203981 0.963909 0 153 9
-0.100122 -0.036834 1.593819 0.557518 0.176218 -0.811247 0 153 9
0.099028 -0.409464 1.649740 0.557518 0.176218 -0.811247 0 153 9
-0.224699 -0.107600 1.492833 0.557518 0.176218 -0.811247 0 153 9
-0.814458 0.317100 1.968394 -0.401578 0.828637 0.389994 0 153 9
-0.984535 0.267406 1.898852 -0.401578 0.828637 0.389994 0 153 9
-0.740846 0.267402 2.149788 -0.401578 0.828637 0.389994 0 153 9
-0.174255 0.127102 1.475659 0.316733 -0.456172 -0.831617 0 153 9
-0.123634 0.211239 1.448787 0.316733 -0.456172 -0.831617 0 153 9
-0.100122 -0.036834 1.593819 0.316733 -0.456172 -0.831617 0 153 9
0.077774 0.750014 1.910950 0.373705 0.513180 0.772652 0 153 9
-0.060320 0.949707 1.845109 0.373705 0.513180 0.772652 0 153 9
-0.188071 0.683533 2.083685 0.373705 0.513180 0.772652 0 153 9
-0.814458 0.317100 1.968394 -0.166918 0.948422 -0.269508 0 153 9
-0.900401 0.244380 1.765714 -0.166918 0.948422 -0.269508 0 153 9
-0.984535 0.267406 1.898852 -0.166918 0.948422 -0.269508 0 153 9
-0.757759 0.133285 1.577197 -0.837699 -0.270315 -0.474543 0 153 9
-0.900401 0.244380 1.765714 -0.837699 -0.270315 -0.474543 0 153 9
-0.814880 0.422040 1.513547 -0.837699 -0.270315 -0.474543 0 153 9
-0.479083 0.294775 2.112893 -0.397991 -0.049699 0.916042 0 153 9
-0.593066 0.612561 2.080612 -0.397991 -0.049699 0.916042 0 153 9
-0.814458 0.317100 1.968394 -0.397991 -0.049699 0.916042 0 153 9
0.077774 0.750014 1.910950 0.781961 0.598348 0.174687 0 153 9
0.219068 0.607862 1.765376 0.781961 0.598348 0.174687 0 153 9
-0.060320 0.949707 1.845109 0.781961 0.598348 0.174687 0 153 9
-0.438116 0.135682 1.442394 -0.387167 0.103209 -0.916215 0 153 9
-0.632685 0.094809 1.520010 -0.387167 0.103209 -0.916215 0 153 9
-0.757759 0.133285 1.577197 -0.387167 0.103209 -0.916215 0 153 9
-0.266581 0.123240 1.471489 0.103656 -0.533638 -0.839337 0 153 9
-0.100122 -0.036834 1.593819 0.103656 -0.533638 -0.839337 0 153 9
-0.438116 0.135682 1.442394 0.103656 -0.533638 -0.839337 0 153 9
-0.123634 0.211239 1.448787 0.416517 -0.429101 -0.801490 0 153 9
0.092313 0.114181 1.612973 0.416517 -0.429101 -0.801490 0 153 9
-0.100122 -0.036834 1.593819 0.416517 -0.429101 -0.801490 0 153 9
-0.188071 0.683533 2.083685 -0.320144 0.938180 -0.131627 0 153 9
0.355062 0.874064 2.120697 -0.320144 0.938180 -0.131627 0 153 9
0.077774 0.750014 1.910950 -0.320144 0.938180 -0.131627 0 153 9
-0.293750 0.448812 2.375889 -0.780989 0.593543 0.194324 0 153 9
-0.188071 0.683533 2.083685 -0.780989 0.593543 0.194324 0 153 9
-0.358658 0.442255 2.135053 -0.780989 0.593543 0.194324 0 153 9
-0.479083 0.294775 2.112893 -0.774085 0.603202 0.192200 0 153 9
-0.293750 0.448812 2.375889 -0.774085 0.603202 0.192200 0 153 9
-0.358658 0.442255 2.135053 -0.774085 0.603202 0.192200 0 153 9
0.590759 0.702817 1.820702 -0.019688 0.559756 -0.828424 0 153 9
0.186021 0.400463 1.626024 -0.019688 0.559756 -0.828424 0 153 9
0.219068 0.607862 1.765376 -0.019688 0.559756 -0.828424 0 153 9
0.077774 0.750014 1.910950 -0.065558 0.681376 -0.728991 0 153 9
0.590759 0.702817 1.820702 -0.065558 0.681376 -0.728991 0 153 9
0.219068 0.607862 1.765376 -0.065558 0.681376 -0.728991 0 153 9
0.736421 0.254499 1.635299 0.210945 0.000000 -0.977498 0 153 9
0.736421 -0.299642 1.635299 0.210945 0.000000 -0.977498 0 153 9
0.391489 0.027572 1.560862 0.210945 0.000000 -0.977498 0 153 9
-0.102851 -0.946126 1.898852 0.736617 -0.621384 -0.266977 0 153 9
-0.000985 -0.733656 1.685393 0.736617 -0.621384 -0.266977 0 153 9
0.048674 -0.751719 1.864449 0.736617 -0.621384 -0.266977 0 153 9
-0.421851 -0.714359 2.304872 0.309694 -0.494163 0.812338 0 153 9
-0.336401 -0.977351 2.112311 0.309694 -0.494163 0.812338 0 153 9
-0.093919 -0.773296 2.143999 0.309694 -0.494163 0.812338 0 153 9
-0.706830 -0.463245 2.382303 0.119952 -0.165705 0.978853 0 153 9
-0.421851 -0.714359 2.304872 0.119952 -0.165705 0.978853 0 153 9
-0.323103 -0.485019 2.331594 0.119952 -0.165705 0.978853 0 153 9
-0.421851 -0.714359 2.304872 0.384898 -0.268615 0.883006 0 153 9
-0.093919 -0.773296 2.143999 0.384898 -0.268615 0.883006 0 153 9
-0.323103 -0.485019 2.331594 0.384898 -0.268615 0.883006 0 153 9
-0.336401 -0.977351 2.112311 0.529000 -0.702540 0.476022 0 153 9
-0.102851 -0.946126 1.898852 0.529000 -0.702540 0.476022 0 153 9
-0.093919 -0.773296 2.143999 0.529000 -0.702540 0.476022 0 153 9
-0.100122 -0.036834 1.593819 0.255412 0.614985 -0.746029 0 153 9
-0.224699 -0.107600 1.492833 0.255412 0.614985 -0.746029 0 153 9
-0.632685 0.094809 1.520010 0.255412 0.614985 -0.746029 0 153 9
-0.632685 0.094809 1.520010 -0.312086 0.316771 -0.895689 0 153 9
-1.059838 0.035640 1.647917 -0.312086 0.316771 -0.895689 0 153 9
-0.757759 0.133285 1.577197 -0.312086 0.316771 -0.895689 0 153 9
0.029773 0.110695 1.170460 0.711003 0.694955 0.107296 135 90 0
0.116031 0.022505 1.170071 0.711003 0.694955 0.107296 135 90 0
0.094013 0.197177 0.184627 0.711003 0.694955 0.107296 135 90 0
0.188475 -0.085659 0.305949 0.802128 -0.580531 0.139912 135 90 0
0.116031 0.022505 1.170071 0.802128 -0.580531 0.139912 135 90 0
0.016748 -0.117602 1.157932 0.802128 -0.580531 0.139912 135 90 0
-0.119062 0.015138 1.174932 -0.534386 0.837632 0.113155 135 90 0
0.029773 0.110695 1.170460 -0.534386 0.837632 0.113155 135 90 0
-0.099716 0.142939 0.320248 -0.534386 0.837632 0.113155 135 90 0
-0.139002 -0.162679 0.000478 -0.002572 -0.000943 -0.999996 135 90 0
-0.080824 0.189635 -0.000004 -0.002572 -0.000943 -0.999996 135 90 0
0.204890 0.022430 -0.000581 -0.002572 -0.000943 -0.999996 135 90 0
-0.148520 -0.184733 1.529869 0.907852 0.062277 0.414640 135 90 0
0.016748 -0.117602 1.157932 0.907852 0.062277 0.414640 135 90 0
0.000000 -0.000000 1.176938 0.907852 0.062277 0.414640 135 90 0
-0.099716 0.142939 0.320248 -0.180861 0.974685 0.131449 135 90 0
0.094013 0.197177 0.184627 -0.180861 0.974685 0.131449 135 90 0
-0.080824 0.189635 -0.000004 -0.180861 0.974685 0.131449 135 90 0
-0.116524 -0.031745 0.292044 -0.614294 -0.067827 0.786157 135 90 0
-0.099716 0.142939 0.320248 -0.614294 -0.067827 0.786157 135 90 0
-0.498117 0.041810 0.000218 -0.614294 -0.067827 0.786157 135 90 0
0.188475 -0.085659 0.305949 0.430749 -0.688593 0.583348 135 90 0
0.063281 -0.196783 0.267220 0.430749 -0.688593 0.583348 135 90 0
0.188292 -0.345639 -0.000801 0.430749 -0.688593 0.583348 135 90 0
0.299465 0.001953 1.562119 -0.643376 -0.483958 0.593171 135 90 0
0.016748 -0.117602 1.157932 -0.643376 -0.483958 0.593171 135 90 0
0.347811 -0.068392 1.557165 -0.643376 -0.483958 0.593171 135 90 0
-0.148520 -0.184733 1.529869 -0.457010 0.790710 0.407332 135 90 0
-0.119062 0.015138 1.174932 -0.457010 0.790710 0.407332 135 90 0
-0.217740 -0.207503 1.496410 -0.457010 0.790710 0.407332 135 90 0
-0.169588 0.160060 1.357173 -0.536395 0.822238 -0.190275 135 90 0
-0.266581 0.123240 1.471489 -0.536395 0.822238 -0.190275 135 90 0
-0.123634 0.211239 1.448787 -0.536395 0.822238 -0.190275 135 90 0
0.116031 0.022505 1.170071 0.711271 -0.457808 -0.533390 135 90 0
0.347811 -0.068392 1.557165 0.711271 -0.457808 -0.533390 135 90 0
0.016748 -0.117602 1.157932 0.711271 -0.457808 -0.533390 135 90 0
0.029773 0.110695 1.170460 -0.239505 0.880379 0.409353 135 90 0
0.299465 0.001953 1.562119 -0.239505 0.880379 0.409353 135 90 0
0.391489 0.027572 1.560862 -0.239505 0.880379 0.409353 135 90 0
0.000000 -0.000000 1.176938 0.771585 -0.282132 0.570138 135 90 0
-0.123634 0.211239 1.448787 0.771585 -0.282132 0.570138 135 90 0
-0.174255 0.127102 1.475659 0.771585 -0.282132 0.570138 135 90 0
0.116031 0.022505 1.170071 0.635283 0.623373 -0.455876 135 90 0
0.029773 0.110695 1.170460 0.635283 0.623373 -0.455876 135 90 0
0.391489 0.027572 1.560862 0.635283 0.623373 -0.455876 135 90 0
-0.174255 0.127102 1.475659 -0.124643 -0.937110 0.326019 135 90 0
-0.119062 0.015138 1.174932 -0.124643 -0.937110 0.326019 135 90 0
0.000000 -0.000000 1.176938 -0.124643 -0.937110 0.326019 135 90 0
0.029773 0.110695 1.170460 -0.167637 0.894070 -0.415375 135 90 0
-0.169588 0.160060 1.357173 -0.167637 0.894070 -0.415375 135 90 0
-0.123634 0.211239 1.448787 -0.167637 0.894070 -0.415375 135 90 0
-0.224699 -0.107600 1.492833 0.423444 -0.016698 -0.905768 0 153 9
0.099028 -0.409464 1.649740 0.423444 -0.016698 -0.905768 0 153 9
-0.148520 -0.184733 1.529869 0.423444 -0.016698 -0.905768 0 153 9
0.186021 0.400463 1.626024 -0.053384 0.143278 -0.988242 0 153 9
0.391489 0.027572 1.560862 -0.053384 0.143278 -0.988242 0 153 9
0.299465 0.001953 1.562119 -0.053384 0.143278 -0.988242 0 153 9
-0.740846 0.267402 2.149788 0.059373 0.552678 0.831277 0 153 9
-0.440639 -0.056021 2.343375 0.059373 0.552678 0.831277 0 153 9
-0.479083 0.294775 2.112893 0.059373 0.552678 0.831277 0 153 9
0.092313 0.114181 1.612973 -0.183311 0.104565 -0.977478 0 153 9
0.186021 0.400463 1.626024 -0.183311 0.104565 -0.977478 0 153 9
0.299465 0.001953 1.562119 -0.183311 0.104565 -0.977478 0 153 9
-0.100122 -0.036834 1.593819 -0.093715 -0.196555 -0.976004 0 153 9
0.347811 -0.068392 1.557165 -0.093715 -0.196555 -0.976004 0 153 9
0.099028 -0.409464 1.649740 -0.093715 -0.196555 -0.976004 0 153 9
-0.440639 -0.056021 2.343375 -0.131486 0.416422 0.899613 0 153 9
-0.740846 0.267402 2.149788 -0.131486 0.416422 0.899613 0 153 9
-1.012275 0.015272 2.226825 -0.131486 0.416422 0.899613 0 153 9
0.347811 -0.068392 1.557165 0.173433 -0.041020 -0.983991 0 153 9
0.391489 0.027572 1.560862 0.173433 -0.041020 -0.983991 0 153 9
0.736421 -0.299642 1.635299 0.173433 -0.041020 -0.983991 0 153 9
0.099028 -0.409464 1.649740 0.026464 -0.279789 -0.959697 0 153 9
0.347811 -0.068392 1.557165 0.026464 -0.279789 -0.959697 0 153 9
0.736421 -0.299642 1.635299 0.026464 -0.279789 -0.959697 0 153 9
-0.479083 0.294775 2.112893 -0.853298 0.217767 0.473771 0 153 9
-0.440639 -0.056021 2.343375 -0.853298 0.217767 0.473771 0 153 9
-0.293750 0.448812 2.375889 -0.853298 0.217767 0.473771 0 153 9
-0.323103 -0.485019 2.331594 -0.519468 -0.716235 0.466004 0 153 9
-0.093919 -0.773296 2.143999 -0.519468 -0.716235 0.466004 0 153 9
0.119364 -0.747960 2.420693 -0.519468 -0.716235 0.466004 0 153 9
-0.900401 0.244380 1.765714 -0.553984 0.687826 -0.469038 0 153 9
-1.059838 0.035640 1.647917 -0.553984 0.687826 -0.469038 0 153 9
-0.984535 0.267406 1.898852 -0.553984 0.687826 -0.469038 0 153 9
-0.217740 -0.207503 1.496410 0.436140 0.000504 -0.899879 0 153 9
-0.124948 -0.274971 1.541345 0.436140 0.000504 -0.899879 0 153 9
-0.224699 -0.571120 1.492833 0.436140 0.000504 -0.899879 0 153 9
-0.479083 0.294775 2.112893 -0.059660 0.956306 0.286217 0 153 9
-0.814458 0.317100 1.968394 -0.059660 0.956306 0.286217 0 153 9
-0.740846 0.267402 2.149788 -0.059660 0.956306 0.286217 0 153 9
-0.100122 -0.036834 1.593819 0.060806 -0.565391 -0.822579 0 209 34
-0.266581 0.123240 1.471489 0.060806 -0.565391 -0.822579 0 209 34
-0.174255 0.127102 1.475659 0.060806 -0.565391 -0.822579 0 209 34
-0.116524 -0.031745 0.292044 -0.980939 -0.137455 0.137351 135 90 0
-0.139002 -0.162679 0.000478 -0.980939 -0.137455 0.137351 135 90 0
0.016748 -0.117602 1.157932 -0.980939 -0.137455 0.137351 135 90 0
0.188292 -0.345639 -0.000801 -0.003486 0.000756 -0.999994 135 90 0
-0.139002 -0.162679 0.000478 -0.003486 0.000756 -0.999994 135 90 0
0.204890 0.022430 -0.000581 -0.003486 0.000756 -0.999994 135 90 0
-0.139002 -0.162679 0.000478 -0.000049 -0.001359 -0.999999 135 90 0
-0.498117 0.041810 0.000218 -0.000049 -0.001359 -0.999999 135 90 0
-0.080824 0.189635 -0.000004 -0.000049 -0.001359 -0.999999 135 90 0
-0.080824 0.189635 -0.000004 0.001961 0.006803 -0.999975 135 90 0
0.297179 0.367834 0.001950 0.001961 0.006803 -0.999975 135 90 0
0.204890 0.022430 -0.000581 0.001961 0.006803 -0.999975 135 90 0
-0.148520 -0.184733 1.529869 0.857869 0.278982 0.431543 135 90 0
-0.124948 -0.274971 1.541345 0.857869 0.278982 0.431543 135 90 0
0.016748 -0.117602 1.157932 0.857869 0.278982 0.431543 135 90 0
0.299465 0.001953 1.562119 -0.771851 -0.207077 0.601137 135 90 0
0.000000 -0.000000 1.176938 -0.771851 -0.207077 0.601137 135 90 0
0.016748 -0.117602 1.157932 -0.771851 -0.207077 0.601137 135 90 0
-0.148520 -0.184733 1.529869 0.101425 0.863230 0.494518 135 90 0
0.000000 -0.000000 1.176938 0.101425 0.863230 0.494518 135 90 0
-0.119062 0.015138 1.174932 0.101425 0.863230 0.494518 135 90 0
0.116031 0.022505 1.170071 0.773267 -0.331112 -0.540761 135 90 0
0.391489 0.027572 1.560862 0.773267 -0.331112 -0.540761 135 90 0
0.347811 -0.068392 1.557165 0.773267 -0.331112 -0.540761 135 90 0
0.029773 0.110695 1.170460 -0.766783 0.241057 0.594925 135 90 0
0.000000 -0.000000 1.176938 -0.766783 0.241057 0.594925 135 90 0
0.299465 0.001953 1.562119 -0.766783 0.241057 0.594925 135 90 0
0.000000 -0.000000 1.176938 0.828501 -0.192051 0.526026 135 90 0
0.029773 0.110695 1.170460 0.828501 -0.192051 0.526026 135 90 0
-0.123634 0.211239 1.448787 0.828501 -0.192051 0.526026 135 90 0
-0.174255 0.127102 1.475659 0.023206 -0.935503 0.352556 135 90 0
-0.266581 0.123240 1.471489 0.023206 -0.935503 0.352556 135 90 0
-0.119062 0.015138 1.174932 0.023206 -0.935503 0.352556 135 90 0
0.099028 -0.409464 1.649740 0.435229 -0.000810 -0.900319 0 153 9
-0.124948 -0.274971 1.541345 0.435229 -0.000810 -0.900319 0 153 9
-0.148520 -0.184733 1.529869 0.435229 -0.000810 -0.900319 0 153 9
-0.148520 -0.184733 1.529869 0.435696 -0.001873 -0.900092 0 153 9
-0.217740 -0.207503 1.496410 0.435696 -0.001873 -0.900092 0 153 9
-0.224699 -0.107600 1.492833 0.435696 -0.001873 -0.900092 0 153 9
0.186021 0.400463 1.626024 0.072158 0.210140 -0.975005 0 153 9
0.736421 0.254499 1.635299 0.072158 0.210140 -0.975005 0 153 9
0.391489 0.027572 1.560862 0.072158 0.210140 -0.975005 0 153 9
0.347811 -0.068392 1.557165 -0.080509 0.014864 -0.996643 0 153 9
-0.100122 -0.036834 1.593819 -0.080509 0.014864 -0.996643 0 153 9
0.299465 0.001953 1.562119 -0.080509 0.014864 -0.996643 0 153 9
-0.100122 -0.036834 1.593819 -0.100697 0.250440 -0.962881 0 153 9
0.092313 0.114181 1.612973 -0.100697 0.250440 -0.962881 0 153 9
0.299465 0.001953 1.562119 -0.100697 0.250440 -0.962881 0 153 9
-0.900401 0.244380 1.765714 -0.366317 0.653560 -0.662323 0 153 9
-0.757759 0.133285 1.577197 -0.366317 0.653560 -0.662323 0 153 9
-1.059838 0.035640 1.647917 -0.366317 0.653560 -0.662323 0 153 9
-0.124948 -0.274971 1.541345 0.435915 0.000598 -0.899988 0 153 9
0.099028 -0.409464 1.649740 0.435915 0.000598 -0.899988 0 153 9
-0.224699 -0.571120 1.492833 0.435915 0.000598 -0.899988 0 153 9
-0.224699 -0.571120 1.492833 0.457097 0.000000 -0.889417 0 153 9
-0.224699 -0.107600 1.492833 0.457097 0.000000 -0.889417 0 153 9
-0.217740 -0.207503 1.496410 0.457097 0.000000 -0.889417 0 153 9
3 0 1 2
3 3 4 5
3 6 7 8
3 9 10 11
3 12 13 14
3 15 16 17
3 18 19 20
3 21 22 23
3 24 25 26
3 27 28 29
3 30 31 32
3 33 34 35
3 36 37 38
3 39 40 41
3 42 43 44
3 45 46 47
3 48 49 50
3 51 52 53
3 54 55 56
3 57 58 59
3 60 61 62
3 63 64 65
3 66 67 68
3 69 70 71
3 72 73 74
3 75 76 77
3 78 79 80
3 81 82 83
3 84 85 86
3 87 88 89
3 90 91 92
3 93 94 95
3 96 97 98
3 99 100 101
3 102 103 104
3 105 106 107
3 108 109 110
3 111 112 113
3 114 115 116
3 117 118 119
3 120 121 122
3 123 124 125
3 126 127 128
3 129 130 131
3 132 133 134
3 135 136 137
3 138 139 140
3 141 142 143
3 144 145 146
3 147 148 149
3 150 151 152
3 153 154 155
3 156 157 158
3 159 160 161
3 162 163 164
3 165 166 167
3 168 169 170
3 171 172 173
3 174 175 176
3 177 178 179
3 180 181 182
3 183 184 185
3 186 187 188
3 189 190 191
3 192 193 194
3 195 196 197
3 198 199 200
3 201 202 203
3 204 205 206
3 207 208 209
3 210 211 212
3 213 214 215
3 216 217 218
3 219 220 221
3 222 223 224
3 225 226 227
3 228 229 230
3 231 232 233
3 234 235 236
3 237 238 239
3 240 241 242
3 243 244 245
3 246 247 248
3 249 250 251
3 252 253 254
3 255 256 257
3 258 259 260
3 261 262 263
3 264 265 266
3 267 268 269
3 270 271 272
3 273 274 275
3 276 277 278
3 279 280 281
3 282 283 284
3 285 286 287
3 288 289 290
3 291 292 293
3 294 295 296
3 297 298 299
3 300 301 302
3 303 304 305
3 306 307 308
3 309 310 311
3 312 313 314
3 315 316 317
3 318 319 320
3 321 322 323
3 324 325 326
3 327 328 329
3 330 331 332
3 333 334 335
3 336 337 338
3 339 340 341
3 342 343 344
3 345 346 347
3 348 349 350
3 351 352 353
3 354 355 356
3 357 358 359
3 360 361 362
3 363 364 365
3 366 367 368
3 369 370 371
3 372 373 374
3 375 376 377
3 378 379 380
3 381 382 383
3 384 385 386
3 387 388 389
3 390 391 392
3 393 394 395
3 396 397 398
3 399 400 401
3 402 403 404
3 405 406 407
3 408 409 410
3 411 412 413
3 414 415 416
3 417 418 419
3 420 421 422
3 423 424 425
3 426 427 428
3 429 430 431
3 432 433 434
3 435 436 437
3 438 439 440
3 441 442 443
3 444 445 446
3 447 448 449
3 450 451 452
3 453 454 455
3 456 457 458
3 459 460 461
3 462 463 464
3 465 466 467
3 468 469 470
3 471 472 473
3 474 475 476
3 477 478 479
3 480 481 482
3 483 484 485
3 486 487 488
3 489 490 491
3 492 493 494
3 495 496 497
3 498 499 500
3 501 502 503
3 504 505 506
3 507 508 509
3 510 511 512
3 513 514 515
3 516 517 518
3 519 520 521
3 522 523 524
3 525 526 527
3 528 529 530
3 531 532 533
3 534 535 536
3 537 538 539
3 540 541 542
3 543 544 545
3 546 547 548
3 549 550 551
3 552 553 554
3 555 556 557
3 558 559 560
3 561 562 563
3 564 565 566
3 567 568 569
3 570 571 572
3 573 574 575
3 576 577 578
3 579 580 581
3 582 583 584
3 585 586 587
3 588 589 590
3 591 592 593
3 594 595 596
3 597 598 599
3 600 601 602
3 603 604 605
3 606 607 608
3 609 610 611
3 612 613 614
3 615 616 617
3 618 619 620
3 621 622 623
3 624 625 626
3 627 628 629
3 630 631 632
3 633 634 635
