ply
format ascii 1.0
comment Created by Blender 2.79 (sub 0) - www.blender.org, source file: ''
element vertex 234
property float x
property float y
property float z
property float nx
property float ny
property float nz
property uchar red
property uchar green
property uchar blue
element face 78
property list uchar uint vertex_indices
end_header
0.180921 0.047179 0.628589 0.986514 -0.158795 0.039667 110 73 46
0.170509 -0.173696 0.003334 0.986514 -0.158795 0.039667 110 73 46
0.222521 0.148683 0.000364 0.986514 -0.158795 0.039667 110 73 46
0.222521 0.148683 0.000364 -0.002982 -0.008731 -0.999957 110 73 46
0.170509 -0.173696 0.003334 -0.002982 -0.008731 -0.999957 110 73 46
-0.239683 0.045057 0.002647 -0.002982 -0.008731 -0.999957 110 73 46
-0.239683 0.045057 0.002647 -0.728209 0.684553 0.033154 110 73 46
-0.083703 0.125270 1.772453 -0.728209 0.684553 0.033154 102 80 43
-0.057921 0.238232 0.006328 -0.728209 0.684553 0.033154 110 73 46
0.170509 -0.173696 0.003334 0.142718 -0.988112 0.057150 110 73 46
-0.112189 -0.112189 1.772764 0.142718 -0.988112 0.057150 110 73 46
-0.121120 -0.215537 0.008189 0.142718 -0.988112 0.057150 110 73 46
-0.239683 0.045057 0.002647 -0.989539 0.118814 0.081827 110 73 46
-0.112189 -0.112189 1.772764 -0.989539 0.118814 0.081827 110 73 46
-0.083703 0.125270 1.772453 -0.989539 0.118814 0.081827 102 80 43
0.127323 -0.081784 1.772442 0.000828 0.000792 0.999999 110 73 46
0.101570 0.104607 1.772316 0.000828 0.000792 0.999999 110 73 46
-0.083703 0.125270 1.772453 0.000828 0.000792 0.999999 102 80 43
-0.047251 -0.013243 1.652755 -0.450841 -0.146490 -0.880502 0 173 1
-0.533246 -0.682164 2.012887 -0.450841 -0.146490 -0.880502 3 143 0
-0.833612 0.242257 2.012886 -0.450841 -0.146490 -0.880502 4 143 2
-0.047251 -0.013243 1.652755 -0.278636 0.383509 -0.880502 0 173 1
-0.833612 0.242257 2.012886 -0.278636 0.383509 -0.880502 4 143 2
-0.047251 0.813586 2.012887 -0.278636 0.383509 -0.880502 3 143 0
-0.047251 -0.013243 1.652755 0.278636 0.383509 -0.880502 0 173 1
-0.047251 0.813586 2.012887 0.278636 0.383509 -0.880502 3 143 0
0.739110 0.242257 2.012886 0.278636 0.383509 -0.880502 3 143 0
-0.047251 -0.013243 1.652755 0.450840 -0.146490 -0.880502 0 173 1
0.739110 0.242257 2.012886 0.450840 -0.146490 -0.880502 3 143 0
0.438744 -0.682164 2.012887 0.450840 -0.146490 -0.880502 7 145 4
-0.533246 -0.682164 2.012887 -0.281183 -0.861598 -0.422592 3 143 0
-0.047251 -0.886167 2.105447 -0.281183 -0.861598 -0.422592 3 143 0
-0.364356 -0.989207 2.526522 -0.281183 -0.861598 -0.422592 3 143 0
-0.833612 0.242257 2.012886 -0.906318 0.001170 -0.422594 4 143 2
-0.877449 -0.282996 2.105445 -0.906318 0.001170 -0.422594 3 143 0
-1.073438 -0.013243 2.526522 -0.906318 0.001170 -0.422594 3 142 1
-0.047251 0.813586 2.012887 -0.278950 0.862324 -0.422593 3 143 0
-0.560342 0.692968 2.105447 -0.278950 0.862324 -0.422593 3 142 1
-0.364356 0.962720 2.526522 -0.278950 0.862324 -0.422593 3 143 0
0.739110 0.242257 2.012886 0.733918 0.531769 -0.422595 3 143 0
0.465840 0.692968 2.105447 0.733918 0.531769 -0.422595 6 144 3
0.782952 0.589935 2.526522 0.733918 0.531769 -0.422595 3 143 0
0.438744 -0.682164 2.012887 0.732534 -0.533674 -0.422594 7 145 4
0.782947 -0.282996 2.105445 0.732534 -0.533674 -0.422594 4 143 1
0.782952 -0.616421 2.526522 0.732534 -0.533674 -0.422594 3 143 0
-0.533246 -0.682164 2.012887 -0.564471 -0.776933 -0.278832 3 143 0
-0.364356 -0.989207 2.526522 -0.564471 -0.776933 -0.278832 3 143 0
-0.877454 -0.616421 2.526522 -0.564471 -0.776933 -0.278832 3 143 0
-0.833612 0.242257 2.012886 -0.913337 0.296761 -0.278834 4 143 2
-1.073438 -0.013243 2.526522 -0.913337 0.296761 -0.278834 3 142 1
-0.877454 0.589935 2.526522 -0.913337 0.296761 -0.278834 3 141 3
-0.047251 0.813586 2.012887 0.000000 0.960339 -0.278835 3 143 0
-0.364356 0.962720 2.526522 0.000000 0.960339 -0.278835 3 143 0
0.269854 0.962720 2.526522 0.000000 0.960339 -0.278835 3 143 0
0.739110 0.242257 2.012886 0.913337 0.296761 -0.278834 3 143 0
0.782952 0.589935 2.526522 0.913337 0.296761 -0.278834 3 143 0
0.978936 -0.013243 2.526522 0.913337 0.296761 -0.278834 3 143 0
0.438744 -0.682164 2.012887 0.564471 -0.776933 -0.278832 7 145 4
0.782952 -0.616421 2.526522 0.564471 -0.776933 -0.278832 3 143 0
0.269854 -0.989207 2.526522 0.564471 -0.776933 -0.278832 3 143 0
0.492242 0.729314 2.884712 0.236823 0.618693 0.749088 4 143 1
-0.047251 0.859681 2.947598 0.236823 0.618693 0.749088 3 143 0
0.269853 0.423218 3.207833 0.236823 0.618693 0.749088 3 143 0
0.825675 -0.296869 2.884712 0.591193 -0.045860 0.805226 14 148 11
0.782947 0.256510 2.947599 0.591193 -0.045860 0.805226 3 143 0
0.244590 -0.108066 3.322095 0.591193 -0.045860 0.805226 3 143 0
-0.047251 -0.813857 3.071568 0.285619 -0.423293 0.859793 3 143 0
0.465840 -0.719454 2.947598 0.285619 -0.423293 0.859793 3 143 0
0.244590 -0.108066 3.322095 0.285619 -0.423293 0.859793 3 143 0
0.465840 -0.719454 2.947598 0.505242 -0.310391 0.805225 3 143 0
0.825675 -0.296869 2.884712 0.505242 -0.310391 0.805225 14 148 11
0.244590 -0.108066 3.322095 0.505242 -0.310391 0.805225 3 143 0
0.244590 -0.108066 3.322095 0.487602 0.161348 0.858027 3 143 0
0.782947 0.256510 2.947599 0.487602 0.161348 0.858027 3 143 0
0.269853 0.423218 3.207833 0.487602 0.161348 0.858027 3 143 0
0.782947 0.256510 2.947599 0.515226 0.416424 0.749088 3 143 0
0.492242 0.729314 2.884712 0.515226 0.416424 0.749088 4 143 1
0.269853 0.423218 3.207833 0.515226 0.416424 0.749088 3 143 0
0.269853 0.423218 3.207833 -0.110510 0.213991 0.970564 3 143 0
-0.517837 0.634468 3.071569 -0.110510 0.213991 0.970564 3 143 0
0.244590 -0.108066 3.322095 -0.110510 0.213991 0.970564 3 143 0
0.269853 0.423218 3.207833 -0.014033 0.504526 0.863283 3 143 0
-0.047251 0.859681 2.947598 -0.014033 0.504526 0.863283 3 143 0
-0.517837 0.634468 3.071569 -0.014033 0.504526 0.863283 3 143 0
-0.517837 0.634468 3.071569 -0.241427 0.078446 0.967243 3 143 0
-0.808679 -0.260642 3.071570 -0.241427 0.078446 0.967243 3 143 0
0.244590 -0.108066 3.322095 -0.241427 0.078446 0.967243 3 143 0
-0.517837 0.634468 3.071569 -0.458622 0.149018 0.876048 3 143 0
-0.877449 0.256510 2.947599 -0.458622 0.149018 0.876048 23 152 20
-0.808679 -0.260642 3.071570 -0.458622 0.149018 0.876048 3 143 0
-0.808679 -0.260642 3.071570 -0.187907 -0.258633 0.947523 3 143 0
-0.047251 -0.813857 3.071568 -0.187907 -0.258633 0.947523 3 143 0
0.244590 -0.108066 3.322095 -0.187907 -0.258633 0.947523 3 143 0
-0.808679 -0.260642 3.071570 -0.283444 -0.390127 0.876048 3 143 0
-0.560342 -0.719454 2.947598 -0.283444 -0.390127 0.876048 3 143 0
-0.047251 -0.813857 3.071568 -0.283444 -0.390127 0.876048 3 143 0
0.269854 -0.989207 2.526522 0.262912 -0.863345 0.430712 3 143 0
0.465840 -0.719454 2.947598 0.262912 -0.863345 0.430712 3 143 0
-0.047251 -0.813857 3.071568 0.262912 -0.863345 0.430712 3 143 0
0.269854 -0.989207 2.526522 0.570938 -0.785833 0.237688 3 143 0
0.782952 -0.616421 2.526522 0.570938 -0.785833 0.237688 3 143 0
0.465840 -0.719454 2.947598 0.570938 -0.785833 0.237688 3 143 0
0.782952 -0.616421 2.526522 0.723864 -0.555479 0.409222 3 143 0
0.825675 -0.296869 2.884712 0.723864 -0.555479 0.409222 14 148 11
0.465840 -0.719454 2.947598 0.723864 -0.555479 0.409222 3 143 0
0.978936 -0.013243 2.526522 0.912122 0.023923 0.409221 3 143 0
0.782947 0.256510 2.947599 0.912122 0.023923 0.409221 3 143 0
0.825675 -0.296869 2.884712 0.912122 0.023923 0.409221 14 148 11
0.978936 -0.013243 2.526522 0.923800 0.300161 0.237691 3 143 0
0.782952 0.589935 2.526522 0.923800 0.300161 0.237691 3 143 0
0.782947 0.256510 2.947599 0.923800 0.300161 0.237691 3 143 0
0.782952 0.589935 2.526522 0.751978 0.516786 0.409221 3 143 0
0.492242 0.729314 2.884712 0.751978 0.516786 0.409221 4 143 1
0.782947 0.256510 2.947599 0.751978 0.516786 0.409221 3 143 0
0.269854 0.962720 2.526522 0.259112 0.874872 0.409219 3 143 0
-0.047251 0.859681 2.947598 0.259112 0.874872 0.409219 3 143 0
0.492242 0.729314 2.884712 0.259112 0.874872 0.409219 4 143 1
0.269854 0.962720 2.526522 -0.000000 0.971340 0.237692 3 143 0
-0.364356 0.962720 2.526522 -0.000000 0.971340 0.237692 3 143 0
-0.047251 0.859681 2.947598 -0.000000 0.971340 0.237692 3 143 0
-0.364356 0.962720 2.526522 -0.294760 0.852997 0.430712 3 143 0
-0.517837 0.634468 3.071569 -0.294760 0.852997 0.430712 3 143 0
-0.047251 0.859681 2.947598 -0.294760 0.852997 0.430712 3 143 0
-0.877454 0.589935 2.526522 -0.720159 0.543928 0.430713 3 141 3
-0.877449 0.256510 2.947599 -0.720159 0.543928 0.430713 23 152 20
-0.517837 0.634468 3.071569 -0.720159 0.543928 0.430713 3 143 0
-0.877454 0.589935 2.526522 -0.923800 0.300161 0.237691 3 141 3
-1.073438 -0.013243 2.526522 -0.923800 0.300161 0.237691 3 142 1
-0.877449 0.256510 2.947599 -0.923800 0.300161 0.237691 23 152 20
-1.073438 -0.013243 2.526522 -0.902333 -0.016740 0.430714 3 142 1
-0.808679 -0.260642 3.071570 -0.902333 -0.016740 0.430714 3 143 0
-0.877449 0.256510 2.947599 -0.902333 -0.016740 0.430714 23 152 20
-0.877454 -0.616421 2.526522 -0.739846 -0.516830 0.430715 3 143 0
-0.560342 -0.719454 2.947598 -0.739846 -0.516830 0.430715 3 143 0
-0.808679 -0.260642 3.071570 -0.739846 -0.516830 0.430715 3 143 0
-0.877454 -0.616421 2.526522 -0.570938 -0.785833 0.237688 3 143 0
-0.364356 -0.989207 2.526522 -0.570938 -0.785833 0.237688 3 143 0
-0.560342 -0.719454 2.947598 -0.570938 -0.785833 0.237688 3 143 0
-0.364356 -0.989207 2.526522 -0.262912 -0.863345 0.430712 3 143 0
-0.047251 -0.813857 3.071568 -0.262912 -0.863345 0.430712 3 143 0
-0.560342 -0.719454 2.947598 -0.262912 -0.863345 0.430712 3 143 0
0.782952 -0.616421 2.526522 0.938780 -0.305028 0.160153 3 143 0
0.978936 -0.013243 2.526522 0.938780 -0.305028 0.160153 3 143 0
0.825675 -0.296869 2.884712 0.938780 -0.305028 0.160153 14 148 11
0.782952 -0.616421 2.526522 0.923800 -0.300161 -0.237691 3 143 0
0.782947 -0.282996 2.105445 0.923800 -0.300161 -0.237691 4 143 1
0.978936 -0.013243 2.526522 0.923800 -0.300161 -0.237691 3 143 0
0.782947 -0.282996 2.105445 0.906318 0.001170 -0.422594 4 143 1
0.739110 0.242257 2.012886 0.906318 0.001170 -0.422594 3 143 0
0.978936 -0.013243 2.526522 0.906318 0.001170 -0.422594 3 143 0
0.782952 0.589935 2.526522 0.580196 0.798576 0.160152 3 143 0
0.269854 0.962720 2.526522 0.580196 0.798576 0.160152 3 143 0
0.492242 0.729314 2.884712 0.580196 0.798576 0.160152 4 143 1
0.782952 0.589935 2.526522 0.570938 0.785833 -0.237688 3 143 0
0.465840 0.692968 2.105447 0.570938 0.785833 -0.237688 6 144 3
0.269854 0.962720 2.526522 0.570938 0.785833 -0.237688 3 143 0
0.465840 0.692968 2.105447 0.278950 0.862324 -0.422593 6 144 3
-0.047251 0.813586 2.012887 0.278950 0.862324 -0.422593 3 143 0
0.269854 0.962720 2.526522 0.278950 0.862324 -0.422593 3 143 0
-0.364356 0.962720 2.526522 -0.559540 0.770145 0.306255 3 143 0
-0.877454 0.589935 2.526522 -0.559540 0.770145 0.306255 3 141 3
-0.517837 0.634468 3.071569 -0.559540 0.770145 0.306255 3 143 0
-0.364356 0.962720 2.526522 -0.570938 0.785833 -0.237688 3 143 0
-0.560342 0.692968 2.105447 -0.570938 0.785833 -0.237688 3 142 1
-0.877454 0.589935 2.526522 -0.570938 0.785833 -0.237688 3 141 3
-0.560342 0.692968 2.105447 -0.733918 0.531769 -0.422595 3 142 1
-0.833612 0.242257 2.012886 -0.733918 0.531769 -0.422595 4 143 2
-0.877454 0.589935 2.526522 -0.733918 0.531769 -0.422595 3 141 3
-1.073438 -0.013243 2.526522 -0.905357 -0.294169 0.306257 3 142 1
-0.877454 -0.616421 2.526522 -0.905357 -0.294169 0.306257 3 143 0
-0.808679 -0.260642 3.071570 -0.905357 -0.294169 0.306257 3 143 0
-1.073438 -0.013243 2.526522 -0.923800 -0.300161 -0.237691 3 142 1
-0.877449 -0.282996 2.105445 -0.923800 -0.300161 -0.237691 3 143 0
-0.877454 -0.616421 2.526522 -0.923800 -0.300161 -0.237691 3 143 0
-0.877449 -0.282996 2.105445 -0.732534 -0.533674 -0.422594 3 143 0
-0.533246 -0.682164 2.012887 -0.732534 -0.533674 -0.422594 3 143 0
-0.877454 -0.616421 2.526522 -0.732534 -0.533674 -0.422594 3 143 0
-0.364356 -0.989207 2.526522 0.000000 -0.951949 0.306257 3 143 0
0.269854 -0.989207 2.526522 0.000000 -0.951949 0.306257 3 143 0
-0.047251 -0.813857 3.071568 0.000000 -0.951949 0.306257 3 143 0
-0.364356 -0.989207 2.526522 0.000000 -0.971341 -0.237692 3 143 0
-0.047251 -0.886167 2.105447 0.000000 -0.971341 -0.237692 3 143 0
0.269854 -0.989207 2.526522 0.000000 -0.971341 -0.237692 3 143 0
-0.047251 -0.886167 2.105447 0.281183 -0.861598 -0.422592 3 143 0
0.438744 -0.682164 2.012887 0.281183 -0.861598 -0.422592 7 145 4
0.269854 -0.989207 2.526522 0.281183 -0.861598 -0.422592 3 143 0
0.438744 -0.682164 2.012887 0.392950 -0.127680 -0.910653 7 145 4
0.739110 0.242257 2.012886 0.392950 -0.127680 -0.910653 3 143 0
0.782947 -0.282996 2.105445 0.392950 -0.127680 -0.910653 4 143 1
0.739110 0.242257 2.012886 0.242858 0.334265 -0.910652 3 143 0
-0.047251 0.813586 2.012887 0.242858 0.334265 -0.910652 3 143 0
0.465840 0.692968 2.105447 0.242858 0.334265 -0.910652 6 144 3
-0.047251 0.813586 2.012887 -0.242858 0.334265 -0.910652 3 143 0
-0.833612 0.242257 2.012886 -0.242858 0.334265 -0.910652 4 143 2
-0.560342 0.692968 2.105447 -0.242858 0.334265 -0.910652 3 142 1
-0.047251 -0.886167 2.105447 -0.000000 -0.413179 -0.910650 3 143 0
-0.533246 -0.682164 2.012887 -0.000000 -0.413179 -0.910650 3 143 0
0.438744 -0.682164 2.012887 -0.000000 -0.413179 -0.910650 7 145 4
-0.533246 -0.682164 2.012887 0.000000 -0.474042 -0.880502 3 143 0
-0.047251 -0.013243 1.652755 0.000000 -0.474042 -0.880502 0 173 1
0.438744 -0.682164 2.012887 0.000000 -0.474042 -0.880502 7 145 4
-0.833612 0.242257 2.012886 -0.392950 -0.127680 -0.910653 4 143 2
-0.533246 -0.682164 2.012887 -0.392950 -0.127680 -0.910653 3 143 0
-0.877449 -0.282996 2.105445 -0.392950 -0.127680 -0.910653 3 143 0
0.222521 0.148683 0.000364 0.302982 0.937433 0.171527 110 73 46
-0.057921 0.238232 0.006328 0.302982 0.937433 0.171527 110 73 46
0.180921 0.047179 0.628589 0.302982 0.937433 0.171527 110 73 46
0.180921 0.047179 0.628589 0.619049 0.785344 0.003516 110 73 46
-0.057921 0.238232 0.006328 0.619049 0.785344 0.003516 110 73 46
0.101570 0.104607 1.772316 0.619049 0.785344 0.003516 110 73 46
0.170509 -0.173696 0.003334 -0.012758 -0.027060 -0.999552 110 73 46
-0.121120 -0.215537 0.008189 -0.012758 -0.027060 -0.999552 110 73 46
-0.239683 0.045057 0.002647 -0.012758 -0.027060 -0.999552 110 73 46
-0.239683 0.045057 0.002647 -0.011669 0.030025 -0.999481 110 73 46
-0.057921 0.238232 0.006328 -0.011669 0.030025 -0.999481 110 73 46
0.222521 0.148683 0.000364 -0.011669 0.030025 -0.999481 110 73 46
0.170509 -0.173696 0.003334 0.990358 -0.134973 0.031188 110 73 46
0.180921 0.047179 0.628589 0.990358 -0.134973 0.031188 110 73 46
0.127323 -0.081784 1.772442 0.990358 -0.134973 0.031188 110 73 46
-0.239683 0.045057 0.002647 -0.910073 -0.413445 0.028821 110 73 46
-0.121120 -0.215537 0.008189 -0.910073 -0.413445 0.028821 110 73 46
-0.112189 -0.112189 1.772764 -0.910073 -0.413445 0.028821 110 73 46
-0.057921 0.238232 0.006328 0.110655 0.991728 0.065046 110 73 46
-0.083703 0.125270 1.772453 0.110655 0.991728 0.065046 102 80 43
0.101570 0.104607 1.772316 0.110655 0.991728 0.065046 110 73 46
0.180921 0.047179 0.628589 0.988695 0.136645 0.061734 110 73 46
0.101570 0.104607 1.772316 0.988695 0.136645 0.061734 110 73 46
0.127323 -0.081784 1.772442 0.988695 0.136645 0.061734 110 73 46
0.170509 -0.173696 0.003334 0.125820 -0.990553 0.054535 110 73 46
0.127323 -0.081784 1.772442 0.125820 -0.990553 0.054535 110 73 46
-0.112189 -0.112189 1.772764 0.125820 -0.990553 0.054535 110 73 46
-0.083703 0.125270 1.772453 0.001195 0.001167 0.999999 102 80 43
-0.112189 -0.112189 1.772764 0.001195 0.001167 0.999999 110 73 46
0.127323 -0.081784 1.772442 0.001195 0.001167 0.999999 110 73 46
3 0 1 2
3 3 4 5
3 6 7 8
3 9 10 11
3 12 13 14
3 15 16 17
3 18 19 20
3 21 22 23
3 24 25 26
3 27 28 29
3 30 31 32
3 33 34 35
3 36 37 38
3 39 40 41
3 42 43 44
3 45 46 47
3 48 49 50
3 51 52 53
3 54 55 56
3 57 58 59
3 60 61 62
3 63 64 65
3 66 67 68
3 69 70 71
3 72 73 74
3 75 76 77
3 78 79 80
3 81 82 83
3 84 85 86
3 87 88 89
3 90 91 92
3 93 94 95
3 96 97 98
3 99 100 101
3 102 103 104
3 105 106 107
3 108 109 110
3 111 112 113
3 114 115 116
3 117 118 119
3 120 121 122
3 123 124 125
3 126 127 128
3 129 130 131
3 132 133 134
3 135 136 137
3 138 139 140
3 141 142 143
3 144 145 146
3 147 148 149
3 150 151 152
3 153 154 155
3 156 157 158
3 159 160 161
3 162 163 164
3 165 166 167
3 168 169 170
3 171 172 173
3 174 175 176
3 177 178 179
3 180 181 182
3 183 184 185
3 186 187 188
3 189 190 191
3 192 193 194
3 195 196 197
3 198 199 200
3 201 202 203
3 204 205 206
3 207 208 209
3 210 211 212
3 213 214 215
3 216 217 218
3 219 220 221
3 222 223 224
3 225 226 227
3 228 229 230
3 231 232 233
